<svg width="338" height="222" viewBox="0 0 338 222" fill="none" xmlns="http://www.w3.org/2000/svg">
<path d="M15.9001 165.042C-35.7491 108.886 50.3328 17.9301 104.533 9.22997C221.859 -24.7798 292 41.6564 292 103.35C292 163.507 224.41 165.042 180.412 165.042C136.415 165.042 67.5492 221.198 15.9001 165.042Z" fill="url(#paint0_linear)" fill-opacity="0.31"/>
<path d="M15.9001 165.042C-35.7491 108.886 50.3328 17.9301 104.533 9.22997C221.859 -24.7798 292 41.6564 292 103.35C292 163.507 224.41 165.042 180.412 165.042C136.415 165.042 67.5492 221.198 15.9001 165.042Z" fill="url(#paint1_linear)" fill-opacity="0.31"/>
<path d="M45.1235 121.318C70.2528 121.317 114.677 132.202 139.76 121.317C149.377 117.143 134.46 107.073 121.628 113.489C121.628 103.672 112.539 101.726 108.261 107.607C108.261 92.8307 77.7381 84.425 70.2528 103.672C58.0025 98.5184 51.0518 105.469 52.6558 113.489C44.1012 111.35 19.9942 121.319 45.1235 121.318Z" fill="white" fill-opacity="0.88"/>
<path d="M45.1235 121.318C70.2528 121.317 114.677 132.202 139.76 121.317C149.377 117.143 134.46 107.073 121.628 113.489C121.628 103.672 112.539 101.726 108.261 107.607C108.261 92.8307 77.7381 84.425 70.2528 103.672C58.0025 98.5184 51.0518 105.469 52.6558 113.489C44.1012 111.35 19.9942 121.319 45.1235 121.318Z" fill="url(#paint2_linear)"/>
<path d="M323.809 83.2782C292.451 83.2769 237.015 96.7565 205.715 83.2769C193.714 78.1085 212.328 65.6394 228.341 73.5842C228.341 61.4281 239.683 59.0182 245.021 66.301C245.021 48.0034 283.11 37.5947 292.451 61.4281C307.738 55.0463 316.412 63.6532 314.41 73.5842C325.085 70.936 355.168 83.2794 323.809 83.2782Z" fill="white" fill-opacity="0.88"/>
<path d="M323.809 83.2782C292.451 83.2769 237.015 96.7565 205.715 83.2769C193.714 78.1085 212.328 65.6394 228.341 73.5842C228.341 61.4281 239.683 59.0182 245.021 66.301C245.021 48.0034 283.11 37.5947 292.451 61.4281C307.738 55.0463 316.412 63.6532 314.41 73.5842C325.085 70.936 355.168 83.2794 323.809 83.2782Z" fill="url(#paint3_linear)"/>
<path d="M230.73 145.151C231.806 141.175 229.828 139.502 228.103 137.897L226.386 150.234C227.476 149.865 229.87 148.331 230.73 145.151Z" fill="#F2C94C"/>
<path d="M120.213 218.218C133.178 216.134 141.991 203.984 139.897 191.079C137.804 178.175 125.597 169.403 112.632 171.487C99.6666 173.57 90.8534 185.72 92.9468 198.625C95.0402 211.529 107.248 220.301 120.213 218.218Z" fill="url(#paint4_linear)"/>
<path d="M126.284 204.671C131.731 199.249 131.731 190.458 126.284 185.036C120.836 179.614 112.004 179.614 106.557 185.036C101.109 190.458 101.109 199.249 106.557 204.671C112.004 210.093 120.836 210.093 126.284 204.671Z" fill="#DCDCDC"/>
<path d="M120.462 177.514L118.477 192.837C118.331 193.973 117.265 194.756 116.13 194.561C115.066 194.378 114.335 193.39 114.475 192.325L116.477 177.171L120.462 177.514Z" fill="#1D0F33"/>
<path d="M89.4384 185.003C89.3403 185.258 90.7695 185.947 92.2849 186.52C93.8924 187.133 95.6098 187.609 95.7198 187.298C99.9094 175.918 112.585 170.077 124.013 174.256C129.352 176.208 133.48 179.99 135.925 184.631C136.507 185.728 137.96 185.997 138.89 185.169L140.248 183.968L142.215 182.232C139.063 175.85 133.545 170.636 126.322 167.998C126.12 167.921 125.912 167.853 125.707 167.785C125.505 167.717 125.297 167.646 125.097 167.578C117.402 165.153 109.376 166.123 102.732 169.707C96.7865 172.904 91.9462 178.192 89.4384 185.003Z" fill="#837B8F"/>
<path d="M236.317 218.28C249.309 216.369 258.285 204.336 256.365 191.404C254.445 178.472 242.356 169.538 229.363 171.449C216.371 173.36 207.395 185.393 209.315 198.325C211.235 211.257 223.324 220.191 236.317 218.28Z" fill="url(#paint5_linear)"/>
<path d="M204.091 194.855C204.091 195.145 205.871 195.31 207.594 195.31C209.207 195.31 210.779 195.165 210.779 194.855C210.779 182.735 220.656 172.913 232.833 172.913C237.453 172.913 241.747 174.333 245.285 176.746C246.213 177.379 247.487 177.146 248.153 176.244L248.292 176.057L250.854 172.57C245.921 168.613 239.655 166.25 232.833 166.25C216.96 166.244 204.091 179.053 204.091 194.855Z" fill="#837B8F"/>
<path d="M245.414 200.442C248.518 193.527 245.404 185.417 238.457 182.327C231.51 179.237 223.362 182.338 220.257 189.252C217.153 196.167 220.268 204.277 227.215 207.366C234.162 210.456 242.31 207.356 245.414 200.442Z" fill="#DCDCDC"/>
<path d="M234.015 196.384C234.648 195.996 234.885 195.198 234.57 194.529L211.863 146.737L209.394 147.899L231.929 195.76C232.294 196.546 233.269 196.839 234.015 196.384Z" fill="url(#paint6_linear)"/>
<path d="M207.9 148.151L219.675 172.795L221.782 171.748L224.525 170.382L213.097 146.255L208.658 147.876L207.9 148.151Z" fill="#1D0F33"/>
<path d="M211.308 140.278L212.921 147.29C212.921 147.29 219.135 150.336 224.682 150.978C224.917 151.013 225.154 151.034 225.389 151.055C226.061 151.102 226.72 151.117 227.35 151.081C229.665 145.912 228.506 137.178 228.506 137.178C228.506 137.178 227.891 137.143 226.851 137.152C226.637 137.152 226.399 137.152 226.153 137.158C223 137.199 217.239 137.557 212.348 139.364L211.308 140.278Z" fill="#1D0F33"/>
<path d="M190.241 174.002L189.549 165.901L165.712 158.318L141.24 163.316C141.24 163.316 148.687 192.959 149.899 195.544C151.111 198.129 182.97 198.475 184.875 198.475C186.779 198.475 189.032 191.581 189.032 191.581L190.936 190.72L191.629 187.275L186.607 185.55L190.241 174.002Z" fill="#1D0F33"/>
<path d="M159.919 193.923C166.105 197.611 185.552 198.182 184.643 191.868C184.524 191.054 183.957 190.235 183.056 189.428C178.54 185.367 165.68 181.673 159.832 181.528C158.62 181.502 157.714 181.617 157.241 181.922C154.053 183.977 153.741 190.229 159.919 193.923Z" fill="#C8C2D0"/>
<path d="M159.918 193.923C166.105 197.611 185.552 198.182 184.643 191.868C184.524 191.054 183.956 190.235 183.056 189.428C183.499 196.369 161.208 194.624 158.207 189.339C156.168 185.749 157.604 183.217 159.835 181.528C158.623 181.502 157.716 181.617 157.244 181.922C154.053 183.977 153.741 190.229 159.918 193.923Z" fill="#B8B3C0"/>
<path d="M209.112 153.722C209.112 153.722 192.951 194.05 190.182 198.072C187.412 202.094 150.128 197.268 148.972 196.579C147.819 195.89 140.429 164.18 140.429 164.18L142.506 163.834C142.506 163.834 149.664 192.326 150.933 194.281C152.202 196.233 186.372 195.89 187.873 195.316C189.373 194.742 202.302 160.847 202.302 160.847L209.112 153.722Z" fill="#C8C2D0"/>
<path d="M95.8743 152.631C94.8343 152.977 92.585 153.838 92.065 154.873C91.545 155.908 91.545 162.973 91.8927 164.352C92.2403 165.73 95.8743 164.698 95.8743 164.698L97.0866 155.39L95.8743 152.631Z" fill="#C8C2D0"/>
<path d="M216.386 150.735L209.92 153.722L205.766 144.761L212.461 141.774L216.386 150.735Z" fill="#1D0F33"/>
<path d="M214.422 142.233L204.382 146.024L199.185 138.557L211.884 134.535L214.422 142.233Z" fill="#1D0F33"/>
<path d="M194.469 137.652C194.733 138.072 195.182 138.3 195.646 138.3C195.895 138.3 196.145 138.232 196.374 138.093L199.847 136.513C200.457 136.134 201.241 136.244 201.711 136.776L204.848 140.278C205.353 140.849 206.233 140.899 206.8 140.387C207.374 139.885 207.424 139.009 206.919 138.444L203.782 134.943C202.403 133.405 200.133 133.082 198.38 134.171L194.906 135.751C194.261 136.159 194.062 137.005 194.469 137.652Z" fill="url(#paint7_linear)"/>
<path d="M166.054 160.386C171.02 166.59 187.641 170.154 200.338 165.555C209.017 162.411 211.067 155.414 209.32 150.162C208.509 147.722 206.884 145.66 204.729 144.531C204.729 144.531 198.953 142.806 188.218 145.22C181.009 146.84 171.248 150.327 167.121 154.32C165.098 156.278 164.426 158.345 166.054 160.386Z" fill="#C8C2D0"/>
<path d="M148.512 177.965C149.433 178.881 167.876 178.669 169.061 177.157C169.864 176.122 171.138 170.036 169.982 169.347C169.837 169.258 169.353 169.181 168.619 169.119C164.429 168.752 152.101 168.773 147.807 169.373C146.928 169.492 146.387 169.636 146.319 169.808C145.858 170.952 147.59 177.048 148.512 177.965Z" fill="#C8C2D0"/>
<path d="M114.401 180.721L121.499 181.585L123.029 169.527L123.918 162.503L123.924 162.453L123.315 162.468L116.998 162.627L116.103 168.844L114.401 180.721Z" fill="#1D0F33"/>
<path d="M147.659 198.164C147.748 198.179 156.864 199.619 166.441 200.509C171.801 201.006 175.928 201.205 179.122 201.205C186.637 201.205 188.993 200.095 190.072 199.122C193.673 196.076 195.863 189.886 197.31 185.79C197.497 185.252 197.678 184.755 197.836 184.308C198.73 181.883 197.768 179.151 195.542 177.814L192.577 176.028L190.782 178.979L193.747 180.765C194.559 181.248 194.912 182.247 194.585 183.128C194.419 183.584 194.238 184.093 194.039 184.646C192.716 188.39 190.714 194.047 187.784 196.532C185.098 198.951 165.558 197.525 148.203 194.76L147.891 196.712L147.659 198.164Z" fill="#C8C2D0"/>
<path d="M107.418 194.281C108.339 194.737 147.816 201.175 148.975 200.14C149.251 199.892 149.486 199.389 149.682 198.753C150.291 196.727 150.431 193.382 149.78 192.9C148.859 192.211 110.648 184.167 108.918 184.856C107.783 185.311 107.091 189.047 107.014 191.688C106.975 193.054 107.1 194.124 107.418 194.281Z" fill="#C8C2D0"/>
<path d="M95.3541 166.244C95.6185 166.41 98.3313 166.555 102.536 166.658C116.263 167.01 145.947 167.004 158.78 166.271C162.5 166.058 164.806 165.78 164.904 165.437C165.424 163.541 165.805 157.357 163.573 156.248C162.533 155.73 97.0834 155.213 96.0434 156.076C95.0064 156.94 93.9694 165.384 95.3541 166.244Z" fill="#C8C2D0"/>
<path opacity="0.6" d="M95.3541 166.244C95.6185 166.41 98.3313 166.555 102.536 166.658C96.0404 164.079 103.555 159.924 131.194 159.924C156.391 159.924 162.016 164.115 158.78 166.274C162.5 166.061 164.806 165.783 164.904 165.44C165.424 163.544 165.805 157.36 163.573 156.251C162.533 155.733 97.0834 155.216 96.0434 156.079C95.0064 156.94 93.9694 165.383 95.3541 166.244Z" fill="#C8C2D0"/>
<path d="M164.613 155.044C166.256 156.136 165.998 158.49 165.653 159.353C165.306 160.214 95.1818 158.493 94.4895 158.147C93.7971 157.801 95.0095 151.253 96.5664 150.218C98.1234 149.183 129.293 149.529 131.022 150.046C132.754 150.564 133.447 153.838 135.004 154.355C136.564 154.87 163.056 154.009 164.613 155.044Z" fill="#111111"/>
<path d="M194.799 173.599C195.316 174.732 188.797 187.156 187.065 188.076C185.332 188.996 172.98 184.054 172.404 182.676C171.828 181.298 175.289 169.577 176.329 168.43C177.369 167.279 194.223 172.334 194.799 173.599Z" fill="#C8C2D0"/>
<path d="M174.59 168.795L174.387 169.454L195.861 175.999L196.064 175.34L174.59 168.795Z" fill="#C8C2D0"/>
<path d="M174.003 170.053L173.801 170.712L195.274 177.254L195.477 176.595L174.003 170.053Z" fill="#C8C2D0"/>
<path d="M173.432 171.323L173.229 171.982L194.703 178.525L194.906 177.866L173.432 171.323Z" fill="#C8C2D0"/>
<path d="M172.85 172.584L172.647 173.242L194.121 179.785L194.324 179.126L172.85 172.584Z" fill="#C8C2D0"/>
<path d="M172.272 173.846L172.069 174.505L193.543 181.047L193.746 180.389L172.272 173.846Z" fill="#C8C2D0"/>
<path d="M171.708 175.107L171.505 175.766L192.979 182.313L193.182 181.655L171.708 175.107Z" fill="#C8C2D0"/>
<path d="M171.119 176.372L170.916 177.031L192.39 183.573L192.593 182.914L171.119 176.372Z" fill="#C8C2D0"/>
<path d="M170.548 177.643L170.345 178.302L191.819 184.847L192.022 184.188L170.548 177.643Z" fill="#C8C2D0"/>
<path d="M169.966 178.902L169.763 179.561L191.237 186.103L191.44 185.444L169.966 178.902Z" fill="#C8C2D0"/>
<path opacity="0.6" d="M166.054 160.386C171.02 166.59 187.641 170.154 200.338 165.555C209.017 162.411 211.067 155.414 209.32 150.162C211.427 162.314 196.514 163.447 188.452 160.158C179.975 156.692 172.93 151.809 167.121 154.32C165.098 156.278 164.426 158.345 166.054 160.386Z" fill="black" fill-opacity="0.13"/>
<path d="M147.659 198.164C147.748 198.179 156.864 199.619 166.441 200.51C171.801 201.006 175.928 201.205 179.122 201.205C186.637 201.205 188.993 200.096 190.072 199.123C187.303 201.054 158.801 198.315 147.894 196.709L147.659 198.164Z" fill="#B8B3C0"/>
<path d="M148.512 177.965C149.433 178.881 167.876 178.669 169.061 177.157C169.864 176.122 171.138 170.036 169.982 169.347C169.837 169.258 169.353 169.181 168.619 169.119C168.125 170.766 166.886 174.868 166.521 175.779C166.057 176.93 152.44 176.93 150.82 176.468C149.56 176.11 148.301 171.414 147.807 169.373C146.928 169.492 146.387 169.636 146.319 169.808C145.858 170.953 147.59 177.048 148.512 177.965Z" fill="#B8B3C0"/>
<path d="M78.3579 153.148H129.664C130.416 153.148 131.022 152.542 131.022 151.797V150.883C131.022 150.135 130.413 149.531 129.664 149.531H78.3579C77.6091 149.531 77 150.138 77 150.883V151.797C77 152.542 77.6091 153.148 78.3579 153.148Z" fill="#111111"/>
<path d="M170.11 142.614C158.268 139.426 149.159 130.772 149.159 122.118H129.118V152.179L159.179 178.141C160.849 184.517 166.284 193.445 174.665 178.141C185.141 159.011 181.953 145.803 170.11 142.614Z" fill="url(#paint8_linear)"/>
<path d="M162.855 178.594L161.303 183.765H175.265L162.855 178.594Z" fill="#FEECA3"/>
<path d="M162.855 178.594L161.303 183.765H175.265L162.855 178.594Z" fill="url(#paint9_linear)"/>
<path d="M143.989 159.341C122.289 156.89 127.112 141.439 127.113 131.019L161.171 132.831C161.171 132.831 177.871 136.003 182.059 140.986C191.448 152.157 184.698 170.696 177.064 182.665C173.598 183.094 165.503 181.293 161.171 180.4C164.884 173.076 167.881 163.136 164.415 162.279C160.082 161.207 158.225 160.949 143.989 159.341Z" fill="black"/>
<path d="M143.989 159.341C122.289 156.89 127.112 141.439 127.113 131.019L161.171 132.831C161.171 132.831 177.871 136.003 182.059 140.986C191.448 152.157 184.698 170.696 177.064 182.665C173.598 183.094 165.503 181.293 161.171 180.4C164.884 173.076 167.881 163.136 164.415 162.279C160.082 161.207 158.225 160.949 143.989 159.341Z" fill="url(#paint10_linear)"/>
<path d="M159.752 191.756C155.615 190.928 159.407 184.453 161.82 182.212C161.131 183.246 162.337 184.694 172.679 182.212C185.607 179.11 186.641 193.307 183.021 193.307C179.402 193.307 164.923 192.79 159.752 191.756Z" fill="black"/>
<path d="M152.898 91.1387C138.738 93.9077 127.41 114.06 127.41 132.524L165.345 134.08C166.761 131.745 169.182 129.722 172.015 118.516C175.555 104.509 174.39 86.9359 152.898 91.1387Z" fill="url(#paint11_linear)"/>
<path d="M205.952 142.042C214.55 138.167 206.183 128.063 199.812 130.029L196.402 138.422L202.737 139.416C201.272 143.397 200.296 144.592 205.952 142.042Z" fill="#FAE2F3"/>
<path d="M149.928 118.021C148.618 108.607 147.614 95.6724 160.922 95.0394C174.231 94.4063 172.981 121.227 172.981 121.227C172.981 121.227 191.062 129.381 200.461 129.381L197.47 138.779C193.245 138.323 181.571 140.608 169.317 137.498C152.074 133.121 151.21 127.233 149.928 118.021Z" fill="#7F50B2"/>
<path d="M149.928 118.021C148.618 108.607 147.614 95.6724 160.922 95.0394C174.231 94.4063 172.981 121.227 172.981 121.227C172.981 121.227 191.062 129.381 200.461 129.381L197.47 138.779C193.245 138.323 181.571 140.608 169.317 137.498C152.074 133.121 151.21 127.233 149.928 118.021Z" fill="url(#paint12_linear)"/>
<path d="M123.992 150.432C126.467 151.127 129.168 113.346 126.693 111.723C124.217 110.1 83.9271 107.32 83.0268 111.492C82.1265 115.665 81.2262 144.637 83.9271 147.882C86.6281 151.127 121.516 149.736 123.992 150.432Z" fill="url(#paint13_linear)"/>
<path d="M94.163 132.801C94.163 132.801 97.1529 128.067 103.843 127.033C103.843 127.033 107.234 126.486 109.534 129.103C109.534 129.103 106.031 128.762 103.222 130.688C103.222 130.688 102.093 131.517 101.576 131.841C101.576 131.842 98.3612 134.08 94.163 132.801Z" fill="white"/>
<path d="M115.261 126.117C112.899 126.233 110.794 127.354 109.534 129.104C110.131 129.167 110.769 129.212 111.387 129.186L111.445 129.183C111.795 129.166 112.14 129.135 112.479 129.089C114.119 128.873 115.648 128.333 117 127.544C116.826 127.396 116.632 127.271 116.423 127.171C116.034 126.981 115.592 126.881 115.128 126.893C115.146 126.89 115.164 126.889 115.182 126.888C115.681 126.864 116.165 126.918 116.622 127.039C116.885 127.106 117.138 127.198 117.38 127.311L117.403 127.32C117.72 127.174 118.069 127.086 118.441 127.069C119.102 127.036 119.721 127.234 120.217 127.588C118.324 126.15 116.074 126.077 115.261 126.117ZM114.712 126.933C114.826 126.911 114.941 126.898 115.059 126.893C115.079 126.892 115.099 126.89 115.117 126.892C114.979 126.898 114.846 126.915 114.712 126.933Z" fill="white"/>
<path d="M115.083 126.963C114.946 126.973 114.813 126.993 114.681 127.014C114.793 126.989 114.908 126.974 115.025 126.965C115.045 126.964 115.065 126.962 115.083 126.963Z" fill="white"/>
<path d="M115.153 133.174C115.16 133.15 114.95 132.988 114.924 132.965C114.844 132.894 114.763 132.825 114.681 132.756C114.526 132.627 114.367 132.502 114.204 132.382C113.899 132.157 113.58 131.948 113.25 131.756C112.532 131.34 111.764 131.01 110.966 130.773C110.418 130.61 109.856 130.48 109.285 130.424C104.751 129.973 102.437 132.218 100.023 133.558C95.1943 136.24 90.0357 135.375 90.0357 135.375C93.8799 137.535 97.6557 136.272 97.6557 136.272C97.6793 136.264 97.7029 136.256 97.7265 136.248C97.7147 136.251 97.7041 136.255 97.6911 136.258C97.8091 136.179 99.0798 134.997 100.667 134.339C103.356 133.224 107.842 132.569 112.112 136.574C114.464 135.428 115.153 133.174 115.153 133.174Z" fill="white"/>
<path d="M112.113 136.575C107.843 132.571 103.357 133.225 100.668 134.34C99.0809 134.998 97.8101 136.18 97.6921 136.259C97.7039 136.256 97.7157 136.252 97.7275 136.249C98.4248 136.045 98.9723 135.737 99.5741 135.545C104.894 133.851 108.669 137.252 108.669 137.252C110.623 137.411 112.114 136.576 112.113 136.575C112.113 136.575 112.114 136.575 112.113 136.575Z" fill="white"/>
<path fill-rule="evenodd" clip-rule="evenodd" d="M127.681 117.554H82.5516C82.7074 114.955 82.8967 112.982 83.0859 112.105C83.9862 107.933 124.276 110.713 126.752 112.336C127.278 112.681 127.57 114.66 127.681 117.554Z" fill="url(#paint14_linear)"/>
<path d="M200.389 139.982C200.827 140.684 201.58 141.062 202.353 141.062C202.77 141.062 203.184 140.946 203.564 140.718C205.804 138.188 203.17 136.016 201.115 136.809C200.041 137.49 199.705 138.903 200.389 139.982Z" fill="#1D0F33"/>
<path d="M149.86 86.0304C148.039 84.9962 152.136 84.9962 154.867 83.4448L160.785 89.6501C159.723 89.9949 157.234 90.6844 155.778 90.6844C154.321 90.6844 155.474 89.9949 156.233 89.6501C155.171 89.6501 152.773 89.5467 151.681 89.133C150.589 88.7193 151.833 87.9264 152.591 87.5817L149.86 86.0304Z" fill="#111111"/>
<path d="M153.546 85.4002C154.034 72.9087 158.424 67.1813 169.644 71.3455C180.863 75.5098 177.449 98.9312 174.034 97.8903C170.619 96.8493 153.546 88.0022 153.546 85.4002Z" fill="url(#paint15_linear)"/>
<path fill-rule="evenodd" clip-rule="evenodd" d="M176.422 79.3854C177.875 84.5086 177.503 90.571 176.439 94.2633C169.083 90.4982 165.08 81.7825 165.08 78.5255C165.08 75.7837 170.238 77.426 174.538 78.7951C175.193 79.0037 175.828 79.206 176.422 79.3854Z" fill="#111111"/>
<defs>
<linearGradient id="paint0_linear" x1="127.873" y1="170.452" x2="122.107" y2="-71.7116" gradientUnits="userSpaceOnUse">
<stop offset="0.0156053" stop-color="#FFBB0C"/>
<stop offset="1" stop-color="#FFDF36" stop-opacity="0"/>
</linearGradient>
<linearGradient id="paint1_linear" x1="127.873" y1="170.452" x2="122.107" y2="-71.7116" gradientUnits="userSpaceOnUse">
<stop offset="0.0156053" stop-color="#FFBB0C"/>
<stop offset="1" stop-color="#FFDF36" stop-opacity="0"/>
</linearGradient>
<linearGradient id="paint2_linear" x1="69.2308" y1="74.9927" x2="125.905" y2="132.737" gradientUnits="userSpaceOnUse">
<stop stop-color="#D7165E" stop-opacity="0.21"/>
<stop offset="1" stop-color="white" stop-opacity="0"/>
</linearGradient>
<linearGradient id="paint3_linear" x1="364.685" y1="23.9129" x2="223.636" y2="90.561" gradientUnits="userSpaceOnUse">
<stop stop-color="#E769C4"/>
<stop offset="1" stop-color="white" stop-opacity="0"/>
</linearGradient>
<linearGradient id="paint4_linear" x1="112.632" y1="171.487" x2="124.792" y2="225.963" gradientUnits="userSpaceOnUse">
<stop stop-color="#0C0C0C"/>
<stop offset="1" stop-color="#C9CACB"/>
</linearGradient>
<linearGradient id="paint5_linear" x1="229.363" y1="171.449" x2="271.346" y2="254.949" gradientUnits="userSpaceOnUse">
<stop stop-color="#131313"/>
<stop offset="1" stop-color="#131313" stop-opacity="0"/>
</linearGradient>
<linearGradient id="paint6_linear" x1="222.052" y1="146.737" x2="222.052" y2="196.6" gradientUnits="userSpaceOnUse">
<stop stop-color="#736A80"/>
<stop offset="1" stop-color="white"/>
</linearGradient>
<linearGradient id="paint7_linear" x1="197.051" y1="133.529" x2="197.051" y2="143.496" gradientUnits="userSpaceOnUse">
<stop stop-color="white"/>
<stop offset="1" stop-color="#1D0F33"/>
</linearGradient>
<linearGradient id="paint8_linear" x1="124.144" y1="128.482" x2="166.961" y2="149.098" gradientUnits="userSpaceOnUse">
<stop stop-color="white"/>
<stop offset="1" stop-color="#C4C4C4" stop-opacity="0"/>
</linearGradient>
<linearGradient id="paint9_linear" x1="168.284" y1="178.594" x2="168.026" y2="188.419" gradientUnits="userSpaceOnUse">
<stop stop-color="#CDAE7E"/>
<stop offset="1" stop-color="white" stop-opacity="0"/>
</linearGradient>
<linearGradient id="paint10_linear" x1="156.648" y1="131.019" x2="156.648" y2="182.73" gradientUnits="userSpaceOnUse">
<stop stop-color="#281D39"/>
<stop offset="1" stop-color="white" stop-opacity="0"/>
</linearGradient>
<linearGradient id="paint11_linear" x1="173.547" y1="134.08" x2="131.878" y2="91.807" gradientUnits="userSpaceOnUse">
<stop stop-color="#8445B0"/>
<stop offset="1" stop-color="white"/>
</linearGradient>
<linearGradient id="paint12_linear" x1="135.167" y1="93.9231" x2="213.704" y2="137.497" gradientUnits="userSpaceOnUse">
<stop stop-color="white"/>
<stop offset="1" stop-color="#8445B0"/>
</linearGradient>
<linearGradient id="paint13_linear" x1="125.627" y1="99.91" x2="60.376" y2="207.179" gradientUnits="userSpaceOnUse">
<stop offset="0.166467" stop-color="#9485AA"/>
<stop offset="1"/>
</linearGradient>
<linearGradient id="paint14_linear" x1="83.0001" y1="118" x2="139.5" y2="114" gradientUnits="userSpaceOnUse">
<stop stop-color="#4A4449"/>
<stop offset="1" stop-color="#4A4449" stop-opacity="0"/>
</linearGradient>
<linearGradient id="paint15_linear" x1="165.268" y1="120.705" x2="194.148" y2="76.8608" gradientUnits="userSpaceOnUse">
<stop offset="0.173564" stop-color="#DC7A29"/>
<stop offset="0.828135" stop-color="#FDE667"/>
</linearGradient>
</defs>
</svg>
