<svg width="164" height="132" viewBox="0 0 164 132" fill="none" xmlns="http://www.w3.org/2000/svg">
<path d="M154.856 100.244C173.051 77.3299 164.438 20.424 125.913 20.424C116.395 3.58525 77.6692 -9.61393 47.7556 9.22451C6.70492 35.0766 10.7564 104.966 53.2314 120.996C102.816 139.71 129.149 132.621 154.856 100.244Z" fill="#FFFBD5"/>
<path d="M154.856 100.244C173.051 77.3299 164.438 20.424 125.913 20.424C116.395 3.58525 77.6692 -9.61393 47.7556 9.22451C6.70492 35.0766 10.7564 104.966 53.2314 120.996C102.816 139.71 129.149 132.621 154.856 100.244Z" fill="url(#paint0_linear)" fill-opacity="0.5"/>
<path d="M29.5528 16.7348C54.6359 -2.66483 86.8124 5.36839 103.29 33.6213C119.769 61.8743 96.6238 101.972 68.4578 100.657C40.2908 99.3412 0.746961 92.1318 0.00967214 55.8233C-0.489614 31.2387 18.4591 17.7266 29.5528 16.7348Z" fill="white"/>
<path d="M29.5528 16.7348C54.6359 -2.66483 86.8124 5.36839 103.29 33.6213C119.769 61.8743 96.6238 101.972 68.4578 100.657C40.2908 99.3412 0.746961 92.1318 0.00967214 55.8233C-0.489614 31.2387 18.4591 17.7266 29.5528 16.7348Z" fill="url(#paint1_linear)"/>
<path d="M51.7507 54.77H58.0202C58.809 54.77 59.4696 54.1724 59.5487 53.3874L63.0214 18.8221C63.112 17.9175 62.4023 17.1323 61.4928 17.1323H46.5415C45.6018 17.1323 44.8823 17.9683 45.0224 18.8975L50.2316 53.4626C50.3449 54.2139 50.9906 54.77 51.7507 54.77Z" fill="#FFFBD5"/>
<path d="M51.7504 54.7873H58.0199C58.8088 54.7873 59.4694 54.1897 59.5485 53.4047L63.0211 18.8394C63.1118 17.9348 62.402 17.1497 61.4926 17.1497H46.5412C45.6016 17.1497 44.8821 17.9857 45.0221 18.9148L50.2313 53.48C50.3446 54.2312 50.9904 54.7873 51.7504 54.7873Z" fill="#7F50B2"/>
<path d="M51.7504 54.7873H58.0199C58.8088 54.7873 59.4694 54.1897 59.5485 53.4047L63.0211 18.8394C63.1118 17.9348 62.402 17.1497 61.4926 17.1497H46.5412C45.6016 17.1497 44.8821 17.9857 45.0221 18.9148L50.2313 53.48C50.3446 54.2312 50.9904 54.7873 51.7504 54.7873Z" fill="url(#paint2_linear)"/>
<path d="M54.7095 72.437C58.3154 72.437 61.2385 69.5139 61.2385 65.908C61.2385 62.3022 58.3154 59.379 54.7095 59.379C51.1036 59.379 48.1805 62.3022 48.1805 65.908C48.1805 69.5139 51.1036 72.437 54.7095 72.437Z" fill="#FFFBD5"/>
<path d="M54.7095 72.4544C58.3154 72.4544 61.2385 69.5313 61.2385 65.9255C61.2385 62.3196 58.3154 59.3965 54.7095 59.3965C51.1036 59.3965 48.1805 62.3196 48.1805 65.9255C48.1805 69.5313 51.1036 72.4544 54.7095 72.4544Z" fill="#7F50B2"/>
<path d="M54.7095 72.4544C58.3154 72.4544 61.2385 69.5313 61.2385 65.9255C61.2385 62.3196 58.3154 59.3965 54.7095 59.3965C51.1036 59.3965 48.1805 62.3196 48.1805 65.9255C48.1805 69.5313 51.1036 72.4544 54.7095 72.4544Z" fill="url(#paint3_linear)"/>
<defs>
<linearGradient id="paint0_linear" x1="82.5378" y1="117.701" x2="77.0012" y2="-49.4302" gradientUnits="userSpaceOnUse">
<stop offset="0.0156053" stop-color="#ED9A22"/>
<stop offset="1" stop-color="#FFDF36" stop-opacity="0"/>
</linearGradient>
<linearGradient id="paint1_linear" x1="191.967" y1="178.133" x2="233.121" y2="52.6701" gradientUnits="userSpaceOnUse">
<stop stop-color="#F5F4CA"/>
<stop offset="1" stop-color="white" stop-opacity="0"/>
</linearGradient>
<linearGradient id="paint2_linear" x1="40.3984" y1="17.1497" x2="73.5792" y2="24.9559" gradientUnits="userSpaceOnUse">
<stop stop-color="white"/>
<stop offset="1" stop-color="#8445B0"/>
</linearGradient>
<linearGradient id="paint3_linear" x1="44.8435" y1="59.3965" x2="65.28" y2="69.4364" gradientUnits="userSpaceOnUse">
<stop stop-color="white"/>
<stop offset="1" stop-color="#8445B0"/>
</linearGradient>
</defs>
</svg>
