<svg width="234" height="169" viewBox="0 0 234 169" fill="none" xmlns="http://www.w3.org/2000/svg">
<defs>
<linearGradient id="paint0_linear" x1="113.718" y1="145.064" x2="91.1841" y2="-44.9739" gradientUnits="userSpaceOnUse">
<stop offset="0.0156053" stop-color="#ED9A22"/>
<stop offset="1" stop-color="#FFDF36" stop-opacity="0"/>
</linearGradient>
<linearGradient id="paint1_linear" x1="116.766" y1="76.9277" x2="116.766" y2="199.928" gradientUnits="userSpaceOnUse">
<stop stop-color="white"/>
<stop offset="1" stop-color="#A474A8"/>
</linearGradient>
<linearGradient id="paint2_linear" x1="114.766" y1="111.928" x2="114.766" y2="180.928" gradientUnits="userSpaceOnUse">
<stop stop-color="white"/>
<stop offset="1" stop-color="#A474A8"/>
</linearGradient>
</defs>
<path d="M32.34 148.29C-9.09694 107.563 46.5507 30.2543 85.1183 19.7881C167.503 -14.8078 223.061 32.7715 227.545 81.3067C231.918 128.633 183.145 134.357 151.323 137.297C119.502 140.237 73.7769 189.017 32.34 148.29Z" fill="url(#paint0_linear)" fill-opacity="0.5"/>
<path d="M171.766 79.8356V151.026C171.766 152.631 170.458 153.928 168.847 153.928H64.6845C63.0731 153.928 61.7656 152.631 61.7656 151.026V79.8356C61.7656 78.2303 63.0731 76.9277 64.6845 76.9277H168.844C170.455 76.9249 171.766 78.2303 171.766 79.8356Z" fill="url(#paint1_linear)"/>
<path d="M168.473 85.0983L161.751 89.7217L140.391 104.416L132.512 109.835L125.474 114.677C121.056 117.715 113.867 117.672 109.412 114.583L102.569 109.835L71.8633 88.531L65.1238 83.8537C65.1008 83.8395 65.0807 83.8225 65.0577 83.8054C60.6712 80.7137 60.6654 75.7835 65.0577 72.7571L71.8633 68.077L81.8127 61.2315L108.06 43.1786C112.475 40.1409 119.666 40.1835 124.119 43.2724L140.391 54.5622L150.001 61.2315L161.751 69.3841L168.407 74.0018C172.86 77.0906 172.888 82.0606 168.473 85.0983Z" fill="#BC93C7"/>
<path d="M49.0304 14.8184C48.4526 14.8212 47.8691 14.8327 47.2942 14.8499C47.0557 14.8585 46.8688 15.0564 46.8774 15.2944C46.8803 15.4149 46.9349 15.521 47.0154 15.5956C47.0959 15.6702 47.2051 15.7132 47.323 15.7103C47.8893 15.6931 48.4641 15.6816 49.0333 15.6788C49.2719 15.6788 49.4645 15.4866 49.4645 15.2486C49.4616 15.0105 49.269 14.8184 49.0304 14.8184ZM45.5581 14.9331C44.9832 14.9704 44.3997 15.0163 43.8277 15.0679C43.5891 15.0908 43.4166 15.3002 43.4367 15.5382C43.4482 15.6472 43.5 15.7419 43.5747 15.8136C43.6609 15.8939 43.7788 15.9369 43.9081 15.9254C44.4715 15.8738 45.0464 15.8279 45.6127 15.7906C45.8513 15.7763 46.0324 15.5726 46.0151 15.3346C46.0007 15.0966 45.7967 14.9187 45.5581 14.9331ZM42.5802 15.63C42.5514 15.3948 42.3358 15.2285 42.1001 15.2572C41.5252 15.3289 40.9475 15.412 40.3783 15.5009C40.1426 15.5382 39.9817 15.7562 40.019 15.9914C40.0363 16.0918 40.0851 16.1778 40.1512 16.2409C40.2461 16.3269 40.3755 16.3728 40.5134 16.3499C41.0739 16.2638 41.6431 16.1807 42.2065 16.1118C42.4422 16.0831 42.6089 15.868 42.5802 15.63ZM39.1711 16.1376C39.1251 15.9053 38.9009 15.7505 38.6652 15.7963C38.1018 15.9025 37.5297 16.0201 36.9635 16.1434C36.7307 16.195 36.5841 16.4273 36.6358 16.6567C36.6559 16.7457 36.7019 16.8231 36.7651 16.8805C36.8629 16.9722 37.0066 17.0152 37.1503 16.9837C37.6648 16.869 38.188 16.7629 38.7025 16.6654C38.7456 16.6567 38.7859 16.651 38.8261 16.6424C39.0273 16.6051 39.1682 16.4359 39.1768 16.2409C39.1797 16.2065 39.1768 16.1721 39.1711 16.1376ZM35.7993 16.8575C35.739 16.6281 35.5033 16.4875 35.2733 16.5478C34.7099 16.6912 34.1465 16.8432 33.5975 17.0009C33.3675 17.0669 33.2353 17.3049 33.3014 17.5344C33.3244 17.6118 33.3675 17.6778 33.4222 17.7294C33.5285 17.8298 33.6837 17.8728 33.8361 17.8298C34.3765 17.672 34.9341 17.5229 35.486 17.3795C35.7188 17.3221 35.8568 17.0869 35.7993 16.8575ZM32.4765 17.7867C32.4046 17.5602 32.1603 17.4368 31.9361 17.5085C31.3899 17.6835 30.8352 17.8728 30.289 18.0678C30.0648 18.1481 29.9498 18.3948 30.0274 18.6185C30.0533 18.6844 30.0907 18.7418 30.1424 18.7877C30.2545 18.8938 30.4241 18.9339 30.5793 18.8766C31.1197 18.6844 31.663 18.5009 32.2005 18.3288C32.4276 18.2542 32.5512 18.0133 32.4765 17.7867ZM29.2226 18.9196C29.1335 18.6988 28.8834 18.5898 28.6621 18.6787C28.1246 18.8881 27.5842 19.1089 27.0553 19.3383C26.8368 19.4301 26.7362 19.6854 26.8282 19.9033C26.854 19.9607 26.8885 20.0094 26.9317 20.0467C27.0524 20.1614 27.2335 20.1959 27.3973 20.127C27.9176 19.9033 28.4494 19.6854 28.9783 19.4789C29.1996 19.39 29.3088 19.1404 29.2226 18.9196ZM26.0435 20.2561C25.9428 20.041 25.6841 19.9463 25.4686 20.0467C24.9483 20.2905 24.4223 20.5458 23.9077 20.8067C23.695 20.9129 23.6088 21.171 23.7152 21.3832C23.741 21.432 23.7726 21.4721 23.8071 21.5037C23.9365 21.6241 24.1291 21.6557 24.2958 21.5725C24.8046 21.3173 25.322 21.0649 25.8336 20.8268C26.0492 20.7264 26.1441 20.4712 26.0435 20.2561ZM22.9534 21.7847C22.8384 21.5754 22.5769 21.4979 22.367 21.6127C21.8611 21.888 21.3524 22.1748 20.8551 22.4645C20.6481 22.5849 20.5791 22.8488 20.6999 23.0553C20.7229 23.0925 20.7487 23.1241 20.7803 23.1528C20.9154 23.279 21.1224 23.3048 21.292 23.2073C21.7806 22.9233 22.2808 22.6394 22.781 22.3669C22.9908 22.2551 23.0655 21.9912 22.9534 21.7847ZM19.964 23.4998C19.8375 23.299 19.5702 23.2388 19.369 23.365C18.8803 23.6719 18.3888 23.9902 17.9116 24.3086C17.7133 24.4434 17.6616 24.7101 17.7938 24.908C17.8139 24.9338 17.834 24.9596 17.8599 24.9826C18.0036 25.1145 18.2221 25.1374 18.3917 25.0227C18.8631 24.7072 19.346 24.3946 19.826 24.0935C20.0301 23.9673 20.0905 23.7006 19.964 23.4998ZM17.0867 25.3984C16.9458 25.2034 16.6785 25.1604 16.483 25.298C16.0145 25.6365 15.5431 25.9835 15.0889 26.3334C14.8992 26.4768 14.8619 26.7464 15.0084 26.9357C15.0228 26.9557 15.0401 26.9729 15.0573 26.9902C15.2097 27.1307 15.4425 27.145 15.6121 27.016C16.0605 26.6718 16.5233 26.3305 16.9861 25.9978C17.1815 25.8602 17.2246 25.5906 17.0867 25.3984ZM14.3301 27.4691C14.1806 27.2856 13.9104 27.2569 13.7236 27.4089C13.278 27.7731 12.8296 28.1488 12.3956 28.5274C12.2174 28.6851 12.1972 28.9547 12.3553 29.1354C12.364 29.1469 12.3755 29.1584 12.387 29.167C12.545 29.3161 12.7951 29.3218 12.9618 29.1756C13.3901 28.8056 13.8299 28.4328 14.2697 28.0743C14.4537 27.9251 14.4824 27.6527 14.3301 27.4691ZM11.7143 29.7119C11.5505 29.5369 11.2774 29.5283 11.1049 29.6889C10.6795 30.0819 10.257 30.4891 9.85169 30.8935C9.6821 31.0598 9.6821 31.3323 9.84882 31.5015C9.85457 31.5044 9.85744 31.5101 9.86319 31.513C10.0299 31.6679 10.2944 31.665 10.4582 31.5015C10.8606 31.1057 11.2745 30.7071 11.6913 30.3199C11.8667 30.1564 11.8753 29.884 11.7143 29.7119ZM9.24806 32.1181C9.07272 31.9432 8.80252 31.9633 8.63867 32.1382L8.46333 32.3246C8.12415 32.6889 7.79071 33.0588 7.47165 33.426C7.31643 33.6009 7.33367 33.8648 7.50327 34.0225C7.50614 34.0254 7.50902 34.0282 7.51189 34.0311C7.69298 34.1888 7.96605 34.1688 8.12127 33.9909C8.43459 33.6324 8.76227 33.2682 9.09571 32.9097L9.26818 32.7262C9.43202 32.5541 9.42052 32.2816 9.24806 32.1181ZM6.95712 34.6907C6.77316 34.5416 6.50008 34.5703 6.35061 34.7567C5.98268 35.2098 5.62625 35.6716 5.28419 36.1305C5.15197 36.3083 5.17784 36.5549 5.33881 36.7012C5.35031 36.7127 5.3618 36.7213 5.3733 36.7328C5.56589 36.8733 5.83609 36.8331 5.97693 36.6438C6.31037 36.1936 6.66105 35.7404 7.02323 35.2959C7.1727 35.1123 7.14396 34.8399 6.95712 34.6907ZM4.87602 37.4325C4.67768 37.3006 4.41036 37.3522 4.27814 37.5501C3.9447 38.0406 3.62851 38.5339 3.33532 39.0186C3.22896 39.1964 3.26633 39.4201 3.41293 39.5549C3.43305 39.5749 3.45604 39.5922 3.48191 39.6094C3.686 39.7327 3.95045 39.6667 4.07405 39.4631C4.35862 38.9927 4.66906 38.5109 4.991 38.032C5.1261 37.8341 5.07148 37.5673 4.87602 37.4325ZM10.6537 48.4744C10.1391 48.0757 9.5585 47.8061 8.93187 47.6713C8.69904 47.6226 8.46908 47.7688 8.42022 48.0011C8.38572 48.156 8.44034 48.308 8.54957 48.4084C8.60418 48.46 8.67317 48.4973 8.75078 48.5116C9.25093 48.6206 9.71372 48.8357 10.1248 49.1541C10.3116 49.3003 10.5847 49.2659 10.7284 49.0795C10.875 48.8902 10.8434 48.6235 10.6537 48.4744ZM12.6773 51.5345C12.6399 51.4026 12.5939 51.2649 12.5364 51.1273C12.3467 50.6626 12.1283 50.2382 11.8925 49.8653C11.7632 49.6646 11.4987 49.6043 11.2975 49.7334C11.0963 49.8596 11.036 50.1263 11.1624 50.3271C11.3751 50.6569 11.5677 51.0383 11.7373 51.4542C11.7833 51.5603 11.8178 51.6636 11.8437 51.7611C11.8667 51.8414 11.9098 51.9102 11.9673 51.9618C12.0736 52.0594 12.226 52.1024 12.3755 52.0622C12.6054 51.9991 12.7405 51.7639 12.6773 51.5345ZM3.0565 40.3579C2.84666 40.2461 2.58509 40.3264 2.47586 40.5386C2.19416 41.0692 1.93546 41.5998 1.71125 42.1131C1.63364 42.2852 1.67964 42.4802 1.81186 42.6036C1.84635 42.6351 1.8866 42.6609 1.93259 42.681C2.15105 42.7756 2.404 42.6781 2.49885 42.4602C2.71731 41.964 2.96739 41.4535 3.23759 40.9401C3.34969 40.7279 3.26633 40.4669 3.0565 40.3579ZM7.55213 48.0011C7.51189 47.7688 7.28768 47.6111 7.05485 47.6512C6.06604 47.8233 5.36468 48.2105 5.33593 48.2277L5.2382 48.2965C5.04849 48.4399 5.01399 48.7124 5.16059 48.8988C5.17496 48.9189 5.19221 48.9361 5.20946 48.9504C5.35893 49.091 5.59463 49.1082 5.76423 48.9763L5.78147 48.9648C5.89932 48.9017 6.45122 48.6292 7.20145 48.5002C7.43715 48.46 7.59237 48.2363 7.55213 48.0011ZM12.272 52.9427C12.0794 52.8022 11.8092 52.8423 11.6712 53.0345C11.6367 53.0832 11.5994 53.1291 11.5591 53.1721C11.3119 53.436 10.9354 53.654 10.4668 53.8031C10.2397 53.8748 10.1161 54.1186 10.188 54.3423C10.211 54.4169 10.2512 54.4799 10.3059 54.5287C10.4151 54.6291 10.5761 54.6721 10.7284 54.6233C11.3464 54.4255 11.8379 54.1329 12.1915 53.7543C12.2547 53.6884 12.3122 53.6167 12.3668 53.5421C12.5077 53.35 12.4674 53.0804 12.272 52.9427ZM1.6164 43.484C1.39219 43.4066 1.14786 43.5299 1.07313 43.7536C0.871916 44.3502 0.716696 44.9266 0.613216 45.4687C0.581597 45.6207 0.636211 45.7698 0.742566 45.8673C0.800055 45.919 0.871916 45.9591 0.9524 45.9735C1.18523 46.0193 1.41231 45.8673 1.4583 45.635C1.55603 45.1274 1.70263 44.5882 1.88947 44.0261C1.96421 43.8024 1.84348 43.5586 1.6164 43.484ZM8.89162 54.0354C8.3656 54.044 7.81658 53.9953 7.26469 53.8891C7.02898 53.8433 6.80478 53.9981 6.75878 54.2304C6.73004 54.3824 6.78465 54.5287 6.89101 54.6262C6.9485 54.6807 7.02036 54.718 7.10084 54.7352C7.7131 54.8499 8.31961 54.9044 8.906 54.8958C9.1417 54.8929 9.33429 54.6979 9.32854 54.4599C9.32567 54.2218 9.1302 54.0325 8.89162 54.0354ZM1.46405 48.8673C1.3462 48.3596 1.28584 47.8204 1.28871 47.2641C1.29159 47.026 1.099 46.831 0.860418 46.831C0.621839 46.8281 0.429251 47.0203 0.426376 47.2583C0.423502 47.8835 0.489614 48.4916 0.624713 49.0652C0.644834 49.1512 0.690826 49.2258 0.751189 49.2803C0.851795 49.3749 0.998392 49.4179 1.14211 49.3864C1.37494 49.3319 1.51867 49.0996 1.46405 48.8673ZM4.51097 49.4638C4.34712 49.2946 4.0683 49.2975 3.90158 49.4638C3.78373 49.5814 3.66875 49.699 3.55952 49.8166C3.26633 50.1321 2.98751 50.4647 2.72881 50.806C2.59371 50.9839 2.61958 51.2305 2.78055 51.3796C2.79205 51.3882 2.80354 51.3997 2.81504 51.4083C3.00476 51.5517 3.27495 51.5144 3.41868 51.3223C3.65726 51.0068 3.91596 50.6971 4.1919 50.4016C4.29538 50.2927 4.40174 50.1808 4.51097 50.0718C4.67768 49.9055 4.67768 49.633 4.51097 49.4638ZM5.68662 53.4331C5.16922 53.2295 4.68056 52.9771 4.23215 52.6875C4.03093 52.5584 3.76648 52.6157 3.63426 52.8136C3.51928 52.9915 3.5509 53.2238 3.70325 53.3643C3.72049 53.3786 3.74061 53.3958 3.76074 53.4073C4.25802 53.7314 4.79841 54.0067 5.37043 54.2333C5.59176 54.3193 5.84184 54.2132 5.92807 53.9924C6.01718 53.7687 5.90795 53.522 5.68662 53.4331ZM2.98176 51.6578C2.60521 51.2649 2.28614 50.829 2.03319 50.3644C1.91821 50.1579 1.65951 50.0776 1.44968 50.1923C1.23985 50.3041 1.16224 50.568 1.27721 50.7745C1.52729 51.2362 1.83486 51.6722 2.19416 52.0737C2.02457 52.0507 1.8521 52.1339 1.76299 52.2917C1.4813 52.8022 1.23122 53.3414 1.01564 53.8949C0.949526 54.0641 0.998392 54.2505 1.12487 54.3652C1.16511 54.4025 1.2111 54.4312 1.26284 54.4513C1.48705 54.5373 1.73425 54.4255 1.82048 54.2046C2.02169 53.6855 2.25453 53.1836 2.51897 52.7075C2.57934 52.5985 2.58509 52.4781 2.55059 52.3691C2.69432 52.4092 2.85241 52.3748 2.96739 52.2659C3.13986 52.1024 3.1456 51.8299 2.98176 51.6578ZM1.00989 55.2658C0.777059 55.2084 0.544229 55.3489 0.48674 55.5784C0.348766 56.1348 0.239537 56.717 0.159053 57.3107C0.141806 57.4541 0.196421 57.5917 0.294152 57.6835C0.35739 57.7409 0.437874 57.781 0.529857 57.7954C0.765561 57.8269 0.984019 57.6606 1.01564 57.4254C1.09037 56.8633 1.19385 56.3097 1.3232 55.7878C1.38069 55.5555 1.23985 55.3231 1.00989 55.2658ZM0.87479 59.0946C0.883414 58.8565 0.699449 58.6586 0.46087 58.65C0.222291 58.6414 0.0239537 58.825 0.0153304 59.063C-0.00766519 59.628 -0.00479075 60.2188 0.0239537 60.8182C0.0297026 60.9358 0.0814427 61.0391 0.161927 61.1136C0.242412 61.1882 0.354515 61.2341 0.475242 61.2284C0.710947 61.2169 0.894911 61.0161 0.886288 60.7781C0.860418 60.2045 0.854669 59.6366 0.87479 59.0946ZM1.26859 64.1394C1.16798 63.5686 1.08462 63.0036 1.02139 62.4616C0.995517 62.2264 0.779934 62.0572 0.544229 62.0859C0.308524 62.1117 0.138932 62.3239 0.164802 62.562C0.230914 63.1212 0.314273 63.7006 0.417753 64.2885C0.435 64.386 0.483865 64.4692 0.549978 64.5294C0.644834 64.6183 0.779934 64.6642 0.917907 64.6384C1.15361 64.5983 1.30883 64.3746 1.26859 64.1394ZM2.02744 67.4577C1.87222 66.8984 1.73138 66.342 1.60777 65.8057C1.55316 65.5734 1.3232 65.43 1.09037 65.4816C0.857544 65.5361 0.713821 65.7655 0.768436 65.9978C0.894911 66.5485 1.03863 67.1164 1.19673 67.6871C1.21972 67.7645 1.26284 67.8334 1.31746 67.885C1.42381 67.9854 1.57616 68.0284 1.72563 67.9854C1.95558 67.9223 2.09068 67.6842 2.02744 67.4577ZM3.06512 70.71C2.86966 70.165 2.68569 69.623 2.5161 69.0924C2.44424 68.8658 2.19991 68.7397 1.97283 68.8114C1.74575 68.8859 1.62215 69.1268 1.69401 69.3534C1.86647 69.8926 2.05619 70.4461 2.25453 70.9996C2.27752 71.0656 2.31776 71.123 2.36663 71.1688C2.47873 71.275 2.64832 71.3151 2.80354 71.2578C3.02775 71.1803 3.1456 70.9337 3.06512 70.71ZM4.3155 73.8935C4.09417 73.3686 3.87571 72.8352 3.66875 72.3103C3.57965 72.0895 3.32957 71.9805 3.10824 72.0665C2.8869 72.1526 2.77767 72.405 2.86391 72.6258C3.07374 73.1592 3.29508 73.6984 3.52216 74.2319C3.54803 74.2892 3.58252 74.338 3.62564 74.3781C3.74636 74.49 3.92745 74.5273 4.08842 74.4584C4.30688 74.3667 4.41036 74.1143 4.3155 73.8935ZM5.73548 77.0167C5.4854 76.4947 5.2382 75.9699 5.00825 75.4622C4.90764 75.2471 4.65469 75.1496 4.43623 75.2471C4.22065 75.3475 4.12292 75.6028 4.22352 75.8179C4.45635 76.3312 4.70355 76.8618 4.95938 77.3895C4.98525 77.4412 5.01687 77.4842 5.05424 77.5186C5.18071 77.6362 5.37043 77.6706 5.53427 77.5903C5.74985 77.4871 5.83896 77.2318 5.73548 77.0167ZM7.29056 80.074C7.02323 79.5721 6.75878 79.0645 6.49721 78.5511C6.39086 78.3417 6.13215 78.2557 5.91945 78.3647C5.70674 78.4708 5.6205 78.7289 5.72973 78.9411C5.99131 79.4574 6.25863 79.9707 6.52883 80.4784C6.55182 80.5214 6.58344 80.5587 6.61794 80.5902C6.74729 80.7136 6.94562 80.7451 7.11234 80.6562C7.32218 80.5443 7.40266 80.2834 7.29056 80.074ZM8.95774 83.0768C8.67604 82.5864 8.39147 82.0873 8.11265 81.5826C7.99767 81.3761 7.73322 81.2986 7.52626 81.4162C7.31643 81.5309 7.24169 81.7919 7.35667 82.0013C7.64124 82.5089 7.92581 83.0108 8.21038 83.507C8.23338 83.5443 8.26212 83.5787 8.29086 83.6074C8.42596 83.7336 8.63292 83.7622 8.79964 83.6647C9.0066 83.5471 9.07846 83.2833 8.95774 83.0768ZM10.7226 86.028C10.4323 85.5547 10.1391 85.0787 9.84594 84.5882C9.84019 84.5796 9.83444 84.5682 9.82869 84.5595C9.70797 84.3559 9.44352 84.2871 9.23943 84.4104C9.19919 84.4334 9.1647 84.462 9.13595 84.4965C9.01523 84.6312 8.98936 84.8349 9.08996 84.9984C9.39178 85.5031 9.69072 85.9964 9.98966 86.4782C10.0098 86.5127 10.0357 86.5442 10.0644 86.57C10.2024 86.6962 10.4151 86.722 10.5818 86.6188C10.7859 86.4954 10.8491 86.2287 10.7226 86.028ZM12.5738 88.9275C12.5249 88.853 12.4761 88.7755 12.4272 88.7009C12.1656 88.3052 11.904 87.8979 11.6396 87.4849C11.5102 87.2841 11.2429 87.2239 11.0446 87.353C10.8434 87.4792 10.783 87.7459 10.9124 87.9467C11.2142 88.4199 11.516 88.8845 11.8121 89.3376C11.8264 89.3577 11.8379 89.3807 11.8523 89.4007C11.8724 89.4294 11.8954 89.4552 11.9213 89.4782C12.0621 89.6101 12.2806 89.633 12.4502 89.5241C12.6485 89.3921 12.7031 89.1254 12.5738 88.9275ZM14.5025 91.7812C14.1864 91.328 13.8615 90.8548 13.5281 90.3586C13.3959 90.1636 13.1286 90.112 12.9302 90.2439C12.7319 90.3759 12.6801 90.6454 12.8124 90.8405C13.1487 91.3395 13.4764 91.8156 13.7926 92.2716C13.8098 92.2974 13.8328 92.3204 13.8529 92.3404C13.9995 92.4752 14.2237 92.4953 14.3933 92.3777C14.5888 92.2429 14.6376 91.9762 14.5025 91.7812ZM16.5032 94.5861C16.1927 94.1616 15.8535 93.6941 15.4942 93.1894C15.3563 92.9943 15.0861 92.9513 14.8906 93.089C14.698 93.2266 14.652 93.4934 14.79 93.6884C15.155 94.1989 15.4942 94.6664 15.8075 95.0937C15.8248 95.1167 15.842 95.1367 15.8622 95.1568C16.0116 95.2945 16.2416 95.3117 16.4112 95.1884C16.6009 95.0478 16.644 94.7782 16.5032 94.5861ZM18.5958 97.3652C18.5699 97.3279 18.4952 97.2275 18.3716 97.0669C18.1905 96.8317 17.903 96.4618 17.5322 95.9713C17.3885 95.782 17.1183 95.7419 16.9286 95.8853C16.7389 96.0287 16.7015 96.2983 16.8452 96.4876C17.216 96.9837 17.5063 97.3566 17.6874 97.5917C17.7995 97.738 17.8685 97.8269 17.8944 97.8613C17.9116 97.8872 17.9318 97.9072 17.9519 97.9273C18.0985 98.065 18.3256 98.0822 18.4952 97.9646C18.6877 97.8269 18.7337 97.5573 18.5958 97.3652Z" fill="#DDDBE0"/>
<path d="M46.5045 13.5362L45.7656 10.9277L63.7656 17.9277L46.5045 13.5362Z" fill="#D3C4D5"/>
<path d="M45.7656 16.9277L46.8002 19.9277L63.7656 17.3598L45.7656 16.9277Z" fill="#D3C4D5"/>
<path d="M45.7656 11.1211L49.3038 7.92773L63.7656 17.9277L45.7656 11.1211Z" fill="#ECE4ED"/>
<path d="M43.2342 12.9277L63.7656 17.9277L37.7656 17.4378L43.2342 12.9277Z" fill="#ECE4ED"/>
<path d="M215.617 92.026L216.766 87.9277L188.766 98.9277L215.617 92.026Z" fill="#E9DDEA"/>
<path d="M217.766 97.9277L216.098 102.928L188.766 98.6467L217.766 97.9277Z" fill="#E9DDEA"/>
<path d="M216.766 88.0338L211.26 82.9277L188.766 98.9277L216.766 88.0338Z" fill="white"/>
<path d="M220.354 90.9277L188.766 98.9277L228.766 98.1452L220.354 90.9277Z" fill="white"/>
<path d="M145.639 101.098L140.348 104.45L132.52 109.928L125.525 114.822C121.135 117.893 113.992 117.85 109.565 114.728L102.765 109.928L93.1387 103.134C106.255 106.136 127.818 108.787 145.639 101.098Z" fill="#BC93C7"/>
<path d="M63.7656 153.928L115.014 112.892C115.6 112.424 116.302 112.117 117.044 112.003L117.165 111.977C118.461 111.776 119.656 112.198 120.623 113.078L165.766 153.928H63.7656Z" fill="white"/>
<path d="M63.7656 153.928L115.014 112.892C115.6 112.424 116.302 112.117 117.044 112.003L117.165 111.977C118.461 111.776 119.656 112.198 120.623 113.078L165.766 153.928H63.7656Z" fill="url(#paint2_linear)"/>
</svg>
