<svg width="96" height="32" viewBox="0 0 96 32" fill="none" xmlns="http://www.w3.org/2000/svg">
<g clip-path="url(#clip0)">
<path d="M95.9513 31.808C85.2229 31.808 74.5756 31.808 63.8431 31.808C63.831 31.5402 63.8107 31.2927 63.8107 31.0452C63.8066 20.9741 63.8107 10.907 63.7944 0.835906C63.7944 0.211027 63.9405 -0.00402832 64.61 -0.00402832C74.8191 0.01626 85.0322 0.01626 95.2412 2.93357e-05C95.8174 2.93357e-05 96.0041 0.150163 96.0041 0.746638C95.9878 10.8624 95.9919 20.9781 95.9919 31.0938C95.9878 31.3089 95.9676 31.5158 95.9513 31.808ZM78.9214 23.7576C78.5197 23.924 78.2721 24.07 78.0084 24.1269C76.8885 24.3622 75.7686 24.699 74.6365 24.7598C73.2406 24.8369 72.3033 24.0498 71.8326 22.727C71.0576 20.5561 71.4959 18.3974 72.2506 16.3889C73.5855 12.8344 75.9999 10.0184 79.0066 7.70552C79.6315 7.22671 80.1833 7.19425 80.7635 7.71769C81.7536 8.61443 82.8126 9.45437 83.7134 10.4363C85.9898 12.9155 87.7833 15.6666 88.185 19.1238C88.3392 20.4425 88.4041 21.7491 87.8522 23.0069C87.5398 23.7251 87.061 24.2486 86.2941 24.5367C84.7563 25.1169 83.332 24.6584 81.8956 24.1796C81.5791 24.0741 81.2667 23.9483 80.865 23.8022C80.865 25.1534 80.8771 26.3748 80.8609 27.5961C80.8569 28.0344 81.0881 28.0912 81.4412 28.0912C82.7842 28.0831 84.1273 28.0993 85.4704 28.079C85.7626 28.075 86.075 27.9776 86.3428 27.8518C88.0308 27.0727 89.6863 26.2206 91.3986 25.5024C92.1534 25.1859 92.198 24.8126 92.0195 24.1187C91.0294 20.3532 90.0718 16.5796 89.1264 12.8019C88.964 12.1568 88.6476 11.6658 88.1525 11.2276C86.428 9.69783 84.7279 8.13969 83.0155 6.59372C81.9889 5.66452 80.9542 4.73937 79.9195 3.80611C79.7816 3.89538 79.672 3.94407 79.5868 4.02117C76.9372 6.4233 74.3038 8.84166 71.6298 11.2154C71.086 11.6983 70.7898 12.2217 70.6235 12.9155C69.9661 15.6301 69.2479 18.3325 68.5581 21.039C68.2173 22.3739 67.8927 23.717 67.5518 25.0926C69.2601 25.896 70.9156 26.6832 72.5752 27.4541C73.0865 27.6895 73.6099 28.0222 74.1414 28.0547C75.5738 28.1399 77.0143 28.0993 78.4547 28.0709C78.6089 28.0668 78.8889 27.8355 78.893 27.7016C78.9376 26.4357 78.9214 25.1697 78.9214 23.7576Z" fill="#4F2E7F"/>
<path d="M40.2398 5.55086C40.8078 5.55086 41.3191 5.55086 41.8344 5.55086C44.8493 5.55898 47.8722 5.47377 50.883 5.61578C52.1896 5.67665 53.5408 6.04184 54.7499 6.55716C58.552 8.17618 58.0691 14.003 55.2653 15.3461C55.2085 15.3745 55.1719 15.4435 55.0989 15.5246C55.5371 15.7803 55.9794 15.9953 56.3811 16.2753C58.1705 17.5251 58.625 19.3469 58.414 21.3717C58.1989 23.4533 57.075 24.9303 55.1476 25.7986C53.695 26.4519 52.149 26.6345 50.599 26.6629C47.3001 26.7238 44.0012 26.6994 40.6983 26.7076C40.5603 26.7076 40.4224 26.6913 40.2357 26.6792C40.2398 19.6553 40.2398 12.6599 40.2398 5.55086ZM44.8371 17.6752C44.8371 19.278 44.829 20.7955 44.8533 22.3131C44.8574 22.4308 45.1171 22.6377 45.255 22.6418C47.3488 22.6539 49.4466 22.6945 51.5363 22.6012C52.9362 22.5363 53.5976 21.7288 53.6463 20.3532C53.7031 18.8235 53.1553 18.012 51.7148 17.8253C50.534 17.6711 49.3249 17.7036 48.1278 17.6792C47.0566 17.659 45.9814 17.6752 44.8371 17.6752ZM44.8371 9.641C44.8371 11.1099 44.8371 12.5544 44.8371 13.9949C46.9795 13.9949 49.0692 14.0273 51.1549 13.9746C51.7676 13.9584 52.3803 13.6824 52.6481 13.0535C53.2364 11.6698 52.993 9.76272 50.8343 9.65723C48.8663 9.56796 46.8862 9.641 44.8371 9.641Z" fill="#4F2E7F"/>
<path d="M0.543732 21.2458C2.1668 21.7489 3.70465 22.3697 5.29931 22.6741C6.54502 22.9135 7.86782 22.8242 9.15004 22.7552C9.70594 22.7228 10.2902 22.4428 10.7853 22.1506C12.0513 21.404 12.0878 19.9717 10.7975 19.29C9.73028 18.726 8.54139 18.3811 7.39307 17.9794C5.95666 17.4762 4.43503 17.1597 3.07571 16.4983C0.815596 15.3947 -0.0811481 13.4348 0.178542 10.9556C0.422002 8.6103 1.6677 6.99131 3.8345 6.09863C6.47604 5.01118 9.22713 5.08828 11.9782 5.50215C13.0211 5.65634 14.0355 5.98095 15.0661 6.22847C15.407 6.30962 15.6017 6.45976 15.5246 6.86552C15.3136 7.99354 15.1351 9.12968 14.9322 10.3226C14.003 10.1116 13.0981 9.8844 12.1892 9.70586C10.2618 9.33256 8.32633 9.08505 6.39488 9.70992C5.64827 9.94932 4.99499 10.3186 4.82051 11.1626C4.67038 11.8767 4.90572 12.3961 5.72131 12.7166C6.87369 13.1751 8.08287 13.4916 9.26365 13.8893C10.6635 14.36 12.1284 14.7049 13.4309 15.3663C15.7437 16.543 16.4457 18.6611 16.2712 21.124C16.117 23.3314 14.8876 24.8124 12.9926 25.8066C10.7366 26.9873 8.29387 27.2267 5.83898 26.9143C4.13071 26.6952 2.46301 26.1312 0.783134 25.6929C0.166369 25.5306 -0.109552 25.1492 0.0365241 24.4391C0.267811 23.3436 0.393599 22.2237 0.543732 21.2458Z" fill="#4F2E7F"/>
<path d="M35.7925 21.8668C35.963 22.9948 36.1496 24.1309 36.2916 25.2711C36.3119 25.4416 36.178 25.754 36.0401 25.8027C32.2583 27.1945 28.436 27.5921 24.5975 26.038C21.8504 24.9262 20.2639 22.7878 19.5782 19.9759C18.8478 16.9894 18.9005 14.007 19.9717 11.0936C21.1404 7.91645 23.5384 6.15541 26.7764 5.46966C29.7953 4.82855 32.7696 5.0639 35.6992 6.02557C36.1658 6.17976 36.3363 6.37047 36.247 6.87768C36.0522 7.96108 35.9224 9.05665 35.7479 10.2415C35.4517 10.1766 35.2123 10.1279 34.9729 10.067C32.7655 9.51517 30.5622 9.16215 28.2696 9.57198C26.2246 9.93717 25.0641 11.1504 24.5772 13.0778C24.0781 15.0701 24.0659 17.0868 24.565 19.0832C25.1493 21.4366 26.7115 22.6823 29.1948 22.7716C30.2985 22.8122 31.4184 22.8122 32.5099 22.6621C33.5892 22.516 34.6442 22.1589 35.7925 21.8668Z" fill="#4F2E7F"/>
<path d="M78.9214 23.7575C78.9214 25.1696 78.9335 26.4356 78.9011 27.7015C78.897 27.8355 78.617 28.0667 78.4628 28.0708C77.0264 28.0992 75.5819 28.1398 74.1496 28.0546C73.618 28.0221 73.0905 27.6934 72.5833 27.454C70.9197 26.6831 69.2642 25.8959 67.5599 25.0925C67.9008 23.7169 68.2254 22.3779 68.5662 21.0389C69.256 18.3324 69.9742 15.63 70.6316 12.9155C70.802 12.2175 71.0982 11.6941 71.6379 11.2153C74.3119 8.83752 76.9453 6.41916 79.5949 4.02109C79.6801 3.94399 79.7897 3.8953 79.9277 3.80603C80.9664 4.73929 81.9971 5.66444 83.0237 6.59364C84.736 8.1396 86.4321 9.69774 88.1606 11.2275C88.6557 11.6657 88.9722 12.1526 89.1345 12.8018C90.0799 16.5795 91.0375 20.3531 92.0276 24.1186C92.2102 24.8084 92.1615 25.1858 91.4068 25.5023C89.6944 26.2205 88.0389 27.0726 86.3509 27.8517C86.0791 27.9775 85.7707 28.0749 85.4785 28.0789C84.1354 28.1033 82.7924 28.083 81.4493 28.0911C81.0963 28.0951 80.865 28.0343 80.869 27.5961C80.8853 26.3747 80.8731 25.1574 80.8731 23.8021C81.2748 23.9482 81.5872 24.074 81.9037 24.1795C83.3401 24.6583 84.7644 25.1168 86.3022 24.5366C87.0691 24.2444 87.5479 23.721 87.8604 23.0068C88.4122 21.749 88.3432 20.4465 88.1931 19.1237C87.7914 15.6666 85.9979 12.9155 83.7216 10.4362C82.8208 9.45428 81.7617 8.61841 80.7717 7.71761C80.1955 7.19417 79.6396 7.22257 79.0147 7.70543C76.0039 10.0183 73.5937 12.8343 72.2587 16.3888C71.504 18.3974 71.0617 20.556 71.8408 22.7269C72.3114 24.0456 73.2488 24.8328 74.6446 24.7598C75.7767 24.6989 76.8966 24.3621 78.0165 24.1268C78.2762 24.074 78.5237 23.9239 78.9214 23.7575Z" fill="#FBAA29"/>
</g>
<defs>
<clipPath id="clip0">
<rect width="96" height="31.8079" fill="white"/>
</clipPath>
</defs>
</svg>
