<svg width="188" height="121" viewBox="0 0 188 121" fill="none" xmlns="http://www.w3.org/2000/svg">
<defs>
<linearGradient id="paint0_linear" x1="68.6283" y1="94.9973" x2="114.386" y2="-29.8979" gradientUnits="userSpaceOnUse">
<stop offset="0.0156053" stop-color="#ED9A22"/>
<stop offset="1" stop-color="#FFDF36" stop-opacity="0"/>
</linearGradient>
<linearGradient id="paint1_linear" x1="130.924" y1="57.8573" x2="132.267" y2="46.9415" gradientUnits="userSpaceOnUse">
<stop stop-color="#DB822F"/>
<stop offset="1" stop-color="#F6D3BA" stop-opacity="0"/>
</linearGradient>
<linearGradient id="paint2_linear" x1="60" y1="81.6674" x2="56.3789" y2="74.7113" gradientUnits="userSpaceOnUse">
<stop stop-color="#AB6FC8"/>
<stop offset="1" stop-color="#E80088" stop-opacity="0"/>
</linearGradient>
<linearGradient id="paint3_linear" x1="126" y1="50.1846" x2="122.686" y2="46.7889" gradientUnits="userSpaceOnUse">
<stop stop-color="#AB6FC8"/>
<stop offset="1" stop-color="#E80088" stop-opacity="0"/>
</linearGradient>
<linearGradient id="paint4_linear" x1="127" y1="78.7363" x2="133.296" y2="73.0647" gradientUnits="userSpaceOnUse">
<stop stop-color="#CF1E9E"/>
<stop offset="1" stop-color="#7F50B2"/>
</linearGradient>
<linearGradient id="paint5_linear" x1="112.771" y1="94.8521" x2="108.745" y2="52.4354" gradientUnits="userSpaceOnUse">
<stop stop-color="#A474A8"/>
<stop offset="1" stop-color="white" stop-opacity="0"/>
</linearGradient>
<linearGradient id="paint6_linear" x1="116.456" y1="56.8061" x2="107.998" y2="73.4402" gradientUnits="userSpaceOnUse">
<stop stop-color="#7F50B2"/>
<stop offset="1" stop-color="#EEE0EF" stop-opacity="0"/>
</linearGradient>
<linearGradient id="paint7_linear" x1="126" y1="53.7363" x2="127.522" y2="47.796" gradientUnits="userSpaceOnUse">
<stop stop-color="#CF1E9E"/>
<stop offset="1" stop-color="#7F50B2"/>
</linearGradient>
<linearGradient id="paint8_linear" x1="126" y1="55.7363" x2="127.631" y2="49.8588" gradientUnits="userSpaceOnUse">
<stop stop-color="#CF1E9E"/>
<stop offset="1" stop-color="#7F50B2"/>
</linearGradient>
<linearGradient id="paint9_linear" x1="80.1176" y1="44.3113" x2="72.8611" y2="50.0196" gradientUnits="userSpaceOnUse">
<stop stop-color="#1C140D"/>
<stop offset="1" stop-color="#3F2C2C" stop-opacity="0"/>
</linearGradient>
<linearGradient id="paint10_linear" x1="117.366" y1="106.681" x2="50.4222" y2="50.0239" gradientUnits="userSpaceOnUse">
<stop stop-color="#A474A8"/>
<stop offset="1" stop-color="white" stop-opacity="0"/>
</linearGradient>
<linearGradient id="paint11_linear" x1="92.6667" y1="48.4863" x2="97.6281" y2="45.912" gradientUnits="userSpaceOnUse">
<stop stop-color="#322010"/>
<stop offset="1" stop-color="#3F2C2C" stop-opacity="0"/>
</linearGradient>
<linearGradient id="paint12_linear" x1="88" y1="80.7363" x2="90.0179" y2="78.0095" gradientUnits="userSpaceOnUse">
<stop stop-color="#CF1E9E"/>
<stop offset="1" stop-color="#7F50B2"/>
</linearGradient>
<linearGradient id="paint13_linear" x1="98" y1="70" x2="105.592" y2="54.8018" gradientUnits="userSpaceOnUse">
<stop stop-color="#CF1E9E"/>
<stop offset="1" stop-color="#7F50B2"/>
</linearGradient>
<linearGradient id="paint14_linear" x1="118.833" y1="72.2761" x2="105.44" y2="73.0896" gradientUnits="userSpaceOnUse">
<stop stop-color="#DB822F"/>
<stop offset="1" stop-color="#F6D3BA" stop-opacity="0"/>
</linearGradient>
<linearGradient id="paint15_linear" x1="119.361" y1="88.9084" x2="48.1088" y2="81.3024" gradientUnits="userSpaceOnUse">
<stop stop-color="#E1C5E3"/>
<stop offset="1" stop-color="white" stop-opacity="0"/>
</linearGradient>
<linearGradient id="paint16_linear" x1="27.2696" y1="77.5875" x2="81.0459" y2="73.0309" gradientUnits="userSpaceOnUse">
<stop stop-color="#F0AEC0"/>
<stop offset="1" stop-color="#F5C0C5" stop-opacity="0"/>
</linearGradient>
<linearGradient id="paint17_linear" x1="84.8669" y1="70.8323" x2="93.8431" y2="83.3398" gradientUnits="userSpaceOnUse">
<stop stop-color="#7F50B2"/>
<stop offset="1" stop-color="#EEE0EF" stop-opacity="0"/>
</linearGradient>
<linearGradient id="paint18_linear" x1="101" y1="70.7915" x2="104.592" y2="65.8215" gradientUnits="userSpaceOnUse">
<stop stop-color="#CF1E9E"/>
<stop offset="1" stop-color="#7F50B2"/>
</linearGradient>
<linearGradient id="paint19_linear" x1="99.0001" y1="72.7113" x2="102.826" y2="67.8734" gradientUnits="userSpaceOnUse">
<stop stop-color="#CF1E9E"/>
<stop offset="1" stop-color="#7F50B2"/>
</linearGradient>
<linearGradient id="paint20_linear" x1="140.018" y1="55.9016" x2="134.189" y2="42.3181" gradientUnits="userSpaceOnUse">
<stop stop-color="#DB822F"/>
<stop offset="1" stop-color="#F6D3BA" stop-opacity="0"/>
</linearGradient>
<linearGradient id="paint21_linear" x1="131.173" y1="5.88257" x2="135.614" y2="0.232206" gradientUnits="userSpaceOnUse">
<stop stop-color="#CF1E9E"/>
<stop offset="1" stop-color="#7F50B2"/>
</linearGradient>
<linearGradient id="paint22_linear" x1="127.784" y1="34.8609" x2="133.891" y2="27.0916" gradientUnits="userSpaceOnUse">
<stop stop-color="#CF1E9E"/>
<stop offset="1" stop-color="#7F50B2"/>
</linearGradient>
<linearGradient id="paint23_linear" x1="142.034" y1="20.9422" x2="126.838" y2="7.00173" gradientUnits="userSpaceOnUse">
<stop stop-color="#AB6FC8"/>
<stop offset="1" stop-color="#E80088" stop-opacity="0"/>
</linearGradient>
<linearGradient id="paint24_linear" x1="151.114" y1="2.442" x2="156.066" y2="12.5386" gradientUnits="userSpaceOnUse">
<stop stop-color="#CF1E9E"/>
<stop offset="1" stop-color="#7F50B2"/>
</linearGradient>
<linearGradient id="paint25_linear" x1="132.971" y1="61.8432" x2="104.335" y2="29.2931" gradientUnits="userSpaceOnUse">
<stop stop-color="#AB6FC8"/>
<stop offset="0.884034" stop-color="#E80088" stop-opacity="0"/>
</linearGradient>
<linearGradient id="paint26_linear" x1="122.35" y1="48.6281" x2="137.49" y2="40.1701" gradientUnits="userSpaceOnUse">
<stop offset="0.2694" stop-color="#7F50B2"/>
<stop offset="1" stop-color="#CF1E9E"/>
</linearGradient>
<linearGradient id="paint27_linear" x1="118.193" y1="57.8598" x2="127.866" y2="52.1947" gradientUnits="userSpaceOnUse">
<stop offset="0.2694" stop-color="#7F50B2"/>
<stop offset="1" stop-color="#CF1E9E"/>
</linearGradient>
<linearGradient id="paint28_linear" x1="151.269" y1="28.6992" x2="138.614" y2="14.2716" gradientUnits="userSpaceOnUse">
<stop stop-color="#AB6FC8"/>
<stop offset="1" stop-color="#E80088" stop-opacity="0"/>
</linearGradient>
<linearGradient id="paint29_linear" x1="142.169" y1="35.7268" x2="137.427" y2="33.1373" gradientUnits="userSpaceOnUse">
<stop stop-color="#CF1E9E"/>
<stop offset="1" stop-color="#7F50B2"/>
</linearGradient>
<linearGradient id="paint30_linear" x1="140.274" y1="38.1747" x2="138.466" y2="32.7467" gradientUnits="userSpaceOnUse">
<stop stop-color="#CF1E9E"/>
<stop offset="1" stop-color="#7F50B2"/>
</linearGradient>
<linearGradient id="paint31_linear" x1="159.314" y1="31.6832" x2="149.698" y2="25.6601" gradientUnits="userSpaceOnUse">
<stop stop-color="#CF1E9E"/>
<stop offset="1" stop-color="#7F50B2"/>
</linearGradient>
<linearGradient id="paint32_linear" x1="163.347" y1="20.6317" x2="161.675" y2="14.7894" gradientUnits="userSpaceOnUse">
<stop stop-color="#CF1E9E"/>
<stop offset="1" stop-color="#7F50B2"/>
</linearGradient>
<linearGradient id="paint33_linear" x1="157.828" y1="33.5407" x2="156.103" y2="24.1133" gradientUnits="userSpaceOnUse">
<stop stop-color="#CF1E9E"/>
<stop offset="1" stop-color="#7F50B2"/>
</linearGradient>
<linearGradient id="paint34_linear" x1="71.1589" y1="70.0112" x2="75.724" y2="39.1742" gradientUnits="userSpaceOnUse">
<stop stop-color="#DB822F"/>
<stop offset="1" stop-color="#F6D3BA" stop-opacity="0"/>
</linearGradient>
<clipPath id="clip0">
<rect width="188" height="120.146" fill="white"/>
</clipPath>
</defs>
<g clip-path="url(#clip0)">
<path d="M16.7011 71.2512C3.59279 32.8986 62.7341 2.58767 90.1564 8.30241C152.585 12.924 172.371 59.9911 159.904 91.4922C147.747 122.209 115.433 110.326 94.5993 102.081C73.766 93.8357 29.8094 109.604 16.7011 71.2512Z" fill="url(#paint0_linear)" fill-opacity="0.5"/>
<path d="M132.304 46.6553C130.267 48.7299 130 50.2442 130 53.791C133.159 59.466 137.814 51.1288 139.845 49.0008C141.875 46.8727 143.455 44.7364 139.845 44.7363C136.234 44.7362 135.236 46.2284 133.77 47.2946C135.655 44.7363 133.77 45.1628 132.304 46.6553Z" fill="#F7D3BA"/>
<path d="M132.304 46.6553C130.267 48.7299 130 50.2442 130 53.791C133.159 59.466 137.814 51.1288 139.845 49.0008C141.875 46.8727 143.455 44.7364 139.845 44.7363C136.234 44.7362 135.236 46.2284 133.77 47.2946C135.655 44.7363 133.77 45.1628 132.304 46.6553Z" fill="url(#paint1_linear)"/>
<path d="M57.4978 79.7363L56.7289 78.4213L55 78.2094L56.2511 77.1829L55.9557 75.7363L57.4978 76.4194L59.0443 75.7363L58.7489 77.1829L60 78.2094L58.2711 78.4213L57.4978 79.7363Z" fill="white"/>
<path d="M57.4978 79.7363L56.7289 78.4213L55 78.2094L56.2511 77.1829L55.9557 75.7363L57.4978 76.4194L59.0443 75.7363L58.7489 77.1829L60 78.2094L58.2711 78.4213L57.4978 79.7363Z" fill="url(#paint2_linear)"/>
<path d="M124 47.2363C124 46.4067 124.447 45.7363 125 45.7363C125.553 45.7363 126 46.4067 126 47.2363C126 48.066 125.553 48.7363 125 48.7363C124.447 48.7363 124 48.066 124 47.2363Z" fill="white"/>
<path d="M124 47.2363C124 46.4067 124.447 45.7363 125 45.7363C125.553 45.7363 126 46.4067 126 47.2363C126 48.066 125.553 48.7363 125 48.7363C124.447 48.7363 124 48.066 124 47.2363Z" fill="url(#paint3_linear)"/>
<path d="M127 78.7336C127.805 78.7805 128.437 78.2207 129.08 77.8214C129.795 77.3791 130.592 77.2225 131.334 76.8624C131.401 76.831 131.599 76.2478 131.591 76.2634C131.792 75.778 131.989 75.2926 132.187 74.8072C132.384 74.3218 132.578 73.8363 132.771 73.347C132.811 73.2452 132.925 72.7755 133 72.7363C132.258 73.0965 131.461 73.2531 130.746 73.6954C130.099 74.0947 129.471 74.6545 128.666 74.6075C128.532 74.5997 127.888 76.4748 127.813 76.6588C127.742 76.8389 127.111 78.7375 127 78.7336Z" fill="url(#paint4_linear)"/>
<path d="M127.27 50.844C122.357 62.3889 117.644 67.6639 117.644 67.6639C117.644 67.6639 107.229 63.8514 95.5243 63.8514C92.8602 71.7211 87.0532 89.4939 103.677 95.0916C121.586 101.122 140.368 85.8697 137.083 56.2227L138.408 53.0784L127.27 50.844Z" fill="#F7F7F7"/>
<path d="M127.27 50.844C122.357 62.3889 117.644 67.6639 117.644 67.6639C117.644 67.6639 107.229 63.8514 95.5243 63.8514C92.8602 71.7211 87.0532 89.4939 103.677 95.0916C121.586 101.122 140.368 85.8697 137.083 56.2227L138.408 53.0784L127.27 50.844Z" fill="url(#paint5_linear)"/>
<path d="M124.998 81.1814C124.761 74.9681 123.812 72.5783 117.88 67.7989C111.236 65.3136 101.192 64.055 97 63.7363L106.254 83.5711C112.581 84.8456 125.188 86.152 124.998 81.1814Z" fill="url(#paint6_linear)"/>
<path fill-rule="evenodd" clip-rule="evenodd" d="M126.007 50.9925C126.046 50.8187 126.231 50.707 126.419 50.7431L138.722 53.1001C138.911 53.1362 139.032 53.3064 138.993 53.4802C138.954 53.654 138.769 53.7656 138.581 53.7296L126.278 51.3725C126.089 51.3364 125.968 51.1663 126.007 50.9925Z" fill="url(#paint7_linear)"/>
<path fill-rule="evenodd" clip-rule="evenodd" d="M126.007 52.9925C126.043 52.8187 126.213 52.707 126.387 52.7431L137.744 55.1001C137.918 55.1362 138.029 55.3064 137.993 55.4802C137.957 55.654 137.787 55.7656 137.613 55.7296L126.256 53.3725C126.082 53.3364 125.971 53.1663 126.007 52.9925Z" fill="url(#paint8_linear)"/>
<path d="M76.4848 42.7363C76.6711 43.5613 77.6032 44.7613 79 46.1113C77.6032 48.8113 77.044 50.3863 75.6462 51.7363C74.4351 51.2113 71.7898 49.7563 72.0133 47.2363C72.2369 44.7163 75.0875 43.1863 76.4848 42.7363Z" fill="url(#paint9_linear)"/>
<path d="M94.5 62C94.6949 59.6282 87.5 64.5 81.5 62.8569L77.6312 62.8568C73.3273 63.9274 59.7606 67.4211 58.0066 71.3741C56.2525 75.327 53.3866 90.97 56.1476 102.911C56.1476 102.911 63 110 76.9787 113.825C84.3642 115.845 93 116.5 93 116.5C101.5 116.5 105.5 115 108 108C111 95 103.128 63.7764 94.5 62Z" fill="#F7F7F7"/>
<path d="M94.5 62C94.6949 59.6282 87.5 64.5 81.5 62.8569L77.6312 62.8568C73.3273 63.9274 59.7606 67.4211 58.0066 71.3741C56.2525 75.327 53.3866 90.97 56.1476 102.911C56.1476 102.911 63 110 76.9787 113.825C84.3642 115.845 93 116.5 93 116.5C101.5 116.5 105.5 115 108 108C111 95 103.128 63.7764 94.5 62Z" fill="url(#paint10_linear)"/>
<path d="M96.3333 44.7363C95 46.9863 94.6667 46.9863 94 47.7363C95 48.7363 95.3333 49.9863 95.3333 50.7363C96 49.9863 97 48.4363 97 47.2363C97 46.0363 96.5556 45.0697 96.3333 44.7363Z" fill="url(#paint11_linear)"/>
<path d="M91 79.7363C91 80.2886 90.3284 80.7363 89.5 80.7363C88.6716 80.7363 88 80.2886 88 79.7363C88 79.184 88.6716 78.7363 89.5 78.7363C90.3284 78.7363 91 79.184 91 79.7363Z" fill="url(#paint12_linear)"/>
<path d="M118 61C113.116 70.1947 106.605 72.4934 98 67.2065" stroke="url(#paint13_linear)" stroke-width="1.57048" stroke-linecap="round"/>
<path d="M106.249 66.58C105.391 67.167 105.677 70.1019 105.391 72.1561L108.531 75.6765C109.768 75.0893 112.586 73.3864 113.957 71.2731C115.671 68.6314 111.674 65.4047 111.389 64.5243C111.104 63.644 107.106 65.9929 106.249 66.58Z" fill="#FFEBDD"/>
<path d="M106.249 66.58C105.391 67.167 105.677 70.1019 105.391 72.1561L108.531 75.6765C109.768 75.0893 112.586 73.3864 113.957 71.2731C115.671 68.6314 111.674 65.4047 111.389 64.5243C111.104 63.644 107.106 65.9929 106.249 66.58Z" fill="url(#paint14_linear)"/>
<path d="M83.8524 77.3362C78.6445 73.5558 75.0938 71.6945 69.8861 69.3037C61.5003 65.454 51.5003 71.5 54.967 86.5616C64.5003 97 71.5003 99 82.0003 102.5C94.3082 103.563 109.401 89.3936 113.111 75.4738L102.007 68.3757C101.256 68.7293 101.076 70.0394 99.7156 70.714C95.5704 72.7694 88.3091 75.1996 83.8524 77.3362Z" fill="#F7F7F7"/>
<path d="M83.8524 77.3362C78.6445 73.5558 75.0938 71.6945 69.8861 69.3037C61.5003 65.454 51.5003 71.5 54.967 86.5616C64.5003 97 71.5003 99 82.0003 102.5C94.3082 103.563 109.401 89.3936 113.111 75.4738L102.007 68.3757C101.256 68.7293 101.076 70.0394 99.7156 70.714C95.5704 72.7694 88.3091 75.1996 83.8524 77.3362Z" fill="url(#paint15_linear)"/>
<path d="M83.8524 77.3362C78.6445 73.5558 75.0938 71.6945 69.8861 69.3037C61.5003 65.454 51.5003 71.5 54.967 86.5616C64.5003 97 71.5003 99 82.0003 102.5C94.3082 103.563 109.401 89.3936 113.111 75.4738L102.007 68.3757C101.256 68.7293 101.076 70.0394 99.7156 70.714C95.5704 72.7694 88.3091 75.1996 83.8524 77.3362Z" fill="url(#paint16_linear)"/>
<path d="M83.6506 92.2106C82.3178 87.661 81.4205 80.2593 83.5005 77.5C87.5005 75.5 96.2602 72.514 100 70.5C100.912 70.0091 101 69 102 68.5L107.642 72.3674C101.81 88.4866 84.9835 96.7603 83.6506 92.2106Z" fill="url(#paint17_linear)"/>
<path fill-rule="evenodd" clip-rule="evenodd" d="M102.012 68.241C102.112 68.0936 102.324 68.0573 102.486 68.1598L113.071 74.86C113.233 74.9626 113.283 75.1652 113.183 75.3126C113.083 75.46 112.871 75.4964 112.709 75.3938L102.124 68.6936C101.962 68.5911 101.912 68.3885 102.012 68.241Z" fill="url(#paint18_linear)"/>
<path fill-rule="evenodd" clip-rule="evenodd" d="M100.182 70.235C100.295 70.0965 100.528 70.0831 100.702 70.2052L112.034 78.1799C112.207 78.3019 112.256 78.5131 112.142 78.6517C112.028 78.7902 111.796 78.8035 111.622 78.6815L100.29 70.7068C100.117 70.5847 100.068 70.3735 100.182 70.235Z" fill="url(#paint19_linear)"/>
<path d="M141.99 45.9261C142.232 44.2229 137.876 43.7363 136.908 43.7363C135.456 44.9529 132.649 47.0453 133.036 49.5756C133.52 52.7386 134.73 51.7654 136.908 50.7922C139.086 49.8189 141.748 47.6292 141.99 45.9261Z" fill="#FFEBDD"/>
<path d="M141.99 45.9261C142.232 44.2229 137.876 43.7363 136.908 43.7363C135.456 44.9529 132.649 47.0453 133.036 49.5756C133.52 52.7386 134.73 51.7654 136.908 50.7922C139.086 49.8189 141.748 47.6292 141.99 45.9261Z" fill="url(#paint20_linear)"/>
<path d="M130.739 3.37563C130.5 1.9913 131.429 0.675053 132.815 0.436281C134.2 0.197509 135.518 1.12649 135.757 2.51082C135.997 3.89515 135.068 5.2114 133.682 5.45017C132.297 5.68894 130.979 4.75996 130.739 3.37563Z" fill="url(#paint21_linear)"/>
<path d="M127.188 31.4139C126.859 29.5093 128.136 27.7008 130.042 27.3723C131.948 27.0438 133.758 28.3202 134.088 30.2248C134.417 32.1293 133.14 33.9379 131.234 34.2664C129.328 34.5949 127.518 33.3184 127.188 31.4139Z" fill="url(#paint22_linear)"/>
<path d="M130.392 21.1723C129.362 19.8756 128.429 18.4687 127.264 17.2682C125.967 15.9333 124.329 14.9543 122.703 14.078C123.027 14.2523 124.984 13.3943 125.38 13.2776C125.845 13.1446 127.629 12.2954 128.073 12.5308C129.699 13.4119 131.327 14.3912 132.633 15.721C133.803 16.9165 134.736 18.3282 135.761 19.625C135.68 19.5238 133.324 20.3563 133.084 20.4255C132.82 20.5049 130.539 21.3603 130.392 21.1723Z" fill="white"/>
<path d="M130.392 21.1723C129.362 19.8756 128.429 18.4687 127.264 17.2682C125.967 15.9333 124.329 14.9543 122.703 14.078C123.027 14.2523 124.984 13.3943 125.38 13.2776C125.845 13.1446 127.629 12.2954 128.073 12.5308C129.699 13.4119 131.327 14.3912 132.633 15.721C133.803 16.9165 134.736 18.3282 135.761 19.625C135.68 19.5238 133.324 20.3563 133.084 20.4255C132.82 20.5049 130.539 21.3603 130.392 21.1723Z" fill="url(#paint23_linear)"/>
<path d="M154.665 9.74851C153.36 9.85622 152.024 9.85249 150.722 10.0917C149.274 10.3581 147.911 11.0053 146.621 11.6896C146.878 11.5529 147.17 9.8906 147.267 9.57878C147.383 9.21474 147.606 7.66945 147.956 7.48101C149.25 6.7988 150.609 6.15816 152.057 5.88312C153.358 5.63858 154.697 5.64438 156.001 5.53996C155.898 5.54887 155.414 7.46275 155.354 7.65074C155.291 7.85931 154.854 9.73431 154.665 9.74851Z" fill="url(#paint24_linear)"/>
<path d="M121.246 25.6574L116.079 63.8911L143.295 36.7969L121.246 25.6574Z" fill="white"/>
<path d="M121.246 25.6574L116.079 63.8911L143.295 36.7969L121.246 25.6574Z" fill="url(#paint25_linear)"/>
<path d="M134.175 45.5498L121.249 25.6597L119.906 34.5079L129.779 50.0411L134.175 45.5498Z" fill="url(#paint26_linear)"/>
<path d="M125.656 54.4857L118.605 43.6365L117.359 53.0426L121.26 58.977L125.656 54.4857Z" fill="url(#paint27_linear)"/>
<path d="M145.1 24.777L142.878 21.7619L139.106 21.868L141.333 18.836L140.076 15.3161L143.661 16.4636L146.666 14.1803L146.664 17.9171L149.769 20.0302L146.179 21.193L145.1 24.777Z" fill="white"/>
<path d="M145.1 24.777L142.878 21.7619L139.106 21.868L141.333 18.836L140.076 15.3161L143.661 16.4636L146.666 14.1803L146.664 17.9171L149.769 20.0302L146.179 21.193L145.1 24.777Z" fill="url(#paint28_linear)"/>
<path d="M140.072 29.9527C140.219 29.5934 140.483 29.3023 140.81 29.0855C141.103 28.8872 141.443 28.7566 141.794 28.7011C141.934 28.6757 142.078 28.6667 142.222 28.6629C141.938 29.632 142.481 30.6973 142.494 31.734C142.506 33.0309 141.658 34.1967 140.561 34.9168C140.392 35.03 140.213 35.1265 140.03 35.2173C139.82 35.3216 139.599 35.4146 139.38 35.4917C139.934 34.848 140.293 34.0552 140.285 33.2101C140.262 32.1035 139.656 30.9691 140.072 29.9527Z" fill="url(#paint29_linear)"/>
<path d="M137.811 36.687C138.005 36.5918 138.201 36.4808 138.381 36.358L140.55 34.9103C140.381 35.0235 140.203 35.12 140.02 35.2108C139.809 35.3152 139.588 35.4081 139.369 35.4853C138.19 35.9117 136.9 36.0206 135.642 36.1217L133.428 37.5975C134.926 37.4795 136.464 37.3436 137.811 36.687Z" fill="url(#paint30_linear)"/>
<path d="M154.401 22.9155C153.934 21.5857 154.022 19.9097 155.099 18.9915C155.174 18.9287 155.254 18.8664 155.338 18.8151L155.36 18.801C155.748 18.547 156.201 18.4099 156.673 18.3647C156.234 19.2783 156.273 20.4552 156.619 21.4456C157.086 22.7807 157.995 23.9036 158.694 25.1308C159.393 26.358 159.885 27.8333 159.431 29.1705C159.185 29.8879 158.689 30.4675 158.058 30.887C157.675 31.1415 157.244 31.3388 156.786 31.4702C156.967 31.2199 157.112 30.9453 157.218 30.6462C157.671 29.3089 157.179 27.8336 156.481 26.6011C155.777 25.3735 154.867 24.2506 154.401 22.9155Z" fill="url(#paint31_linear)"/>
<path d="M156.665 18.3636C157.238 18.3057 157.837 18.3934 158.379 18.5825C159.468 18.9717 160.383 19.718 161.272 20.4569L163.486 18.981C162.597 18.2474 161.682 17.4958 160.593 17.1066C159.597 16.7518 158.411 16.7581 157.544 17.3382L155.357 18.7952C155.74 18.546 156.193 18.4089 156.665 18.3636Z" fill="url(#paint32_linear)"/>
<path d="M140.805 29.0859C141.098 28.8875 141.444 28.7573 141.789 28.7014C141.929 28.676 142.073 28.6669 142.217 28.6631C142.809 28.6492 143.408 28.79 143.97 28.9915C145.57 29.5619 146.963 30.5663 148.414 31.4482C149.866 32.3248 151.453 33.1066 153.152 33.1329C154.087 33.1479 155.061 32.8795 155.839 32.3607L158.052 30.8901C157.669 31.1446 157.238 31.342 156.78 31.4734C156.317 31.6043 155.839 31.6702 155.366 31.6623C153.667 31.6359 152.08 30.8541 150.628 29.9775C149.177 29.1009 147.784 28.0912 146.184 27.5208C145.488 27.2709 144.736 27.1066 144.002 27.2307C143.652 27.2862 143.312 27.4168 143.018 27.6152L142.973 27.6433C142.9 27.6955 142.826 27.753 142.757 27.8162C142.826 27.753 142.895 27.6951 142.973 27.6433L140.805 29.0859Z" fill="url(#paint33_linear)"/>
<path d="M99.3835 47.2499C100.974 58.4309 95.8058 62.4241 84.2777 63.6221C75.935 63.6221 67.5811 58.4309 69.1719 47.2499C69.1719 38.2078 75.935 30.8777 84.2777 30.8777C92.6204 30.8777 99.3835 38.2078 99.3835 47.2499Z" fill="#F7D3BA"/>
<path d="M99.3835 47.2499C100.974 58.4309 95.8058 62.4241 84.2777 63.6221C75.935 63.6221 67.5811 58.4309 69.1719 47.2499C69.1719 38.2078 75.935 30.8777 84.2777 30.8777C92.6204 30.8777 99.3835 38.2078 99.3835 47.2499Z" fill="url(#paint34_linear)"/>
<path d="M97.3907 42.5377C91.0767 46.2184 76.473 44.5825 72.1322 39.2659C69.6067 45.4823 70.5553 44.1736 68.9768 47.0363C68.9768 49.3259 69.5029 51.671 69.766 53.1709C64.6359 50.7171 60.2962 46.6265 62.6639 39.2659C64.5581 33.3774 69.5014 31.633 72.1322 32.3143C73.7107 26.9977 83.9709 22.499 95.0204 29.8605C103.86 35.7496 100.942 45.4005 98.9692 47.4453C98.5746 44.1736 97.7853 43.3556 97.3907 42.5377Z" fill="#4B3B1C"/>
<path d="M86.5702 59.293C91.314 58.5525 91.9842 54.7669 91.7263 52.9667L80.2849 55.0304C80.4034 56.7598 81.8264 60.0335 86.5702 59.293Z" fill="#EB6666"/>
</g>
</svg>
