<svg width="125" height="40" viewBox="0 0 125 40" fill="none" xmlns="http://www.w3.org/2000/svg">
<path d="M53.936 25.16C52.208 25.16 50.8853 24.696 49.968 23.768C49.0507 22.8293 48.592 21.5547 48.592 19.944C48.592 18.2373 49.0347 16.9093 49.92 15.96C50.816 15.0107 52.1493 14.536 53.92 14.536C54.5387 14.536 55.0933 14.584 55.584 14.68C56.0853 14.7653 56.5547 14.888 56.992 15.048V16.936C56.0853 16.5627 55.1147 16.376 54.08 16.376C52.9067 16.376 52.064 16.6693 51.552 17.256C51.04 17.8427 50.784 18.7387 50.784 19.944C50.784 22.2053 51.8933 23.336 54.112 23.336C54.6133 23.336 55.1093 23.2933 55.6 23.208C56.0907 23.112 56.56 22.9733 57.008 22.792V24.696C56.5707 24.8347 56.1013 24.9467 55.6 25.032C55.1093 25.1173 54.5547 25.16 53.936 25.16ZM62.3478 25.16C60.9291 25.16 59.8891 24.8187 59.2278 24.136C58.5664 23.4427 58.2358 22.4667 58.2358 21.208C58.2358 19.9493 58.5664 18.9787 59.2278 18.296C59.8998 17.6027 60.9398 17.256 62.3478 17.256C63.7664 17.256 64.8064 17.6027 65.4678 18.296C66.1398 18.9787 66.4758 19.9493 66.4758 21.208C66.4758 22.4667 66.1451 23.4427 65.4838 24.136C64.8224 24.8187 63.7771 25.16 62.3478 25.16ZM62.3478 23.32C63.0411 23.32 63.5371 23.1653 63.8358 22.856C64.1344 22.536 64.2838 21.9867 64.2838 21.208C64.2838 20.4293 64.1344 19.8853 63.8358 19.576C63.5371 19.256 63.0411 19.096 62.3478 19.096C61.6651 19.096 61.1744 19.256 60.8758 19.576C60.5771 19.8853 60.4278 20.4293 60.4278 21.208C60.4278 21.9867 60.5771 22.536 60.8758 22.856C61.1744 23.1653 61.6651 23.32 62.3478 23.32ZM68.0276 25V17.416H70.0276L70.1076 18.136C70.417 17.9013 70.8063 17.6987 71.2756 17.528C71.7556 17.3467 72.257 17.256 72.7796 17.256C73.7823 17.256 74.513 17.4907 74.9716 17.96C75.4303 18.4293 75.6596 19.1547 75.6596 20.136V25H73.4996V20.248C73.4996 19.736 73.393 19.3733 73.1796 19.16C72.977 18.9467 72.593 18.84 72.0276 18.84C71.697 18.84 71.361 18.9147 71.0196 19.064C70.689 19.2133 70.4116 19.4 70.1876 19.624V25H68.0276ZM84.8822 28.872C84.1462 28.872 83.5916 28.6907 83.2182 28.328C82.8556 27.9653 82.6743 27.4 82.6743 26.632V24.584C82.0876 24.968 81.3623 25.16 80.4983 25.16C79.3996 25.16 78.5249 24.856 77.8742 24.248C77.2236 23.6293 76.8982 22.6373 76.8982 21.272C76.8982 20.3547 77.0476 19.6027 77.3462 19.016C77.6449 18.4187 78.0556 17.976 78.5782 17.688C79.1116 17.4 79.7196 17.256 80.4022 17.256C80.9356 17.256 81.3942 17.3307 81.7782 17.48C82.1622 17.6293 82.5196 17.8427 82.8502 18.12L82.9783 17.416H84.8343V26.424C84.8343 26.7333 84.8929 26.9467 85.0103 27.064C85.1276 27.192 85.3356 27.256 85.6342 27.256C85.7516 27.256 85.8636 27.2453 85.9703 27.224C86.0769 27.2027 86.1836 27.176 86.2902 27.144V28.632C86.0769 28.7067 85.8636 28.7653 85.6503 28.808C85.4476 28.8507 85.1916 28.872 84.8822 28.872ZM81.0422 23.576C81.4156 23.576 81.7249 23.5227 81.9702 23.416C82.2262 23.3093 82.4609 23.1707 82.6743 23V19.528C82.4396 19.2933 82.1889 19.1227 81.9222 19.016C81.6556 18.8987 81.3516 18.84 81.0102 18.84C80.3489 18.84 79.8636 19.0373 79.5542 19.432C79.2449 19.8267 79.0902 20.4293 79.0902 21.24C79.0902 22.0827 79.2556 22.6853 79.5862 23.048C79.9169 23.4 80.4022 23.576 81.0422 23.576ZM89.3339 25.16C88.4272 25.16 87.7179 24.9093 87.2059 24.408C86.7045 23.896 86.4539 23.1493 86.4539 22.168V17.416H88.6139V22.12C88.6139 22.632 88.7365 23.0053 88.9819 23.24C89.2272 23.464 89.5952 23.576 90.0859 23.576C90.4592 23.576 90.8005 23.5013 91.1099 23.352C91.4299 23.2027 91.7019 23.016 91.9259 22.792V17.416H94.0859V25H92.0859L92.0059 24.28C91.6859 24.536 91.3072 24.7493 90.8699 24.92C90.4432 25.08 89.9312 25.16 89.3339 25.16ZM99.7665 25.16C98.3478 25.16 97.3078 24.8187 96.6465 24.136C95.9852 23.4427 95.6545 22.4667 95.6545 21.208C95.6545 19.9493 95.9852 18.9787 96.6465 18.296C97.3185 17.6027 98.3585 17.256 99.7665 17.256C101.185 17.256 102.225 17.6027 102.887 18.296C103.559 18.9787 103.895 19.9493 103.895 21.208C103.895 22.4667 103.564 23.4427 102.903 24.136C102.241 24.8187 101.196 25.16 99.7665 25.16ZM99.7665 23.32C100.46 23.32 100.956 23.1653 101.255 22.856C101.553 22.536 101.703 21.9867 101.703 21.208C101.703 20.4293 101.553 19.8853 101.255 19.576C100.956 19.256 100.46 19.096 99.7665 19.096C99.0838 19.096 98.5932 19.256 98.2945 19.576C97.9958 19.8853 97.8465 20.4293 97.8465 21.208C97.8465 21.9867 97.9958 22.536 98.2945 22.856C98.5932 23.1653 99.0838 23.32 99.7665 23.32ZM105.446 25V17.416H107.446L107.542 18.2C107.884 17.9867 108.305 17.7947 108.806 17.624C109.318 17.4427 109.82 17.32 110.31 17.256V18.888C110.022 18.9307 109.708 18.9947 109.366 19.08C109.025 19.1653 108.7 19.2613 108.39 19.368C108.081 19.4747 107.82 19.5867 107.606 19.704V25H105.446ZM115.105 25.16C113.793 25.16 112.753 24.8347 111.985 24.184C111.217 23.5227 110.833 22.5253 110.833 21.192C110.833 19.9867 111.153 19.032 111.793 18.328C112.443 17.6133 113.409 17.256 114.689 17.256C115.862 17.256 116.758 17.5653 117.377 18.184C118.006 18.792 118.321 19.592 118.321 20.584V21.96H112.833C112.95 22.568 113.227 22.984 113.665 23.208C114.113 23.432 114.742 23.544 115.553 23.544C115.958 23.544 116.369 23.5067 116.785 23.432C117.211 23.3573 117.574 23.2613 117.873 23.144V24.68C117.521 24.84 117.11 24.9573 116.641 25.032C116.171 25.1173 115.659 25.16 115.105 25.16ZM112.833 20.632H116.433V20.216C116.433 19.7787 116.305 19.4373 116.049 19.192C115.793 18.936 115.361 18.808 114.753 18.808C114.038 18.808 113.537 18.952 113.249 19.24C112.971 19.528 112.833 19.992 112.833 20.632ZM119.875 25V17.416H121.875L121.971 18.2C122.312 17.9867 122.733 17.7947 123.235 17.624C123.747 17.4427 124.248 17.32 124.739 17.256V18.888C124.451 18.9307 124.136 18.9947 123.795 19.08C123.453 19.1653 123.128 19.2613 122.819 19.368C122.509 19.4747 122.248 19.5867 122.035 19.704V25H119.875Z" fill="url(#paint0_linear)"/>
<rect x="0.5" y="0.5" width="39" height="39" rx="19.5" fill="white" stroke="#EEEDEF"/>
<path d="M12.0965 28H27.9035C28.5091 28 29 28.4477 29 29C29 29.5523 28.5091 30 27.9035 30H12.0965C11.4909 30 11 29.5523 11 29C11 28.4477 11.4909 28 12.0965 28Z" fill="url(#paint1_linear)"/>
<path d="M11.498 15.5388L17.0834 19.2023L19.9999 12.3076L22.9164 19.2023L28.5018 15.5388L27.5018 26.6928H26.0889H13.911H12.498L11.498 15.5388Z" fill="url(#paint2_linear)"/>
<path d="M10.9694 15.6482C11.5047 15.6482 11.9387 15.2142 11.9387 14.6788C11.9387 14.1435 11.5047 13.7095 10.9694 13.7095C10.434 13.7095 10 14.1435 10 14.6788C10 15.2142 10.434 15.6482 10.9694 15.6482Z" fill="url(#paint3_linear)"/>
<path d="M29.0309 15.7532C29.5663 15.7532 30.0002 15.3192 30.0002 14.7838C30.0002 14.2485 29.5663 13.8145 29.0309 13.8145C28.4955 13.8145 28.0615 14.2485 28.0615 14.7838C28.0615 15.3192 28.4955 15.7532 29.0309 15.7532Z" fill="url(#paint4_linear)"/>
<path d="M20.154 12.308C20.7913 12.308 21.308 11.7913 21.308 11.154C21.308 10.5167 20.7913 10 20.154 10C19.5167 10 19 10.5167 19 11.154C19 11.7913 19.5167 12.308 20.154 12.308Z" fill="url(#paint5_linear)"/>
<path d="M19.9999 19.916L20.8308 21.0239L21.6659 22.1317L20.8308 23.2395L19.9999 24.3474L19.1691 23.2395L18.334 22.1317L19.1691 21.0239L19.9999 19.916Z" fill="url(#paint6_linear)"/>
<defs>
<linearGradient id="paint0_linear" x1="48" y1="26.9167" x2="60.8856" y2="-9.58436" gradientUnits="userSpaceOnUse">
<stop offset="0.2694" stop-color="#7F50B2"/>
<stop offset="1" stop-color="#CF1E9E"/>
</linearGradient>
<linearGradient id="paint1_linear" x1="28.8002" y1="29.2543" x2="13.1199" y2="23.7885" gradientUnits="userSpaceOnUse">
<stop stop-color="#C83192"/>
<stop offset="1" stop-color="#562F88"/>
</linearGradient>
<linearGradient id="paint2_linear" x1="17.7158" y1="35.434" x2="32.9162" y2="25.0386" gradientUnits="userSpaceOnUse">
<stop stop-color="#FFD95F"/>
<stop offset="0.1554" stop-color="#FDD056"/>
<stop offset="0.4209" stop-color="#F6BB3F"/>
<stop offset="0.7581" stop-color="#ED9A22"/>
<stop offset="0.8021" stop-color="#EA9523"/>
<stop offset="0.86" stop-color="#E48926"/>
<stop offset="0.9257" stop-color="#D97629"/>
<stop offset="0.9967" stop-color="#CC592C"/>
<stop offset="1" stop-color="#CB582C"/>
</linearGradient>
<linearGradient id="paint3_linear" x1="11.9172" y1="14.9253" x2="10.026" y2="14.8521" gradientUnits="userSpaceOnUse">
<stop stop-color="#C83192"/>
<stop offset="1" stop-color="#562F88"/>
</linearGradient>
<linearGradient id="paint4_linear" x1="29.9787" y1="15.0303" x2="28.0875" y2="14.9571" gradientUnits="userSpaceOnUse">
<stop stop-color="#C83192"/>
<stop offset="1" stop-color="#562F88"/>
</linearGradient>
<linearGradient id="paint5_linear" x1="21.2824" y1="11.4475" x2="19.0309" y2="11.3603" gradientUnits="userSpaceOnUse">
<stop stop-color="#C83192"/>
<stop offset="1" stop-color="#562F88"/>
</linearGradient>
<linearGradient id="paint6_linear" x1="21.6289" y1="22.6951" x2="18.3765" y2="22.6004" gradientUnits="userSpaceOnUse">
<stop stop-color="#C83192"/>
<stop offset="1" stop-color="#562F88"/>
</linearGradient>
</defs>
</svg>
