<svg width="18" height="18" viewBox="0 0 18 18" fill="none" xmlns="http://www.w3.org/2000/svg">
<path d="M9.00703 0.0977708C8.45549 0.0977711 8.01001 0.543248 8.01001 1.09479L8.00294 8.00322L1.08744 8.00322C0.535893 8.00322 0.0904153 8.4487 0.0904153 9.00024C0.0904153 9.55179 0.535893 9.99726 1.08744 9.99726L8.00294 9.99726L8.00294 16.9128C8.00294 17.4643 8.44842 17.9098 8.99996 17.9098C9.5515 17.9098 9.99698 17.4643 9.99698 16.9128L9.99698 9.99726L16.9125 9.99726C17.464 9.99726 17.9095 9.55179 17.9095 9.00024C17.9095 8.4487 17.464 8.00322 16.9125 8.00322L9.99698 8.00322L9.99698 1.08772C9.99698 0.550319 9.54443 0.0977707 9.00703 0.0977708Z" fill="#1D0F33"/>
</svg>
