<svg width="24" height="24" viewBox="0 0 24 24" fill="none" xmlns="http://www.w3.org/2000/svg">
<path d="M5 9V14C5 16.7614 7.23858 19 10 19H14C16.7614 19 19 16.7614 19 14V9H5Z" fill="#E7DDEF"/>
<path fill-rule="evenodd" clip-rule="evenodd" d="M10 11C10 12.1077 10.8923 13 12 13C13.1077 13 14 12.1077 14 11H16C16 13.2123 14.2123 15 12 15C9.78771 15 8 13.2123 8 11H10ZM5 9V14C5 16.7614 7.23858 19 10 19H14C16.7614 19 19 16.7614 19 14V9H5ZM7 7H5C3.9 7 3 7.9 3 9V14C3 17.866 6.13401 21 10 21H14C17.866 21 21 17.866 21 14V9C21 7.9 20.1 7 19 7H17C17 4.24 14.76 2 12 2C9.24 2 7 4.24 7 7ZM12 4C12.8908 4 13.6894 4.38587 14.2383 5C14.7123 5.5303 15 6.2308 15 7H9C9 6.2308 9.28772 5.5303 9.76168 5C10.3106 4.38587 11.1092 4 12 4Z" fill="#8A48B8"/>
</svg>