<svg width="11" height="17" viewBox="0 0 11 17" fill="none" xmlns="http://www.w3.org/2000/svg">
<path d="M4.28 16.72V15H0.26V2.12H4.28V0.4H5.9V2.12H6.5C7.78 2.12 8.72667 2.42 9.34 3.02C9.95333 3.62 10.26 4.46667 10.26 5.56C10.26 6.25333 10.12 6.84 9.84 7.32C9.56 7.78667 9.18667 8.14 8.72 8.38C9.34667 8.55333 9.84 8.86667 10.2 9.32C10.5733 9.76 10.76 10.4133 10.76 11.28C10.76 12.5333 10.42 13.4667 9.74 14.08C9.07333 14.6933 8.08667 15 6.78 15H5.9V16.72H4.28ZM2.44 7.62H4.28V3.76H2.44V7.62ZM5.9 7.62H6.2C6.93333 7.62 7.45333 7.45333 7.76 7.12C8.08 6.77333 8.24 6.31333 8.24 5.74C8.24 5.07333 8.08 4.58 7.76 4.26C7.44 3.92667 6.84 3.76 5.96 3.76H5.9V7.62ZM2.44 13.4H4.28V9.22H2.44V13.4ZM5.9 13.4H6.32C7.09333 13.4 7.66 13.24 8.02 12.92C8.38 12.5867 8.56 12.0133 8.56 11.2C8.56 10.5333 8.38 10.04 8.02 9.72C7.67333 9.38667 7.03333 9.22 6.1 9.22H5.9V13.4Z" fill="#837B8F"/>
</svg>
