<svg width="132" height="115" viewBox="0 0 132 115" fill="none" xmlns="http://www.w3.org/2000/svg">
    <defs>
        <linearGradient id="paint0_linear" x1="66.4334" y1="105.356" x2="60.9233" y2="-44.2068" gradientUnits="userSpaceOnUse">
            <stop offset="0.0156053" stop-color="#ED9A22"/>
            <stop offset="1" stop-color="#FFDF36" stop-opacity="0"/>
        </linearGradient>
        <linearGradient id="paint1_linear" x1="38.3466" y1="81.4165" x2="34.5311" y2="-26.4192" gradientUnits="userSpaceOnUse">
            <stop offset="0.0156053" stop-color="#ED9A22"/>
            <stop offset="1" stop-color="#FFDF36" stop-opacity="0"/>
        </linearGradient>
    </defs>
<path d="M124.64 89.7298C139.285 69.219 132.352 18.2817 101.345 18.2817C93.6836 3.20919 62.5145 -8.60557 38.4378 8.25696C5.39704 31.3975 8.31248 94.6515 42.4996 109C58.9996 117.5 103.949 118.711 124.64 89.7298Z" fill="#FFFBD5"/>
<path d="M124.641 89.7298C139.285 69.219 132.353 18.2817 101.345 18.2817C93.6839 3.20919 62.5148 -8.60557 38.438 8.25696C5.39732 31.3975 8.81276 95.6515 42.9998 110C56.9998 118 103.949 118.711 124.641 89.7298Z" fill="url(#paint0_linear)" fill-opacity="0.5"/>
<path d="M23.7863 14.9795C43.9751 -2.3854 69.8732 4.80524 83.1356 30.0948C96.3988 55.3844 77.7701 91.2767 55.1 90.0991C32.4291 88.9215 0.601211 82.4683 0.00778487 49.9681C-0.394078 27.9621 14.8572 15.8672 23.7863 14.9795Z" fill="white"/>
<path d="M23.7863 14.9795C43.9751 -2.3854 69.8732 4.80524 83.1356 30.0948C96.3988 55.3844 77.7701 91.2767 55.1 90.0991C32.4291 88.9215 0.601211 82.4683 0.00778487 49.9681C-0.394078 27.9621 14.8572 15.8672 23.7863 14.9795Z" fill="url(#paint1_linear)" fill-opacity="0.5"/>
</svg>
