<svg width="24" height="24" viewBox="0 0 24 24" fill="none" xmlns="http://www.w3.org/2000/svg">
<path fill-rule="evenodd" clip-rule="evenodd" d="M5 6.33639L5 12.3175C5 14.0025 5.84868 15.5742 7.25759 16.4983L12 19.6091L16.7424 16.4983C18.1513 15.5742 19 14.0025 19 12.3175L19 6.3364L12 4.10055L5 6.33639ZM3.69574 4.65344L11.6957 2.09819C11.8936 2.03498 12.1063 2.03498 12.3042 2.09819L20.3043 4.65344C20.7187 4.78582 21 5.17096 21 5.60603L21 12.3175C21 14.6765 19.8119 16.8768 17.8394 18.1707L12.5485 21.6412C12.2155 21.8597 11.7845 21.8597 11.4515 21.6412L6.16063 18.1707C4.18815 16.8768 3 14.6765 3 12.3175L3 5.60603C3 5.17096 3.2813 4.78582 3.69574 4.65344Z" fill="#8A48B8"/>
<path d="M16.0478 8.30737L10.7408 13.6157L8.77771 11.6527C8.37048 11.2454 7.71265 11.2454 7.30542 11.6527C6.89819 12.0599 6.89819 12.7177 7.30542 13.1249L10.0098 15.8294C10.4171 16.2366 11.0749 16.2366 11.4821 15.8294L17.5305 9.77966C17.9377 9.37243 17.9377 8.7146 17.5305 8.30737C17.1233 7.90015 16.455 7.90015 16.0478 8.30737Z" fill="#8A48B8"/>
</svg>
