<svg width="12" height="17" viewBox="0 0 12 17" fill="none" xmlns="http://www.w3.org/2000/svg">
<path d="M0.999837 14.725C0.999837 15.6875 1.74984 16.475 2.6665 16.475H9.33317C10.2498 16.475 10.9998 15.6875 10.9998 14.725V5.97498C10.9998 5.01248 10.2498 4.22498 9.33317 4.22498H2.6665C1.74984 4.22498 0.999837 5.01248 0.999837 5.97498V14.725ZM3.49984 5.97498H8.49984C8.95817 5.97498 9.33317 6.36873 9.33317 6.84998V13.85C9.33317 14.3312 8.95817 14.725 8.49984 14.725H3.49984C3.0415 14.725 2.6665 14.3312 2.6665 13.85V6.84998C2.6665 6.36873 3.0415 5.97498 3.49984 5.97498ZM8.9165 1.59998L8.32484 0.978726C8.17484 0.821226 7.95817 0.724976 7.7415 0.724976H4.25817C4.0415 0.724976 3.82484 0.821226 3.67484 0.978726L3.08317 1.59998H0.999837C0.541504 1.59998 0.166504 1.99373 0.166504 2.47498C0.166504 2.95623 0.541504 3.34998 0.999837 3.34998H10.9998C11.4582 3.34998 11.8332 2.95623 11.8332 2.47498C11.8332 1.99373 11.4582 1.59998 10.9998 1.59998H8.9165Z" fill="#8647B3"/>
</svg>
