<svg width="68" height="68" viewBox="0 0 68 68" fill="none" xmlns="http://www.w3.org/2000/svg">
<circle cx="34" cy="34" r="32" stroke="#E7DDEF" stroke-width="3"/>
<path d="M34 2C51.6731 2 66 16.3269 66 34C66 51.6731 51.6731 66 34 66C25.4783 66 17.7347 62.669 12 57.238" stroke="#8A48B8" stroke-width="3" stroke-linecap="round"/>
<path d="M40.1203 30H38.0003V23.3333C38.0003 22.6 37.4003 22 36.667 22H31.3337C30.6003 22 30.0003 22.6 30.0003 23.3333V30H27.8803C26.6937 30 26.0937 31.44 26.9337 32.28L33.0537 38.4C33.5737 38.92 34.4137 38.92 34.9337 38.4L41.0537 32.28C41.8937 31.44 41.307 30 40.1203 30ZM24.667 43.3333C24.667 44.0667 25.267 44.6667 26.0003 44.6667H42.0003C42.7337 44.6667 43.3337 44.0667 43.3337 43.3333C43.3337 42.6 42.7337 42 42.0003 42H26.0003C25.267 42 24.667 42.6 24.667 43.3333Z" fill="#8A48B8"/>
</svg>
