<svg width="48" height="48" viewBox="0 0 48 48" fill="none" xmlns="http://www.w3.org/2000/svg">
<circle cx="24" cy="24" r="24" fill="#EEEDEF"/>
<path d="M21.4031 22.2883L23.9992 24.8814L26.5953 22.2883H25.1494V17H22.8562V22.2883H21.4031Z" fill="#E7DDEF"/>
<path fill-rule="evenodd" clip-rule="evenodd" d="M20.8561 16.7147C20.8561 15.7683 21.6269 15 22.5717 15H25.4338C26.3785 15 27.1493 15.7683 27.1493 16.7147V20.2883H27.287C28.8293 20.2883 29.5658 22.148 28.4946 23.2179L25.2103 26.4985C24.5408 27.1672 23.4575 27.1672 22.788 26.4985L19.5037 23.2179C18.4174 22.1329 19.1975 20.2883 20.7184 20.2883H20.8561V16.7147ZM22.8561 17V22.2883H21.403L23.9992 24.8814L26.5953 22.2883H25.1493V17H22.8561Z" fill="#8A48B8"/>
<path d="M18 29C17.45 29 17 28.55 17 28C17 27.45 17.45 27 18 27H30C30.55 27 31 27.45 31 28C31 28.55 30.55 29 30 29H18Z" fill="#8A48B8"/>
</svg>
