<svg width="338" height="221" viewBox="0 0 338 221" fill="none" xmlns="http://www.w3.org/2000/svg">
<defs>
<linearGradient id="paint0_linear" x1="127.873" y1="170.452" x2="122.107" y2="-71.7116" gradientUnits="userSpaceOnUse">
<stop offset="0.0156053" stop-color="#FFBB0C"/>
<stop offset="1" stop-color="#FFDF36" stop-opacity="0"/>
</linearGradient>
<linearGradient id="paint1_linear" x1="127.873" y1="170.452" x2="122.107" y2="-71.7116" gradientUnits="userSpaceOnUse">
<stop offset="0.0156053" stop-color="#FFBB0C"/>
<stop offset="1" stop-color="#FFDF36" stop-opacity="0"/>
</linearGradient>
<linearGradient id="paint2_linear" x1="69.2307" y1="74.9927" x2="125.905" y2="132.737" gradientUnits="userSpaceOnUse">
<stop stop-color="#D7165E" stop-opacity="0.21"/>
<stop offset="1" stop-color="white" stop-opacity="0"/>
</linearGradient>
<linearGradient id="paint3_linear" x1="364.685" y1="23.9129" x2="223.636" y2="90.561" gradientUnits="userSpaceOnUse">
<stop stop-color="#E769C4"/>
<stop offset="1" stop-color="white" stop-opacity="0"/>
</linearGradient>
<linearGradient id="paint4_linear" x1="124.047" y1="103.483" x2="61.227" y2="207.145" gradientUnits="userSpaceOnUse">
<stop offset="0.166467" stop-color="#9485AA"/>
<stop offset="1"/>
</linearGradient>
<linearGradient id="paint5_linear" x1="82.7818" y1="120.929" x2="137.475" y2="117.043" gradientUnits="userSpaceOnUse">
<stop stop-color="#4A4449"/>
<stop offset="1" stop-color="#4A4449" stop-opacity="0"/>
</linearGradient>
<linearGradient id="paint6_linear" x1="114.493" y1="172.293" x2="126.181" y2="224.85" gradientUnits="userSpaceOnUse">
<stop stop-color="#0C0C0C"/>
<stop offset="1" stop-color="#C9CACB"/>
</linearGradient>
<linearGradient id="paint7_linear" x1="227.495" y1="172.257" x2="267.893" y2="252.907" gradientUnits="userSpaceOnUse">
<stop stop-color="#131313"/>
<stop offset="1" stop-color="#131313" stop-opacity="0"/>
</linearGradient>
<linearGradient id="paint8_linear" x1="220.417" y1="148.424" x2="220.417" y2="196.513" gradientUnits="userSpaceOnUse">
<stop stop-color="#736A80"/>
<stop offset="1" stop-color="white"/>
</linearGradient>
<linearGradient id="paint9_linear" x1="196.216" y1="135.687" x2="196.216" y2="145.298" gradientUnits="userSpaceOnUse">
<stop stop-color="white"/>
<stop offset="1" stop-color="#1D0F33"/>
</linearGradient>
<linearGradient id="paint10_linear" x1="130.513" y1="130.186" x2="165.839" y2="142.92" gradientUnits="userSpaceOnUse">
<stop stop-color="white"/>
<stop offset="1" stop-color="#C4C4C4" stop-opacity="0"/>
</linearGradient>
<linearGradient id="paint11_linear" x1="164.983" y1="186.245" x2="165.308" y2="195.718" gradientUnits="userSpaceOnUse">
<stop stop-color="#CDAE7E"/>
<stop offset="1" stop-color="white" stop-opacity="0"/>
</linearGradient>
<linearGradient id="paint12_linear" x1="146.974" y1="130.157" x2="146.382" y2="176.974" gradientUnits="userSpaceOnUse">
<stop stop-color="#281D39"/>
<stop offset="1" stop-color="white" stop-opacity="0"/>
</linearGradient>
<linearGradient id="paint13_linear" x1="178.257" y1="153.046" x2="133.305" y2="110.315" gradientUnits="userSpaceOnUse">
<stop stop-color="#8445B0"/>
<stop offset="1" stop-color="white"/>
</linearGradient>
<linearGradient id="paint14_linear" x1="145.827" y1="112.059" x2="205.753" y2="142.62" gradientUnits="userSpaceOnUse">
<stop stop-color="white"/>
<stop offset="1" stop-color="#8445B0"/>
</linearGradient>
<linearGradient id="paint15_linear" x1="178.289" y1="128.792" x2="214.349" y2="85.6636" gradientUnits="userSpaceOnUse">
<stop offset="0.173564" stop-color="#DC7A29"/>
<stop offset="0.828135" stop-color="#FDE667"/>
</linearGradient>
</defs>
<path d="M15.9001 165.042C-35.7491 108.886 50.3328 17.9301 104.533 9.22997C221.859 -24.7798 292 41.6564 292 103.35C292 163.507 224.41 165.042 180.412 165.042C136.415 165.042 67.5492 221.198 15.9001 165.042Z" fill="url(#paint0_linear)" fill-opacity="0.31"/>
<path d="M15.9001 165.042C-35.7491 108.886 50.3328 17.9301 104.533 9.22997C221.859 -24.7798 292 41.6564 292 103.35C292 163.507 224.41 165.042 180.412 165.042C136.415 165.042 67.5492 221.198 15.9001 165.042Z" fill="url(#paint1_linear)" fill-opacity="0.31"/>
<path d="M45.1233 121.318C70.2526 121.317 114.677 132.202 139.76 121.317C149.377 117.143 134.46 107.073 121.628 113.489C121.628 103.672 112.539 101.726 108.261 107.607C108.261 92.8307 77.7379 84.425 70.2526 103.672C58.0023 98.5184 51.0517 105.469 52.6556 113.489C44.101 111.35 19.994 121.319 45.1233 121.318Z" fill="white" fill-opacity="0.88"/>
<path d="M45.1233 121.318C70.2526 121.317 114.677 132.202 139.76 121.317C149.377 117.143 134.46 107.073 121.628 113.489C121.628 103.672 112.539 101.726 108.261 107.607C108.261 92.8307 77.7379 84.425 70.2526 103.672C58.0023 98.5184 51.0517 105.469 52.6556 113.489C44.101 111.35 19.994 121.319 45.1233 121.318Z" fill="url(#paint2_linear)"/>
<path d="M323.809 83.2782C292.451 83.2769 237.014 96.7565 205.714 83.2769C193.713 78.1085 212.328 65.6394 228.341 73.5842C228.341 61.4281 239.683 59.0182 245.021 66.301C245.021 48.0034 283.11 37.5947 292.451 61.4281C307.738 55.0463 316.411 63.6532 314.41 73.5842C325.085 70.936 355.167 83.2794 323.809 83.2782Z" fill="white" fill-opacity="0.88"/>
<path d="M323.809 83.2782C292.451 83.2769 237.014 96.7565 205.714 83.2769C193.713 78.1085 212.328 65.6394 228.341 73.5842C228.341 61.4281 239.683 59.0182 245.021 66.301C245.021 48.0034 283.11 37.5947 292.451 61.4281C307.738 55.0463 316.411 63.6532 314.41 73.5842C325.085 70.936 355.167 83.2794 323.809 83.2782Z" fill="url(#paint3_linear)"/>
<path d="M122.464 152.207C124.86 152.877 127.475 116.441 125.078 114.876C122.681 113.311 83.6792 110.63 82.8076 114.653C81.936 118.677 81.0645 146.619 83.6792 149.748C86.2938 152.877 120.067 151.536 122.464 152.207Z" fill="url(#paint4_linear)"/>
<path d="M93.5879 135.203C93.5879 135.203 96.4823 130.638 102.959 129.641C102.959 129.641 106.242 129.113 108.468 131.637C108.468 131.637 105.076 131.308 102.358 133.166C102.358 133.166 101.265 133.965 100.765 134.277C100.765 134.279 97.6519 136.437 93.5879 135.203Z" fill="white"/>
<path d="M114.012 128.757C111.725 128.869 109.688 129.95 108.468 131.638C109.046 131.699 109.664 131.742 110.262 131.717L110.318 131.715C110.656 131.698 110.991 131.668 111.319 131.624C112.906 131.415 114.387 130.894 115.696 130.134C115.527 129.991 115.339 129.87 115.137 129.774C114.76 129.591 114.332 129.494 113.883 129.505C113.9 129.503 113.918 129.502 113.936 129.501C114.419 129.478 114.887 129.53 115.329 129.646C115.584 129.712 115.829 129.8 116.064 129.909L116.085 129.918C116.393 129.777 116.731 129.692 117.09 129.675C117.73 129.644 118.33 129.835 118.81 130.176C116.977 128.789 114.799 128.718 114.012 128.757ZM113.481 129.544C113.591 129.523 113.703 129.511 113.817 129.505C113.836 129.504 113.856 129.503 113.873 129.504C113.739 129.511 113.61 129.527 113.481 129.544Z" fill="white"/>
<path d="M113.84 129.573C113.707 129.583 113.578 129.602 113.45 129.623C113.559 129.599 113.671 129.584 113.784 129.575C113.803 129.574 113.823 129.572 113.84 129.573Z" fill="white"/>
<path d="M113.907 135.563C113.914 135.54 113.711 135.384 113.686 135.362C113.608 135.293 113.53 135.226 113.451 135.16C113.301 135.036 113.147 134.915 112.989 134.8C112.693 134.582 112.385 134.381 112.065 134.195C111.371 133.794 110.627 133.476 109.855 133.248C109.324 133.09 108.78 132.965 108.227 132.911C103.838 132.476 101.598 134.641 99.2606 135.934C94.5866 138.52 89.5928 137.686 89.5928 137.686C93.3142 139.769 96.9693 138.551 96.9693 138.551C96.9921 138.543 97.015 138.535 97.0378 138.527C97.0264 138.531 97.0161 138.534 97.0036 138.537C97.1178 138.461 98.348 137.321 99.8843 136.686C102.487 135.611 106.83 134.979 110.964 138.842C113.24 137.737 113.907 135.563 113.907 135.563Z" fill="white"/>
<path d="M110.965 138.843C106.831 134.981 102.488 135.612 99.8851 136.687C98.3488 137.323 97.1186 138.462 97.0044 138.539C97.0158 138.535 97.0272 138.532 97.0387 138.529C97.7137 138.332 98.2437 138.035 98.8262 137.85C103.977 136.216 107.631 139.496 107.631 139.496C109.522 139.649 110.966 138.845 110.965 138.843C110.966 138.843 110.965 138.843 110.965 138.843Z" fill="white"/>
<path fill-rule="evenodd" clip-rule="evenodd" d="M126.035 120.5H82.3477C82.4985 117.993 82.6817 116.09 82.8649 115.245C83.7364 111.221 122.739 113.902 125.135 115.467C125.645 115.8 125.928 117.708 126.035 120.5Z" fill="url(#paint5_linear)"/>
<path d="M228.818 146.895C229.859 143.06 227.945 141.447 226.275 139.899L224.613 151.797C225.668 151.441 227.986 149.962 228.818 146.895Z" fill="#F2C94C"/>
<path d="M121.832 217.361C134.383 215.352 142.915 203.634 140.888 191.189C138.861 178.743 127.044 170.284 114.493 172.293C101.943 174.303 93.4109 186.021 95.4374 198.466C97.464 210.911 109.281 219.371 121.832 217.361Z" fill="url(#paint6_linear)"/>
<path d="M127.709 204.297C132.982 199.068 132.982 190.59 127.709 185.361C122.435 180.132 113.886 180.132 108.612 185.361C103.339 190.59 103.339 199.068 108.612 204.297C113.886 209.526 122.435 209.526 127.709 204.297Z" fill="#DCDCDC"/>
<path d="M122.066 181.778L120.145 196.555C120.004 197.651 118.971 198.407 117.873 198.218C116.843 198.041 116.135 197.089 116.27 196.062L118.209 181.447L122.066 181.778Z" fill="#1D0F33"/>
<path d="M92.0408 185.329C91.9458 185.574 93.3294 186.239 94.7964 186.792C96.3525 187.383 98.0151 187.842 98.1215 187.542C102.177 176.567 114.448 170.934 125.511 174.964C130.68 176.846 134.675 180.494 137.042 184.97C137.606 186.028 139.013 186.287 139.913 185.489L141.227 184.331L143.132 182.656C140.08 176.501 134.738 171.473 127.746 168.929C127.55 168.855 127.349 168.789 127.15 168.723C126.955 168.658 126.753 168.589 126.561 168.524C119.111 166.185 111.341 167.12 104.91 170.577C99.1541 173.661 94.4684 178.76 92.0408 185.329Z" fill="#837B8F"/>
<path d="M234.226 217.421C246.804 215.578 255.493 203.974 253.634 191.502C251.776 179.03 240.073 170.414 227.495 172.257C214.918 174.1 206.228 185.705 208.087 198.177C209.946 210.648 221.649 219.264 234.226 217.421Z" fill="url(#paint7_linear)"/>
<path d="M203.03 194.83C203.03 195.109 204.753 195.269 206.422 195.269C207.983 195.269 209.505 195.129 209.505 194.83C209.505 183.141 219.066 173.669 230.854 173.669C235.327 173.669 239.483 175.038 242.909 177.366C243.806 177.976 245.04 177.751 245.685 176.881L245.82 176.701L248.299 173.338C243.524 169.522 237.458 167.243 230.854 167.243C215.488 167.237 203.03 179.59 203.03 194.83Z" fill="#837B8F"/>
<path d="M243.033 200.218C246.038 193.549 243.023 185.728 236.298 182.748C229.573 179.768 221.685 182.758 218.68 189.426C215.675 196.095 218.69 203.916 225.415 206.896C232.14 209.876 240.028 206.886 243.033 200.218Z" fill="#DCDCDC"/>
<path d="M231.998 196.304C232.611 195.931 232.841 195.161 232.536 194.516L210.554 148.424L208.164 149.545L229.979 195.703C230.333 196.461 231.276 196.744 231.998 196.304Z" fill="url(#paint8_linear)"/>
<path d="M206.718 149.788L218.117 173.555L220.156 172.546L222.811 171.228L211.749 147.959L207.451 149.522L206.718 149.788Z" fill="#1D0F33"/>
<path d="M210.017 142.195L211.579 148.958C211.579 148.958 217.594 151.896 222.964 152.514C223.191 152.549 223.421 152.569 223.648 152.589C224.298 152.634 224.937 152.648 225.547 152.614C227.788 147.629 226.666 139.206 226.666 139.206C226.666 139.206 226.07 139.172 225.064 139.18C224.856 139.18 224.626 139.18 224.388 139.186C221.336 139.226 215.758 139.571 211.024 141.314L210.017 142.195Z" fill="#1D0F33"/>
<path d="M189.993 176.958L189.328 168.592L166.431 160.761L142.923 165.923C142.923 165.923 149.987 199.562 151.152 202.231C152.316 204.901 184.673 203.196 186.502 203.196C188.332 203.196 189.993 197.409 189.993 197.409L191.81 194.034L192.778 191.14L186.502 188.884L189.993 176.958Z" fill="#1D0F33"/>
<path d="M156.441 201.713C162.497 205.002 181.537 205.511 180.647 199.881C180.531 199.155 179.975 198.425 179.094 197.705C174.672 194.084 162.081 190.791 156.356 190.662C155.169 190.638 154.282 190.741 153.819 191.012C150.698 192.845 150.393 198.42 156.441 201.713Z" fill="#C8C2D0"/>
<path d="M156.44 201.713C162.497 205.002 181.537 205.511 180.647 199.881C180.531 199.155 179.975 198.425 179.094 197.705C179.527 203.894 157.703 202.338 154.764 197.626C152.769 194.425 154.174 192.167 156.359 190.662C155.172 190.638 154.284 190.741 153.822 191.012C150.697 192.845 150.392 198.42 156.44 201.713Z" fill="#B8B3C0"/>
<path d="M207.475 162.69C207.475 162.69 191.83 201.583 189.149 205.462C186.469 209.341 150.375 204.686 149.256 204.022C148.14 203.357 141.471 167.512 141.471 167.512L143.482 167.179C143.482 167.179 149.927 199.92 151.155 201.806C152.383 203.688 185.462 203.357 186.914 202.804C188.367 202.251 200.882 169.561 200.882 169.561L207.475 162.69Z" fill="#C8C2D0"/>
<path d="M98.2712 154.109C97.2645 154.442 95.087 155.272 94.5836 156.271C94.0803 157.269 94.0803 164.083 94.4168 165.412C94.7533 166.741 98.2712 165.746 98.2712 165.746L99.4448 156.77L98.2712 154.109Z" fill="#C8C2D0"/>
<path d="M214.933 152.281L208.674 155.161L204.652 146.519L211.133 143.638L214.933 152.281Z" fill="#1D0F33"/>
<path d="M213.031 144.081L203.312 147.737L198.281 140.535L210.575 136.656L213.031 144.081Z" fill="#1D0F33"/>
<path d="M193.716 139.663C193.972 140.068 194.406 140.288 194.855 140.288C195.097 140.288 195.338 140.222 195.56 140.088L198.923 138.564C199.512 138.199 200.272 138.305 200.726 138.818L203.764 142.195C204.253 142.746 205.104 142.794 205.653 142.301C206.209 141.816 206.257 140.972 205.768 140.427L202.731 137.05C201.396 135.567 199.199 135.256 197.502 136.305L194.139 137.829C193.515 138.223 193.322 139.039 193.716 139.663Z" fill="url(#paint9_linear)"/>
<path d="M166.209 161.587C171.016 167.571 187.106 171.008 199.397 166.573C207.799 163.541 209.784 156.793 208.093 151.727C207.307 149.374 205.734 147.386 203.648 146.297C203.648 146.297 198.057 144.634 187.664 146.961C180.686 148.524 171.237 151.887 167.242 155.738C165.283 157.626 164.633 159.619 166.209 161.587Z" fill="#C8C2D0"/>
<path d="M149.227 178.541C150.118 179.425 167.972 179.219 169.12 177.762C169.896 176.764 171.13 170.894 170.012 170.229C169.871 170.144 169.402 170.07 168.691 170.01C164.636 169.656 152.701 169.676 148.545 170.255C147.693 170.369 147.17 170.509 147.104 170.674C146.658 171.778 148.335 177.656 149.227 178.541Z" fill="#C8C2D0"/>
<path d="M116.199 184.871L123.071 185.704L124.552 174.075L125.412 167.301L125.418 167.253L124.828 167.267L118.713 167.421L117.847 173.416L116.199 184.871Z" fill="#1D0F33"/>
<path d="M147.985 205.551C148.072 205.565 156.896 206.954 166.167 207.813C171.356 208.292 175.352 208.483 178.444 208.483C185.718 208.483 187.999 207.413 189.043 206.475C192.529 203.537 194.649 197.567 196.05 193.617C196.231 193.098 196.407 192.619 196.559 192.188C197.425 189.849 196.493 187.214 194.339 185.925L191.468 184.202L189.731 187.048L192.601 188.771C193.387 189.236 193.729 190.2 193.413 191.05C193.251 191.489 193.076 191.98 192.883 192.513C191.603 196.124 189.665 201.58 186.828 203.976C184.228 206.309 165.313 204.935 148.512 202.268L148.21 204.15L147.985 205.551Z" fill="#C8C2D0"/>
<path d="M107.503 200.753C108.395 201.192 146.611 207.402 147.733 206.403C148 206.164 148.227 205.679 148.417 205.066C149.007 203.112 149.142 199.886 148.512 199.421C147.621 198.757 110.63 190.999 108.956 191.663C107.857 192.102 107.187 195.705 107.112 198.252C107.075 199.569 107.195 200.602 107.503 200.753Z" fill="#C8C2D0"/>
<path d="M97.7676 167.237C98.0236 167.397 100.65 167.537 104.72 167.637C118.009 167.976 146.744 167.97 159.167 167.263C162.769 167.058 165.001 166.79 165.096 166.459C165.599 164.631 165.967 158.667 163.807 157.597C162.8 157.098 99.4417 156.599 98.4349 157.432C97.4311 158.264 96.4272 166.407 97.7676 167.237Z" fill="#C8C2D0"/>
<path opacity="0.6" d="M97.7676 167.238C98.0236 167.397 100.65 167.537 104.72 167.637C98.4321 165.15 105.706 161.142 132.463 161.142C156.855 161.142 162.3 165.184 159.167 167.266C162.769 167.061 165.001 166.793 165.096 166.462C165.599 164.633 165.967 158.669 163.807 157.6C162.8 157.101 99.4417 156.602 98.4349 157.434C97.4311 158.264 96.4272 166.408 97.7676 167.238Z" fill="#C8C2D0"/>
<path d="M164.814 156.436C166.405 157.489 166.154 159.759 165.821 160.592C165.484 161.422 97.601 159.762 96.9308 159.428C96.2606 159.094 97.4341 152.78 98.9414 151.781C100.449 150.783 130.622 151.117 132.296 151.616C133.973 152.115 134.643 155.272 136.151 155.771C137.661 156.268 163.307 155.438 164.814 156.436Z" fill="#111111"/>
<path d="M194.035 174.331C194.536 175.423 188.225 187.406 186.548 188.293C184.871 189.18 172.914 184.414 172.356 183.084C171.798 181.755 175.149 170.452 176.155 169.345C177.162 168.236 193.477 173.11 194.035 174.331Z" fill="#C8C2D0"/>
<path d="M174.472 169.698L174.276 170.333L195.064 176.645L195.26 176.01L174.472 169.698Z" fill="#C8C2D0"/>
<path d="M173.904 170.91L173.708 171.546L194.496 177.856L194.692 177.22L173.904 170.91Z" fill="#C8C2D0"/>
<path d="M173.351 172.136L173.155 172.771L193.942 179.081L194.139 178.445L173.351 172.136Z" fill="#C8C2D0"/>
<path d="M172.787 173.351L172.591 173.987L193.379 180.296L193.575 179.661L172.787 173.351Z" fill="#C8C2D0"/>
<path d="M172.228 174.569L172.032 175.204L192.82 181.514L193.016 180.878L172.228 174.569Z" fill="#C8C2D0"/>
<path d="M171.682 175.785L171.485 176.421L192.273 182.735L192.469 182.1L171.682 175.785Z" fill="#C8C2D0"/>
<path d="M171.112 177.004L170.916 177.64L191.703 183.95L191.899 183.314L171.112 177.004Z" fill="#C8C2D0"/>
<path d="M170.56 178.231L170.363 178.866L191.151 185.178L191.347 184.543L170.56 178.231Z" fill="#C8C2D0"/>
<path d="M169.995 179.445L169.799 180.08L190.587 186.39L190.783 185.754L169.995 179.445Z" fill="#C8C2D0"/>
<path opacity="0.6" d="M166.209 161.587C171.016 167.571 187.106 171.008 199.397 166.573C207.799 163.541 209.784 156.793 208.093 151.727C210.132 163.447 195.695 164.539 187.892 161.368C179.685 158.025 172.865 153.316 167.242 155.737C165.283 157.625 164.633 159.619 166.209 161.587Z" fill="black" fill-opacity="0.13"/>
<path d="M147.985 205.551C148.072 205.565 156.896 206.954 166.167 207.813C171.356 208.292 175.352 208.483 178.444 208.483C185.718 208.483 187.999 207.413 189.043 206.475C186.362 208.337 158.772 205.696 148.213 204.147L147.985 205.551Z" fill="#B8B3C0"/>
<path d="M149.227 178.541C150.118 179.425 167.972 179.22 169.12 177.762C169.896 176.764 171.13 170.894 170.012 170.229C169.871 170.144 169.402 170.07 168.691 170.01C168.214 171.598 167.014 175.554 166.661 176.433C166.212 177.542 153.029 177.542 151.462 177.098C150.242 176.752 149.022 172.223 148.545 170.255C147.693 170.369 147.17 170.509 147.104 170.674C146.658 171.778 148.335 177.657 149.227 178.541Z" fill="#B8B3C0"/>
<path d="M81.3145 154.608H130.982C131.709 154.608 132.296 154.023 132.296 153.304V152.423C132.296 151.701 131.706 151.12 130.982 151.12H81.3145C80.5897 151.12 80 151.704 80 152.423V153.304C80 154.023 80.5897 154.608 81.3145 154.608Z" fill="#111111"/>
<path d="M161.731 143.883C150.114 144.847 157.375 140.025 158.343 135.203C158.343 135.203 141.374 122.48 136.077 125.559C131.721 137.614 131.864 146.778 132.832 149.671C133.8 152.564 134.768 153.529 134.768 153.529C137.672 157.868 141.06 162.69 144.448 167.03C152.193 179.085 149.146 185.835 149.146 185.835C156.406 191.139 170.261 195.184 174.315 181.495C162.699 172.333 190.772 150.826 161.731 143.883Z" fill="url(#paint10_linear)"/>
<path d="M158.541 191.632L172.032 190.814L166.056 187.629L159.736 186.563L159.38 189.483L158.541 191.632Z" fill="#FEECA3"/>
<path d="M158.541 191.632L172.032 190.814L166.056 187.629L159.736 186.563L159.38 189.483L158.541 191.632Z" fill="url(#paint11_linear)"/>
<path d="M143.875 160.633C127.276 160.595 127.288 148.21 130.743 139.566L163.797 144.671C163.797 144.671 183.253 147.801 184.259 154.15C185.995 165.101 175.353 177.639 169.061 188.247C165.666 189.211 160.508 189.163 157.444 188.247C159.864 185.836 157.433 170.888 165.189 161.244C158.896 161.244 154.389 161.109 143.875 160.633Z" fill="black"/>
<path d="M143.875 160.633C127.276 160.595 127.288 148.21 130.743 139.566L163.797 144.671C163.797 144.671 183.253 147.801 184.259 154.15C185.995 165.101 175.353 177.639 169.061 188.247C165.666 189.211 160.508 189.163 157.444 188.247C159.864 185.836 157.433 170.888 165.189 161.244C158.896 161.244 154.389 161.109 143.875 160.633Z" fill="url(#paint12_linear)"/>
<path d="M158.326 197.074C155.17 196.641 157.663 191.276 159.38 189.483C158.907 190.291 159.952 191.653 167.633 189.317C177.236 186.397 178.666 197.01 175.938 197.176C173.209 197.341 162.272 197.614 158.326 197.074Z" fill="black"/>
<path d="M175.353 95.8044C163.731 92.7032 135.027 112.951 130.521 139.943C130.521 139.943 143.491 141.943 149.198 142.939C154.905 143.935 164.673 145.331 164.673 145.331C165.818 143.899 174.035 135.839 177.609 126.692C183.084 112.681 191.965 100.237 175.353 95.8044Z" fill="url(#paint13_linear)"/>
<path d="M206.682 140.763C207.877 132.533 199.896 132.131 194.997 135.906L196.22 142.055L201.588 141.374C202.88 145.258 205.822 146.684 206.682 140.763Z" fill="#FAE2F3"/>
<path d="M165.188 123.149C161.066 116.305 156.96 104.343 164.22 100.486C174.385 95.6636 179.225 110.13 182.613 117.363C186.001 124.596 197.134 132.311 198.102 134.24C198.102 134.24 197.618 135.687 197.134 137.616C196.65 139.544 196.166 141.955 196.166 141.955C188.421 140.027 183.581 139.544 176.321 134.24C173.197 131.958 168.092 127.971 165.188 123.149Z" fill="url(#paint14_linear)"/>
<path d="M198.498 142.366C198.922 143.043 199.65 143.407 200.398 143.407C200.802 143.407 201.203 143.296 201.57 143.076C203.739 140.636 201.19 138.541 199.2 139.306C198.16 139.963 197.835 141.326 198.498 142.366Z" fill="#1D0F33"/>
<path d="M166.173 90.0742C164.362 88.7521 168.726 89.2551 171.828 87.9426L177.363 95.2602C176.189 95.496 173.452 95.9228 171.9 95.744C170.349 95.5652 171.663 94.9744 172.514 94.7014C171.382 94.571 168.841 94.1668 167.728 93.5933C166.616 93.0197 168.04 92.3303 168.891 92.0573L166.173 90.0742Z" fill="#111111"/>
<path d="M170.182 89.8632C172.251 76.6581 177.637 71.115 189.071 76.9142C200.504 82.7134 193.963 107.166 190.455 105.641C186.947 104.117 169.859 92.6263 170.182 89.8632Z" fill="url(#paint15_linear)"/>
<path fill-rule="evenodd" clip-rule="evenodd" d="M195.29 86.2794C196.201 91.8987 195.051 98.2919 193.459 102.084C186.101 97.1815 182.925 87.4396 183.33 83.9813C183.67 81.0688 188.958 83.4448 193.367 85.4257C194.035 85.7259 194.683 86.0171 195.29 86.2794Z" fill="#111111"/>
</svg>
