<svg width="164" height="132" viewBox="0 0 164 132" fill="none" xmlns="http://www.w3.org/2000/svg">
<defs>
<linearGradient id="paint0_linear" x1="82.5375" y1="117.701" x2="77.0009" y2="-49.4302" gradientUnits="userSpaceOnUse">
<stop offset="0.0156053" stop-color="#ED9A22"/>
<stop offset="1" stop-color="#FFDF36" stop-opacity="0"/>
</linearGradient>
<linearGradient id="paint1_linear" x1="191.967" y1="178.134" x2="233.121" y2="52.6703" gradientUnits="userSpaceOnUse">
<stop stop-color="#F5F4CA"/>
<stop offset="1" stop-color="white" stop-opacity="0"/>
</linearGradient>
<linearGradient id="paint2_linear" x1="40.3987" y1="17.1504" x2="73.5794" y2="24.9567" gradientUnits="userSpaceOnUse">
<stop stop-color="white"/>
<stop offset="1" stop-color="#8445B0"/>
</linearGradient>
<linearGradient id="paint3_linear" x1="44.8436" y1="59.3965" x2="65.2801" y2="69.4364" gradientUnits="userSpaceOnUse">
<stop stop-color="white"/>
<stop offset="1" stop-color="#8445B0"/>
</linearGradient>
</defs>
<path d="M154.856 100.244C173.05 77.3299 164.437 20.424 125.913 20.424C116.394 3.58525 77.6689 -9.61393 47.7553 9.22451C6.70459 35.0766 10.7561 104.966 53.2311 120.996C102.816 139.71 129.148 132.621 154.856 100.244Z" fill="#FFFBD5"/>
<path d="M154.856 100.244C173.05 77.3299 164.437 20.424 125.913 20.424C116.394 3.58525 77.6689 -9.61393 47.7553 9.22451C6.70459 35.0766 10.7561 104.966 53.2311 120.996C102.816 139.71 129.148 132.621 154.856 100.244Z" fill="url(#paint0_linear)" fill-opacity="0.5"/>
<path d="M29.5528 16.7351C54.6359 -2.66458 86.8124 5.36863 103.29 33.6215C119.769 61.8745 96.6238 101.973 68.4578 100.657C40.2908 99.3415 0.746961 92.132 0.00967214 55.8235C-0.489614 31.2389 18.4591 17.7268 29.5528 16.7351Z" fill="white"/>
<path d="M29.5528 16.7351C54.6359 -2.66458 86.8124 5.36863 103.29 33.6215C119.769 61.8745 96.6238 101.973 68.4578 100.657C40.2908 99.3415 0.746961 92.132 0.00967214 55.8235C-0.489614 31.2389 18.4591 17.7268 29.5528 16.7351Z" fill="url(#paint1_linear)"/>
<path d="M51.7507 54.7705H58.0202C58.809 54.7705 59.4696 54.1729 59.5487 53.3879L63.0214 18.8226C63.112 17.918 62.4023 17.1328 61.4928 17.1328H46.5415C45.6018 17.1328 44.8823 17.9688 45.0224 18.8979L50.2316 53.4631C50.3449 54.2144 50.9906 54.7705 51.7507 54.7705Z" fill="#FFFBD5"/>
<path d="M51.7507 54.788H58.0202C58.809 54.788 59.4696 54.1905 59.5487 53.4054L63.0214 18.8402C63.112 17.9356 62.4023 17.1504 61.4928 17.1504H46.5415C45.6018 17.1504 44.8823 17.9864 45.0224 18.9155L50.2316 53.4807C50.3449 54.2319 50.9906 54.788 51.7507 54.788Z" fill="#7F50B2"/>
<path d="M51.7507 54.788H58.0202C58.809 54.788 59.4696 54.1905 59.5487 53.4054L63.0214 18.8402C63.112 17.9356 62.4023 17.1504 61.4928 17.1504H46.5415C45.6018 17.1504 44.8823 17.9864 45.0224 18.9155L50.2316 53.4807C50.3449 54.2319 50.9906 54.788 51.7507 54.788Z" fill="url(#paint2_linear)"/>
<path d="M54.7096 72.4378C58.3155 72.4378 61.2386 69.5147 61.2386 65.9089C61.2386 62.303 58.3155 59.3799 54.7096 59.3799C51.1038 59.3799 48.1807 62.303 48.1807 65.9089C48.1807 69.5147 51.1038 72.4378 54.7096 72.4378Z" fill="#FFFBD5"/>
<path d="M54.7096 72.4544C58.3155 72.4544 61.2386 69.5313 61.2386 65.9255C61.2386 62.3196 58.3155 59.3965 54.7096 59.3965C51.1038 59.3965 48.1807 62.3196 48.1807 65.9255C48.1807 69.5313 51.1038 72.4544 54.7096 72.4544Z" fill="#7F50B2"/>
<path d="M54.7096 72.4544C58.3155 72.4544 61.2386 69.5313 61.2386 65.9255C61.2386 62.3196 58.3155 59.3965 54.7096 59.3965C51.1038 59.3965 48.1807 62.3196 48.1807 65.9255C48.1807 69.5313 51.1038 72.4544 54.7096 72.4544Z" fill="url(#paint3_linear)"/>
</svg>
