<svg width="31" height="34" viewBox="0 0 31 34" fill="none" xmlns="http://www.w3.org/2000/svg">
<path d="M25.6837 4.44992C25.5504 4.44992 25.417 4.41659 25.3004 4.34992C22.1004 2.69992 19.3337 1.99992 16.017 1.99992C12.717 1.99992 9.58372 2.78325 6.73372 4.34992C6.33372 4.56659 5.83372 4.41659 5.60038 4.01659C5.38372 3.61659 5.53372 3.09992 5.93372 2.88325C9.03372 1.19992 12.4337 0.333252 16.017 0.333252C19.567 0.333252 22.6671 1.11659 26.0671 2.86659C26.4837 3.08325 26.6337 3.58325 26.417 3.98325C26.267 4.28325 25.9837 4.44992 25.6837 4.44992ZM1.83372 13.1999C1.66705 13.1999 1.50038 13.1499 1.35038 13.0499C0.967049 12.7833 0.883715 12.2666 1.15038 11.8833C2.80038 9.54992 4.90038 7.71659 7.40038 6.43325C12.6337 3.73325 19.3337 3.71659 24.5837 6.41659C27.0837 7.69992 29.1837 9.51659 30.8337 11.8333C31.1004 12.1999 31.017 12.7333 30.6337 12.9999C30.2504 13.2666 29.7337 13.1833 29.467 12.7999C27.967 10.6999 26.0671 9.04992 23.8171 7.89992C19.0337 5.44992 12.917 5.44992 8.15038 7.91659C5.88372 9.08325 3.98372 10.7499 2.48372 12.8499C2.35038 13.0833 2.10038 13.1999 1.83372 13.1999ZM12.2504 33.3166C12.0337 33.3166 11.817 33.2333 11.667 33.0666C10.217 31.6166 9.43372 30.6833 8.31705 28.6666C7.16705 26.6166 6.56705 24.1166 6.56705 21.4333C6.56705 16.4833 10.8004 12.4499 16.0004 12.4499C21.2004 12.4499 25.4337 16.4833 25.4337 21.4333C25.4337 21.8999 25.067 22.2666 24.6004 22.2666C24.1337 22.2666 23.767 21.8999 23.767 21.4333C23.767 17.3999 20.2837 14.1166 16.0004 14.1166C11.717 14.1166 8.23372 17.3999 8.23372 21.4333C8.23372 23.8333 8.76705 26.0499 9.78372 27.8499C10.8504 29.7666 11.5837 30.5833 12.867 31.8833C13.1837 32.2166 13.1837 32.7333 12.867 33.0666C12.6837 33.2333 12.467 33.3166 12.2504 33.3166ZM24.2004 30.2333C22.217 30.2333 20.467 29.7333 19.0337 28.7499C16.5504 27.0666 15.067 24.3333 15.067 21.4333C15.067 20.9666 15.4337 20.5999 15.9004 20.5999C16.367 20.5999 16.7337 20.9666 16.7337 21.4333C16.7337 23.7833 17.9337 25.9999 19.967 27.3666C21.1504 28.1666 22.5337 28.5499 24.2004 28.5499C24.6004 28.5499 25.267 28.4999 25.9337 28.3833C26.3837 28.2999 26.8171 28.5999 26.9004 29.0666C26.9837 29.5166 26.6837 29.9499 26.217 30.0333C25.267 30.2166 24.4337 30.2333 24.2004 30.2333ZM20.8504 33.6666C20.7837 33.6666 20.7004 33.6499 20.6337 33.6333C17.9837 32.8999 16.2504 31.9166 14.4337 30.1333C12.1004 27.8166 10.817 24.7333 10.817 21.4333C10.817 18.7333 13.117 16.5333 15.9504 16.5333C18.7837 16.5333 21.0837 18.7333 21.0837 21.4333C21.0837 23.2166 22.6337 24.6666 24.5504 24.6666C26.467 24.6666 28.017 23.2166 28.017 21.4333C28.017 15.1499 22.6004 10.0499 15.9337 10.0499C11.2004 10.0499 6.86705 12.6833 4.91705 16.7666C4.26705 18.1166 3.93372 19.6999 3.93372 21.4333C3.93372 22.7333 4.05038 24.7833 5.05038 27.4499C5.21705 27.8833 5.00038 28.3666 4.56705 28.5166C4.13372 28.6833 3.65038 28.4499 3.50038 28.0333C2.68372 25.8499 2.28372 23.6833 2.28372 21.4333C2.28372 19.4333 2.66705 17.6166 3.41705 16.0333C5.63372 11.3833 10.5504 8.36659 15.9337 8.36659C23.517 8.36659 29.6837 14.2166 29.6837 21.4166C29.6837 24.1166 27.3837 26.3166 24.5504 26.3166C21.717 26.3166 19.417 24.1166 19.417 21.4166C19.417 19.6333 17.8671 18.1833 15.9504 18.1833C14.0337 18.1833 12.4837 19.6333 12.4837 21.4166C12.4837 24.2666 13.5837 26.9333 15.6004 28.9333C17.1837 30.4999 18.7004 31.3666 21.0504 32.0166C21.5004 32.1333 21.7504 32.5999 21.6337 33.0333C21.5504 33.4166 21.2004 33.6666 20.8504 33.6666Z" fill="#8647B3"/>
</svg>
