<svg width="24" height="24" viewBox="0 0 24 24" fill="none" xmlns="http://www.w3.org/2000/svg">
<path d="M4.6001 2.5C4.6001 1.94772 4.15238 1.5 3.6001 1.5C3.04781 1.5 2.6001 1.94772 2.6001 2.5V8C2.6001 10.1416 4.09611 11.9338 6.1001 12.3885L6.1001 21.5C6.1001 22.0523 6.54781 22.5 7.1001 22.5C7.65238 22.5 8.1001 22.0523 8.1001 21.5L8.1001 12.3885C10.1041 11.9338 11.6001 10.1416 11.6001 8V2.5C11.6001 1.94772 11.1524 1.5 10.6001 1.5C10.0478 1.5 9.6001 1.94772 9.6001 2.5V6H8.1001V2.5C8.1001 1.94772 7.65238 1.5 7.1001 1.5C6.54781 1.5 6.1001 1.94772 6.1001 2.5L6.1001 6H4.6001V2.5Z" fill="#E7DDEF"/>
<path fill-rule="evenodd" clip-rule="evenodd" d="M4.6001 2.5C4.6001 1.94772 4.15238 1.5 3.6001 1.5C3.04781 1.5 2.6001 1.94772 2.6001 2.5V8C2.6001 10.1416 4.09611 11.9338 6.1001 12.3885L6.1001 21.5C6.1001 22.0523 6.54781 22.5 7.1001 22.5C7.65238 22.5 8.1001 22.0523 8.1001 21.5L8.1001 12.3885C10.1041 11.9338 11.6001 10.1416 11.6001 8V2.5C11.6001 1.94772 11.1524 1.5 10.6001 1.5C10.0478 1.5 9.6001 1.94772 9.6001 2.5V6H8.1001V2.5C8.1001 1.94772 7.65238 1.5 7.1001 1.5C6.54781 1.5 6.1001 1.94772 6.1001 2.5L6.1001 6H4.6001V2.5ZM4.6001 8C4.6001 9.38071 5.71939 10.5 7.1001 10.5C8.48081 10.5 9.6001 9.38071 9.6001 8H4.6001Z" fill="#8A48B8"/>
<ellipse cx="17.3999" cy="7" rx="5.5" ry="4" transform="rotate(-90 17.3999 7)" fill="#E7DDEF"/>
<path fill-rule="evenodd" clip-rule="evenodd" d="M18.6109 4.28726C18.1599 3.66717 17.7069 3.5 17.3999 3.5C17.0929 3.5 16.6399 3.66717 16.1889 4.28726C15.7394 4.90539 15.3999 5.85801 15.3999 7C15.3999 8.14199 15.7394 9.09461 16.1889 9.71274C16.6399 10.3328 17.0929 10.5 17.3999 10.5C17.707 10.5 18.1599 10.3328 18.6109 9.71274C19.0604 9.09461 19.3999 8.14199 19.3999 7C19.3999 5.85801 19.0604 4.90539 18.6109 4.28726ZM21.3999 7C21.3999 3.96243 19.609 1.5 17.3999 1.5C15.1908 1.5 13.3999 3.96243 13.3999 7C13.3999 10.0376 15.1908 12.5 17.3999 12.5C19.609 12.5 21.3999 10.0376 21.3999 7Z" fill="#8A48B8"/>
<path fill-rule="evenodd" clip-rule="evenodd" d="M16.3999 21.5L16.3999 12.5C16.3999 11.9477 16.8476 11.5 17.3999 11.5C17.9522 11.5 18.3999 11.9477 18.3999 12.5L18.3999 21.5C18.3999 22.0523 17.9522 22.5 17.3999 22.5C16.8476 22.5 16.3999 22.0523 16.3999 21.5Z" fill="#8A48B8"/>
</svg>
