<svg width="24" height="24" viewBox="0 0 24 24" fill="none" xmlns="http://www.w3.org/2000/svg">
<path fill-rule="evenodd" clip-rule="evenodd" d="M4.59961 2.5C4.59961 1.94772 4.15189 1.5 3.59961 1.5C3.04732 1.5 2.59961 1.94772 2.59961 2.5V8C2.59961 10.1416 4.09562 11.9338 6.09961 12.3885L6.09961 21.5C6.09961 22.0523 6.54733 22.5 7.09961 22.5C7.65189 22.5 8.09961 22.0523 8.09961 21.5L8.09961 12.3885C10.1036 11.9338 11.5996 10.1416 11.5996 8V2.5C11.5996 1.94772 11.1519 1.5 10.5996 1.5C10.0473 1.5 9.59961 1.94772 9.59961 2.5V6H8.09961V2.5C8.09961 1.94772 7.65189 1.5 7.09961 1.5C6.54732 1.5 6.09961 1.94772 6.09961 2.5L6.09961 6H4.59961V2.5ZM4.59961 8C4.59961 9.38071 5.7189 10.5 7.09961 10.5C8.48032 10.5 9.59961 9.38071 9.59961 8H4.59961Z" fill="#1D0F33"/>
<path fill-rule="evenodd" clip-rule="evenodd" d="M18.6104 4.28726C18.1594 3.66717 17.7065 3.5 17.3994 3.5C17.0924 3.5 16.6394 3.66717 16.1885 4.28726C15.7389 4.90539 15.3994 5.85801 15.3994 7C15.3994 8.14199 15.7389 9.09461 16.1885 9.71274C16.6394 10.3328 17.0924 10.5 17.3994 10.5C17.7065 10.5 18.1594 10.3328 18.6104 9.71274C19.0599 9.09461 19.3994 8.14199 19.3994 7C19.3994 5.85801 19.0599 4.90539 18.6104 4.28726ZM21.3994 7C21.3994 3.96243 19.6086 1.5 17.3994 1.5C15.1903 1.5 13.3994 3.96243 13.3994 7C13.3994 10.0376 15.1903 12.5 17.3994 12.5C19.6086 12.5 21.3994 10.0376 21.3994 7Z" fill="#1D0F33"/>
<path fill-rule="evenodd" clip-rule="evenodd" d="M16.3994 21.5L16.3994 12.5C16.3994 11.9477 16.8471 11.5 17.3994 11.5C17.9517 11.5 18.3994 11.9477 18.3994 12.5L18.3994 21.5C18.3994 22.0523 17.9517 22.5 17.3994 22.5C16.8471 22.5 16.3994 22.0523 16.3994 21.5Z" fill="#1D0F33"/>
</svg>
