<svg width="32" height="32" viewBox="0 0 32 32" fill="none" xmlns="http://www.w3.org/2000/svg">
<circle cx="15.9998" cy="15.9993" r="13.3333" fill="#E7DDEF"/>
<path d="M15.9998 2.66602C8.63984 2.66602 2.6665 8.63935 2.6665 15.9993C2.6665 23.3594 8.63984 29.3327 15.9998 29.3327C23.3598 29.3327 29.3332 23.3594 29.3332 15.9993C29.3332 8.63935 23.3598 2.66602 15.9998 2.66602ZM15.9998 26.666C10.1198 26.666 5.33317 21.8793 5.33317 15.9993C5.33317 10.1193 10.1198 5.33268 15.9998 5.33268C21.8798 5.33268 26.6665 10.1193 26.6665 15.9993C26.6665 21.8793 21.8798 26.666 15.9998 26.666ZM14.6665 21.3327H17.3332V23.9993H14.6665V21.3327ZM16.8132 8.05268C14.0665 7.65268 11.6398 9.34602 10.9065 11.7727C10.6665 12.546 11.2532 13.3327 12.0665 13.3327H12.3332C12.8798 13.3327 13.3198 12.946 13.5065 12.4393C13.9332 11.2527 15.1998 10.4393 16.5732 10.7327C17.8398 10.9993 18.7732 12.2393 18.6665 13.5327C18.5332 15.3193 16.5065 15.706 15.3998 17.3727C15.3998 17.386 15.3865 17.386 15.3865 17.3993C15.3732 17.426 15.3598 17.4394 15.3465 17.466C15.2265 17.666 15.1065 17.8927 15.0132 18.1327C14.9998 18.1727 14.9732 18.1993 14.9598 18.2393C14.9465 18.266 14.9465 18.2927 14.9332 18.3327C14.7732 18.786 14.6665 19.3327 14.6665 19.9993H17.3332C17.3332 19.4394 17.4798 18.9727 17.7065 18.5727C17.7332 18.5327 17.7465 18.4927 17.7732 18.4527C17.8798 18.266 18.0132 18.0927 18.1465 17.9327C18.1598 17.9193 18.1732 17.8927 18.1865 17.8793C18.3198 17.7193 18.4665 17.5727 18.6265 17.426C19.9065 16.2127 21.6398 15.226 21.2798 12.6793C20.9598 10.3593 19.1332 8.39935 16.8132 8.05268Z" fill="#8A48B8"/>
</svg>
