<svg width="19" height="18" viewBox="0 0 19 18" fill="none" xmlns="http://www.w3.org/2000/svg">
<path fill-rule="evenodd" clip-rule="evenodd" d="M6.02992 12.2942C6.02992 11.1897 6.92535 10.2942 8.02992 10.2942H10.0299C11.1345 10.2942 12.0299 11.1897 12.0299 12.2942V16H16V8.9187C16 8.33553 15.7455 7.7814 15.303 7.40144L9.01365 2L2.71997 7.24236C2.26378 7.62235 2 8.18537 2 8.77909V16L6.02992 16V12.2942ZM7.67545 0.513663L0.686262 6.35573C0.263573 6.73629 0.0229084 7.27882 0.0244781 7.84758L0.0244141 16.0055C0.0274566 17.1079 0.921679 18 2.02409 18L6.03025 18C7.13481 18 8.02992 17.1046 8.02992 16V12.2942H10.0299L10.0299 16C10.0299 17.1046 10.9253 18 12.0299 18H16.0299C17.1345 18 18.0299 17.1046 18.0299 16L18.052 8C18.052 7.44148 17.8185 6.9084 17.4079 6.52976L10.3695 0.529758C9.61034 -0.170369 8.44294 -0.177343 7.67545 0.513663Z" fill="#837B8F"/>
</svg>
