<svg width="195" height="148" viewBox="0 0 195 148" fill="none" xmlns="http://www.w3.org/2000/svg">
<defs>
<linearGradient id="paint0_linear" x1="90.8364" y1="124.138" x2="69.4453" y2="-35.7706" gradientUnits="userSpaceOnUse">
<stop offset="0.0156053" stop-color="#ED9A22"/>
<stop offset="1" stop-color="#FFDF36" stop-opacity="0"/>
</linearGradient>
<linearGradient id="paint1_linear" x1="155.075" y1="117.53" x2="183.592" y2="164.973" gradientUnits="userSpaceOnUse">
<stop/>
<stop offset="1" stop-color="white" stop-opacity="0"/>
</linearGradient>
<linearGradient id="paint2_linear" x1="64.3383" y1="117.529" x2="92.8485" y2="164.973" gradientUnits="userSpaceOnUse">
<stop/>
<stop offset="1" stop-color="white" stop-opacity="0"/>
</linearGradient>
<linearGradient id="paint3_linear" x1="162.824" y1="93.2189" x2="170.224" y2="66.2374" gradientUnits="userSpaceOnUse">
<stop stop-color="#F5F4CA"/>
<stop offset="1" stop-color="white" stop-opacity="0"/>
</linearGradient>
<linearGradient id="paint4_linear" x1="144.385" y1="102.721" x2="169.636" y2="72.1511" gradientUnits="userSpaceOnUse">
<stop stop-color="#AD6BC5" stop-opacity="0.9603"/>
<stop offset="1" stop-color="#E80088" stop-opacity="0"/>
</linearGradient>
<linearGradient id="paint5_linear" x1="147.33" y1="109.873" x2="173.655" y2="109.873" gradientUnits="userSpaceOnUse">
<stop stop-color="#CF1E9E"/>
<stop offset="1" stop-color="#7F50B2"/>
</linearGradient>
<linearGradient id="paint6_linear" x1="151.094" y1="59.7425" x2="151.094" y2="71.5157" gradientUnits="userSpaceOnUse">
<stop stop-color="white"/>
<stop offset="1" stop-color="white" stop-opacity="0"/>
</linearGradient>
<linearGradient id="paint7_linear" x1="106.112" y1="143.198" x2="118.428" y2="63.2641" gradientUnits="userSpaceOnUse">
<stop stop-color="#A474A8"/>
<stop offset="1" stop-color="white" stop-opacity="0"/>
</linearGradient>
<linearGradient id="paint8_linear" x1="129.091" y1="82.1099" x2="88.9605" y2="142.011" gradientUnits="userSpaceOnUse">
<stop stop-color="#CF1E9E"/>
<stop offset="1" stop-color="#7F50B2" stop-opacity="0"/>
</linearGradient>
<linearGradient id="paint9_linear" x1="30.8683" y1="97.8301" x2="85.9501" y2="39.7945" gradientUnits="userSpaceOnUse">
<stop stop-color="#AD6BC5" stop-opacity="0.9603"/>
<stop offset="1" stop-color="#E80088" stop-opacity="0"/>
</linearGradient>
<linearGradient id="paint10_linear" x1="54.9892" y1="62.3626" x2="58.1211" y2="45.0179" gradientUnits="userSpaceOnUse">
<stop stop-color="#CF1E9E"/>
<stop offset="1" stop-color="#7F50B2"/>
</linearGradient>
<linearGradient id="paint11_linear" x1="49.3569" y1="108.117" x2="77.0881" y2="54.3211" gradientUnits="userSpaceOnUse">
<stop/>
<stop offset="1" stop-color="white" stop-opacity="0"/>
</linearGradient>
<linearGradient id="paint12_linear" x1="153.458" y1="84.9393" x2="169.325" y2="41.4679" gradientUnits="userSpaceOnUse">
<stop stop-color="#CF1E9E"/>
<stop offset="1" stop-color="#7F50B2"/>
</linearGradient>
<linearGradient id="paint13_linear" x1="135.741" y1="147.697" x2="148.057" y2="67.7631" gradientUnits="userSpaceOnUse">
<stop stop-color="#A474A8"/>
<stop offset="1" stop-color="white" stop-opacity="0"/>
</linearGradient>
<linearGradient id="paint14_linear" x1="70.1939" y1="114.067" x2="24.2156" y2="58.4028" gradientUnits="userSpaceOnUse">
<stop stop-color="#AD6BC5" stop-opacity="0.9603"/>
<stop offset="1" stop-color="#E80088" stop-opacity="0"/>
</linearGradient>
<linearGradient id="paint15_linear" x1="60.5212" y1="72.8185" x2="47.1492" y2="71.5686" gradientUnits="userSpaceOnUse">
<stop stop-color="#C83192"/>
<stop offset="1" stop-color="#562F88"/>
</linearGradient>
<linearGradient id="paint16_linear" x1="64.1843" y1="72.9891" x2="66.7973" y2="67.8832" gradientUnits="userSpaceOnUse">
<stop stop-color="#FFD95F"/>
<stop offset="0.1554" stop-color="#FDD056"/>
<stop offset="0.4209" stop-color="#F6BB3F"/>
<stop offset="0.7581" stop-color="#ED9A22"/>
<stop offset="0.8021" stop-color="#EA9523"/>
<stop offset="0.86" stop-color="#E48926"/>
<stop offset="0.9257" stop-color="#D97629"/>
<stop offset="0.9967" stop-color="#CC592C"/>
<stop offset="1" stop-color="#CB582C"/>
</linearGradient>
<linearGradient id="paint17_linear" x1="65.4329" y1="69.3212" x2="65.5185" y2="69.1416" gradientUnits="userSpaceOnUse">
<stop stop-color="#FFD95F"/>
<stop offset="0.1554" stop-color="#FDD056"/>
<stop offset="0.4209" stop-color="#F6BB3F"/>
<stop offset="0.7581" stop-color="#ED9A22"/>
<stop offset="0.8023" stop-color="#E89422"/>
<stop offset="0.8605" stop-color="#DD8524"/>
<stop offset="0.9266" stop-color="#CE7026"/>
<stop offset="0.998" stop-color="#BB5227"/>
<stop offset="1" stop-color="#BB5127"/>
</linearGradient>
<linearGradient id="paint18_linear" x1="57.1168" y1="81.1034" x2="52.4741" y2="72.1355" gradientUnits="userSpaceOnUse">
<stop stop-color="#C83192"/>
<stop offset="1" stop-color="#562F88"/>
</linearGradient>
<linearGradient id="paint19_linear" x1="50.0358" y1="76.9627" x2="62.9904" y2="76.9627" gradientUnits="userSpaceOnUse">
<stop stop-color="#4C2E84"/>
<stop offset="0.1655" stop-color="#4F2E85"/>
<stop offset="0.3309" stop-color="#583087"/>
<stop offset="0.4964" stop-color="#66358B"/>
<stop offset="0.661" stop-color="#7A3C92"/>
<stop offset="0.7807" stop-color="#8B439A"/>
</linearGradient>
</defs>
<path d="M22.2792 127.884C-13.1637 94.0755 32.7699 28.2062 65.1487 18.8973C134.159 -11.3042 181.592 28.1024 185.984 68.9589C190.266 108.798 149.225 114.238 122.438 117.117C95.6516 119.997 57.7222 161.693 22.2792 127.884Z" fill="url(#paint0_linear)" fill-opacity="0.5"/>
<path d="M162.72 147.511C172.277 147.511 180.025 139.771 180.025 130.222C180.025 120.673 172.277 112.933 162.72 112.933C153.162 112.933 145.414 120.673 145.414 130.222C145.414 139.771 153.162 147.511 162.72 147.511Z" fill="#C4C4C4" fill-opacity="0.3"/>
<circle cx="163.517" cy="129.96" r="7.86682" fill="#F8F8F9"/>
<path fill-rule="evenodd" clip-rule="evenodd" d="M162.719 147.511C172.277 147.511 180.024 139.771 180.024 130.222C180.024 120.673 172.277 112.933 162.719 112.933C153.167 112.933 145.42 120.673 145.42 130.222C145.42 139.771 153.167 147.511 162.719 147.511ZM162.719 136.806C166.362 136.806 169.316 133.862 169.316 130.222C169.316 126.589 166.362 123.638 162.719 123.638C159.082 123.638 156.128 126.589 156.128 130.222C156.128 133.862 159.082 136.806 162.719 136.806Z" fill="#777777"/>
<path fill-rule="evenodd" clip-rule="evenodd" d="M162.719 147.511C172.277 147.511 180.024 139.771 180.024 130.222C180.024 120.673 172.277 112.933 162.719 112.933C153.167 112.933 145.42 120.673 145.42 130.222C145.42 139.771 153.167 147.511 162.719 147.511ZM162.719 136.806C166.362 136.806 169.316 133.862 169.316 130.222C169.316 126.589 166.362 123.638 162.719 123.638C159.082 123.638 156.128 126.589 156.128 130.222C156.128 133.862 159.082 136.806 162.719 136.806Z" fill="url(#paint1_linear)"/>
<circle cx="71.516" cy="129.96" r="7.86682" fill="#F8F8F9"/>
<path d="M71.9832 147.511C81.5408 147.511 89.2887 139.771 89.2887 130.222C89.2887 120.673 81.5408 112.933 71.9832 112.933C62.4257 112.933 54.6777 120.673 54.6777 130.222C54.6777 139.771 62.4257 147.511 71.9832 147.511Z" fill="#C4C4C4" fill-opacity="0.3"/>
<path fill-rule="evenodd" clip-rule="evenodd" d="M71.9832 147.511C81.5417 147.511 89.2887 139.771 89.2887 130.222C89.2887 120.673 81.5417 112.933 71.9832 112.933C62.4248 112.933 54.6777 120.673 54.6777 130.222C54.6777 139.771 62.4248 147.511 71.9832 147.511ZM71.9832 136.806C75.6199 136.806 78.5738 133.862 78.5738 130.222C78.5738 126.589 75.6199 123.638 71.9832 123.638C68.3396 123.638 65.3926 126.589 65.3926 130.222C65.3926 133.862 68.3396 136.806 71.9832 136.806Z" fill="#777777"/>
<path fill-rule="evenodd" clip-rule="evenodd" d="M71.9832 147.511C81.5417 147.511 89.2887 139.771 89.2887 130.222C89.2887 120.673 81.5417 112.933 71.9832 112.933C62.4248 112.933 54.6777 120.673 54.6777 130.222C54.6777 139.771 62.4248 147.511 71.9832 147.511ZM71.9832 136.806C75.6199 136.806 78.5738 133.862 78.5738 130.222C78.5738 126.589 75.6199 123.638 71.9832 123.638C68.3396 123.638 65.3926 126.589 65.3926 130.222C65.3926 133.862 68.3396 136.806 71.9832 136.806Z" fill="url(#paint2_linear)"/>
<path d="M170.38 83.5043C170.38 77.087 166.409 75.3678 162.877 73.6556L165.524 92.9215C167.14 91.9262 170.38 88.6409 170.38 83.5043Z" fill="white"/>
<path d="M170.38 83.5043C170.38 77.087 166.409 75.3678 162.877 73.6556L165.524 92.9215C167.14 91.9262 170.38 88.6409 170.38 83.5043Z" fill="url(#paint3_linear)"/>
<path d="M168.241 74.8165C168.241 76.0485 167.28 86.2104 167.705 92.3841C165.023 95.0638 158.613 99.219 155.917 95.5997C152.545 91.0686 153.075 74.8165 154.761 72.3457C156.447 69.8748 168.241 73.5776 168.241 74.8165Z" fill="white"/>
<path d="M168.241 74.8165C168.241 76.0485 167.28 86.2104 167.705 92.3841C165.023 95.0638 158.613 99.219 155.917 95.5997C152.545 91.0686 153.075 74.8165 154.761 72.3457C156.447 69.8748 168.241 73.5776 168.241 74.8165Z" fill="url(#paint4_linear)"/>
<path d="M173.48 114.041C168.304 108.716 159.895 104.213 153.493 104.7C150.427 107.484 145.042 114.291 148.393 113.985C157.498 113.157 167.147 113.825 172.916 115.064C173.508 115.189 173.898 114.479 173.48 114.041Z" fill="url(#paint5_linear)"/>
<path d="M153.237 59.7394H148.952V71.516H153.237V59.7394Z" fill="#111111"/>
<path d="M153.237 59.7394H148.952V71.516H153.237V59.7394Z" fill="url(#paint6_linear)"/>
<path d="M148.08 90.1495C147.606 89.2934 143.001 76.4031 142.611 74.6839C142.221 72.9648 155.102 68.023 156.475 67.3827C157.84 66.7354 159.791 68.4476 159.206 69.0949C158.739 69.61 155.89 70.8837 154.517 71.4544C155.04 73.2501 156.705 77.6003 159.206 80.6976C162.968 85.3539 162.034 103.645 160.279 106.436C158.523 109.227 150.706 132.864 145.049 135.446C139.385 138.022 99.3542 136.303 92.5198 135.446C85.6854 134.583 83.1773 126.113 75.9528 119.877C68.7282 113.647 67.5926 114.301 64.6596 110C61.7335 105.706 63.8793 98.3973 66.4222 98.3973C68.9581 98.3973 113.657 100.416 114.054 103.43C114.444 106.436 113.072 109.443 112.096 113.097C111.121 116.751 113.114 127.282 119.467 127.282H130.99C132.161 127.282 148.665 91.2283 148.08 90.1495Z" fill="#F7F7F7"/>
<path d="M148.08 90.1495C147.606 89.2934 143.001 76.4031 142.611 74.6839C142.221 72.9648 155.102 68.023 156.475 67.3827C157.84 66.7354 159.791 68.4476 159.206 69.0949C158.739 69.61 155.89 70.8837 154.517 71.4544C155.04 73.2501 156.705 77.6003 159.206 80.6976C162.968 85.3539 162.034 103.645 160.279 106.436C158.523 109.227 150.706 132.864 145.049 135.446C139.385 138.022 99.3542 136.303 92.5198 135.446C85.6854 134.583 83.1773 126.113 75.9528 119.877C68.7282 113.647 67.5926 114.301 64.6596 110C61.7335 105.706 63.8793 98.3973 66.4222 98.3973C68.9581 98.3973 113.657 100.416 114.054 103.43C114.444 106.436 113.072 109.443 112.096 113.097C111.121 116.751 113.114 127.282 119.467 127.282H130.99C132.161 127.282 148.665 91.2283 148.08 90.1495Z" fill="url(#paint7_linear)"/>
<path d="M65.3506 76.1595C65.2252 76.1595 65.0998 76.1735 64.9744 76.1805C65.0789 76.1665 65.1903 76.1595 65.2948 76.1595C65.3157 76.1595 65.3297 76.1595 65.3506 76.1595Z" fill="white"/>
<path d="M150.561 64.0203C152.631 64.0203 154.309 62.3438 154.309 60.2757C154.309 58.2076 152.631 56.5311 150.561 56.5311C148.491 56.5311 146.813 58.2076 146.813 60.2757C146.813 62.3438 148.491 64.0203 150.561 64.0203Z" fill="#111111"/>
<path d="M109.512 133.978C101.521 133.22 89.3917 108.831 86.7722 99.4766C76.74 98.7876 67.5299 98.3978 66.4222 98.3978C63.8793 98.3978 61.7335 105.706 64.6596 110C67.5926 114.302 68.7282 113.648 75.9527 119.877C83.1773 126.113 85.6853 134.584 92.5198 135.447C99.3542 136.303 139.385 138.022 145.049 135.447C145.725 135.141 146.436 134.521 147.16 133.679C142.931 133.846 117.746 134.765 109.512 133.978Z" fill="url(#paint8_linear)"/>
<path d="M63.6567 100.52C58.8984 98.8982 62.7929 96.9285 63.6567 95.5086C65.8234 92.0564 79.1718 91.9311 91.503 92.9473C103.841 93.9635 111.296 95.9054 115.19 97.1234C119.085 98.3414 118.604 103.081 114.709 103.492C110.822 103.889 68.4151 102.149 63.6567 100.52Z" fill="#111111"/>
<path d="M75.5492 93.2809C78.1129 93.9978 80.9136 54.9023 78.3428 53.218C75.7791 51.5406 34.048 48.666 33.1145 52.9813C32.1809 57.2966 31.2474 87.2812 34.048 90.643C36.8417 93.9978 72.9854 92.557 75.5492 93.2809Z" fill="white"/>
<path d="M75.5492 93.2809C78.1129 93.9978 80.9136 54.9023 78.3428 53.218C75.7791 51.5406 34.048 48.666 33.1145 52.9813C32.1809 57.2966 31.2474 87.2812 34.048 90.643C36.8417 93.9978 72.9854 92.557 75.5492 93.2809Z" fill="url(#paint9_linear)"/>
<path fill-rule="evenodd" clip-rule="evenodd" d="M79.2971 58.3196H32.5779C32.7381 55.7792 32.9262 53.8582 33.1143 52.9812C34.0479 48.6658 74.0372 49.2087 77.3952 51.5543C79.0672 52.7097 79.1717 55.4868 79.2971 58.3196Z" fill="url(#paint10_linear)"/>
<path d="M38.9324 96.0317H73.7942C74.6093 96.0317 75.2712 95.3705 75.2712 94.5561C75.2712 93.7418 74.6093 93.0806 73.7942 93.0806H38.9324C38.1173 93.0806 37.4554 93.7418 37.4554 94.5561C37.4554 95.3705 38.1173 96.0317 38.9324 96.0317Z" fill="white"/>
<path d="M38.9324 96.0317H73.7942C74.6093 96.0317 75.2712 95.3705 75.2712 94.5561C75.2712 93.7418 74.6093 93.0806 73.7942 93.0806H38.9324C38.1173 93.0806 37.4554 93.7418 37.4554 94.5561C37.4554 95.3705 38.1173 96.0317 38.9324 96.0317Z" fill="url(#paint11_linear)"/>
<path d="M144.234 76.388L158.78 69.4348C159.512 69.0868 159.825 68.2029 159.47 67.4721C159.122 66.7412 158.237 66.428 157.505 66.783L142.959 73.7362C142.227 74.0842 141.914 74.9682 142.269 75.699C142.617 76.4298 143.502 76.7361 144.234 76.388Z" fill="url(#paint12_linear)"/>
<path d="M142.647 74.6237C143.037 76.3428 147.643 89.2331 148.116 90.0892C148.701 91.1681 132.197 127.222 131.027 127.222C137.966 127.25 140.752 120.61 144.981 110.698C149.21 100.78 154.386 93.1517 151.467 85.3076C148.165 76.4194 146.409 72.1667 146.27 71.8466C144.11 72.9532 142.508 74.0042 142.647 74.6237Z" fill="url(#paint13_linear)"/>
<path d="M32.5161 58.2045L41.0365 58.5386C38.9325 96.0262 46.7283 92.1911 59.3173 93.0055C59.3173 93.0055 39.9845 92.8454 34.5713 91.0984C31.0322 89.9569 32.5161 58.2045 32.5161 58.2045Z" fill="url(#paint14_linear)"/>
<path d="M46.8689 74.5897C46.8689 74.5897 49.5581 70.2327 55.5634 69.2791C55.5634 69.2791 58.6079 68.778 60.6771 71.1862C60.6771 71.1862 57.5281 70.873 55.0061 72.6479C55.0061 72.6479 53.989 73.4135 53.5291 73.7128C53.5291 73.7058 50.6379 75.766 46.8689 74.5897Z" fill="url(#paint15_linear)"/>
<path d="M65.8167 68.4279C63.6918 68.5323 61.8038 69.5694 60.6752 71.1772C61.2116 71.2328 61.7829 71.2746 62.3402 71.2537H62.389C62.7025 71.2398 63.016 71.212 63.3156 71.1702C64.7856 70.9684 66.165 70.4742 67.3772 69.7503C67.217 69.6111 67.0498 69.4998 66.8617 69.4093C66.5133 69.2353 66.1162 69.1448 65.6982 69.1517C65.7122 69.1517 65.7331 69.1518 65.747 69.1448C66.1929 69.1239 66.6318 69.1726 67.0428 69.284C67.2797 69.3466 67.5096 69.4302 67.7256 69.5346L67.7465 69.5415C68.0321 69.4093 68.3456 69.3258 68.68 69.3118C69.2722 69.284 69.8295 69.465 70.2754 69.7921C68.5685 68.4557 66.5482 68.3931 65.8167 68.4279ZM65.322 69.1796C65.4265 69.1587 65.531 69.1448 65.6355 69.1448C65.6564 69.1448 65.6704 69.1448 65.6843 69.1448C65.5659 69.1448 65.4474 69.1587 65.322 69.1796Z" fill="url(#paint16_linear)"/>
<path d="M65.6566 69.2073C65.5312 69.2142 65.4127 69.2351 65.2943 69.256C65.3918 69.2351 65.4963 69.2212 65.6009 69.2073C65.6218 69.2073 65.6426 69.2073 65.6566 69.2073Z" fill="url(#paint17_linear)"/>
<path d="M65.7203 74.9306C65.7273 74.9097 65.5392 74.7566 65.5113 74.7357C65.4416 74.6731 65.365 74.6035 65.2953 74.5408C65.156 74.4225 65.0167 74.3042 64.8704 74.1998C64.5987 73.991 64.313 73.7961 64.0135 73.6221C63.3725 73.2393 62.6758 72.933 61.9652 72.7172C61.4706 72.5641 60.969 72.4458 60.4534 72.3971C56.3779 71.9795 54.3018 74.0466 52.1351 75.2856C47.7948 77.7564 43.1619 76.963 43.1619 76.963C46.6174 78.9536 50.0032 77.7912 50.0032 77.7912C50.0241 77.7843 50.045 77.7773 50.0659 77.7704C50.052 77.7704 50.045 77.7773 50.0311 77.7773C50.1356 77.7077 51.2782 76.615 52.7064 76.0094C55.1238 74.9793 59.1506 74.3807 62.9893 78.0696C65.1003 77.0047 65.7203 74.9306 65.7203 74.9306Z" fill="url(#paint18_linear)"/>
<path d="M62.9886 78.062C59.1499 74.3731 55.1231 74.9787 52.7056 76.0018C51.2774 76.6073 50.1419 77.7001 50.0304 77.7697C50.0443 77.7697 50.0513 77.7627 50.0652 77.7627C50.6922 77.5748 51.1869 77.2895 51.7233 77.1154C56.5025 75.5564 59.8954 78.6884 59.8954 78.6884C61.651 78.8346 62.9886 78.062 62.9886 78.062Z" fill="url(#paint19_linear)"/>
</svg>
