<svg width="32" height="32" viewBox="0 0 32 32" fill="none" xmlns="http://www.w3.org/2000/svg">
<path d="M15.3674 3.22058C15.5706 2.61397 16.4286 2.61397 16.6317 3.22058L19.2108 10.9214C19.3011 11.1911 19.5526 11.3738 19.8369 11.3764L27.9579 11.4495C28.5976 11.4553 28.8627 12.2713 28.3486 12.6519L21.8216 17.4844C21.593 17.6537 21.497 17.9493 21.5824 18.2205L24.0224 25.9666C24.2146 26.5768 23.5204 27.0811 22.9995 26.7097L16.3866 21.9955C16.155 21.8305 15.8442 21.8305 15.6126 21.9955L8.99965 26.7097C8.47874 27.0811 7.7846 26.5768 7.9768 25.9666L10.4168 18.2205C10.5022 17.9493 10.4062 17.6537 10.1776 17.4845L3.6506 12.6519C3.13646 12.2713 3.4016 11.4553 4.04129 11.4495L12.1622 11.3764C12.4466 11.3738 12.6981 11.1911 12.7884 10.9214L15.3674 3.22058Z" fill="#E7DDEF"/>
<path fill-rule="evenodd" clip-rule="evenodd" d="M14.1035 2.79846C14.7129 0.978645 17.2869 0.978633 17.8964 2.79846L20.3245 10.0487L27.9702 10.1175C29.8893 10.1348 30.6847 12.5828 29.1423 13.7248L22.9973 18.2745L25.2945 25.5673C25.8711 27.3978 23.7886 28.9108 22.2259 27.7967L15.9999 23.3584L9.77397 27.7967C8.21125 28.9108 6.12882 27.3978 6.70542 25.5673L9.00259 18.2745L2.85756 13.7248C1.31515 12.5828 2.11055 10.1348 4.02964 10.1175L11.6753 10.0487L14.1035 2.79846ZM15.9999 5.53288L14.053 11.3462C13.7821 12.1552 13.0277 12.7033 12.1746 12.711L6.0442 12.7662L10.9713 16.4142C11.657 16.9219 11.9452 17.8087 11.6888 18.6224L9.84695 24.4698L14.839 20.9111C15.5337 20.4159 16.4662 20.4159 17.1609 20.9111L22.1529 24.4698L20.311 18.6224C20.0547 17.8086 20.3428 16.9219 21.0285 16.4142L25.9557 12.7662L19.8253 12.711C18.9721 12.7033 18.2178 12.1552 17.9468 11.3462L15.9999 5.53288Z" fill="#8A48B8"/>
</svg>
