<svg width="18" height="23" viewBox="0 0 18 23" fill="none" xmlns="http://www.w3.org/2000/svg">
<path d="M9 11.2271C7.7625 11.2271 6.75 10.2371 6.75 9.02705C6.75 7.81705 7.7625 6.82705 9 6.82705C10.2375 6.82705 11.25 7.81705 11.25 9.02705C11.25 10.2371 10.2375 11.2271 9 11.2271ZM15.75 9.24705C15.75 5.25405 12.7688 2.42705 9 2.42705C5.23125 2.42705 2.25 5.25405 2.25 9.24705C2.25 11.8211 4.44375 15.2311 9 19.3011C13.5563 15.2311 15.75 11.8211 15.75 9.24705ZM9 0.227051C13.725 0.227051 18 3.76905 18 9.24705C18 12.8991 14.9963 17.2221 9 22.2271C3.00375 17.2221 0 12.8991 0 9.24705C0 3.76905 4.275 0.227051 9 0.227051Z" fill="#837B8F"/>
</svg>
