<svg width="22" height="18" viewBox="0 0 22 18" fill="none" xmlns="http://www.w3.org/2000/svg">
<path fill-rule="evenodd" clip-rule="evenodd" d="M13 0H2C0.9 0 0 0.9 0 2V16C0 17.1 0.9 18 2 18H13C14.1 18 15 17.1 15 16V14C15 13.45 14.55 13 14 13C13.45 13 13 13.45 13 14V15C13 15.55 12.55 16 12 16H3C2.45 16 2 15.55 2 15V3C2 2.45 2.45 2 3 2H12C12.55 2 13 2.45 13 3V4C13 4 13 5 14 5C14.55 5 15 4.55 15 4V2C15 0.9 14.11 0 13 0ZM16.7075 4.58076C16.974 4.31427 17.7275 4.19076 18.1175 4.58076L19.9125 6.37576L21.7075 8.17076C22.0975 8.56076 22.0975 9.19076 21.7075 9.58076L19.9125 11.3758L18.1175 13.1708C17.7275 13.5608 17.0975 13.5608 16.7075 13.1708C16.3175 12.7808 16.3175 12.1508 16.7075 11.7608L18.5875 9.87076H9.91748C9.36748 9.87076 8.91748 9.42076 8.91748 8.87076C8.91748 8.32076 9.36748 7.87076 9.91748 7.87076L18.5875 7.87076L16.7075 5.99076C16.3175 5.60076 16.441 4.84724 16.7075 4.58076Z" fill="#1D0F33"/>
</svg>
