<svg width="24" height="24" viewBox="0 0 24 24" fill="none" xmlns="http://www.w3.org/2000/svg">
<path d="M0 0H24V24H0V0Z" fill="white"/>
<path fill-rule="evenodd" clip-rule="evenodd" d="M7 3C5.34315 3 4 4.34315 4 6V18C4 19.6569 5.34315 21 7 21H13C14.6569 21 16 19.6569 16 18V17C16 16.4477 15.5523 16 15 16C14.4477 16 14 16.4477 14 17V18C14 18.5523 13.5523 19 13 19H7C6.44772 19 6 18.5523 6 18V6C6 5.44772 6.44772 5 7 5H13C13.5523 5 14 5.44772 14 6V7C14 7.55228 14.4477 8 15 8C15.5523 8 16 7.55228 16 7V6C16 4.34315 14.6569 3 13 3H7ZM10 11C9.44772 11 9 11.4477 9 12C9 12.5523 9.44772 13 10 13H18.5858L17.2929 14.2929C16.9024 14.6834 16.9024 15.3166 17.2929 15.7071C17.6834 16.0976 18.3166 16.0976 18.7071 15.7071L21.7071 12.7071C21.8881 12.5261 22 12.2761 22 12C22 11.7239 21.8881 11.4739 21.7071 11.2929L18.7071 8.29289C18.3166 7.90237 17.6834 7.90237 17.2929 8.29289C16.9024 8.68342 16.9024 9.31658 17.2929 9.70711L18.5858 11H10Z" fill="#8A48B8"/>
</svg>
