<svg width="24" height="24" viewBox="0 0 24 24" fill="none" xmlns="http://www.w3.org/2000/svg">
<path d="M5 18.3102L8 17.1502V5.4502L5 6.4602V18.3102ZM16 18.5502L19 17.5402V5.6902L16 6.8602V18.5502Z" fill="#E7DDEF"/>
<path d="M20.5 3L20.34 3.03L15 5.1L9 3L3.36 4.9C3.15 4.97 3 5.15 3 5.38V20.5C3 20.78 3.22 21 3.5 21L3.66 20.97L9 18.9L15 21L20.64 19.1C20.85 19.03 21 18.85 21 18.62V3.5C21 3.22 20.78 3 20.5 3ZM8 17.15L5 18.31V6.46L8 5.45V17.15ZM14 18.53L10 17.13V5.47L14 6.87V18.53ZM19 17.54L16 18.55V6.86L19 5.7V17.54Z" fill="#8647B3"/>
</svg>
