<svg width="19" height="19" viewBox="0 0 19 19" fill="none" xmlns="http://www.w3.org/2000/svg">
<path fill-rule="evenodd" clip-rule="evenodd" d="M2.5 0H13.5C14.8807 0 16 1.11929 16 2.5V3H16.5C18.2066 3 19 4.52097 19 5.6V16.3999C19 17.479 18.2066 18.9999 16.5 18.9999H15L13.5 19H2.5C1.11929 19 0 17.8807 0 16.5V2.5C0 1.11929 1.11929 0 2.5 0ZM16 16.3999V5.49994C16 5.2238 16.2239 5 16.5 5C16.7477 5 16.9534 5.2162 16.9931 5.49994C16.9976 5.53248 17 5.56591 17 5.6V16.3999C17 16.7313 16.7761 16.9999 16.5 16.9999C16.2239 16.9999 16 16.7313 16 16.3999ZM13.5 2C13.7761 2 14 2.22386 14 2.5V16.5C14 16.7761 14.1289 17 14.1289 17H2.5C2.22386 17 2 16.7761 2 16.5V2.5C2 2.22386 2.22386 2 2.5 2H13.5ZM5 6C4.44772 6 4 6.44772 4 7C4 7.55228 4.44772 8 5 8H8C8.55228 8 9 7.55228 9 7C9 6.44772 8.55228 6 8 6H5ZM4 10C4 9.44772 4.44772 9 5 9H11C11.5523 9 12 9.44772 12 10C12 10.5523 11.5523 11 11 11H5C4.44772 11 4 10.5523 4 10ZM5 12C4.44772 12 4 12.4477 4 13C4 13.5523 4.44772 14 5 14H11C11.5523 14 12 13.5523 12 13C12 12.4477 11.5523 12 11 12H5Z" fill="#615770"/>
</svg>
