<svg width="32" height="32" viewBox="0 0 32 32" fill="none" xmlns="http://www.w3.org/2000/svg">
<path d="M10.6665 12C10.6665 9.79086 12.4574 8 14.6665 8H17.3332C19.5423 8 21.3332 9.79086 21.3332 12V22.6667H10.6665V12Z" fill="#E7DDEF"/>
<path d="M25.7201 23.054L24.0001 21.334V14.6673C24.0001 10.574 21.8134 7.14732 18.0001 6.24065V5.33398C18.0001 4.22732 17.1067 3.33398 16.0001 3.33398C14.8934 3.33398 14.0001 4.22732 14.0001 5.33398V6.24065C10.1734 7.14732 8.00007 10.5607 8.00007 14.6673V21.334L6.28007 23.054C5.44007 23.894 6.02674 25.334 7.2134 25.334H24.7734C25.9734 25.334 26.5601 23.894 25.7201 23.054ZM21.3334 22.6673H10.6667V14.6673C10.6667 11.3607 12.6801 8.66732 16.0001 8.66732C19.3201 8.66732 21.3334 11.3607 21.3334 14.6673V22.6673ZM16.0001 29.334C17.4667 29.334 18.6667 28.134 18.6667 26.6673H13.3334C13.3334 28.134 14.5201 29.334 16.0001 29.334Z" fill="#8A48B8"/>
</svg>
