<svg width="24" height="24" viewBox="0 0 24 27" fill="none" xmlns="http://www.w3.org/2000/svg">
<path d="M5.33333 19H14.6667V21.6667H5.33333V19ZM5.33333 13.6667H18.6667V16.3333H5.33333V13.6667ZM5.33333 8.33334H18.6667V11H5.33333V8.33334ZM21.3333 3.00001H15.76C15.2 1.45334 13.7333 0.333344 12 0.333344C10.2667 0.333344 8.8 1.45334 8.24 3.00001H2.66667C2.48 3.00001 2.30667 3.01334 2.13333 3.05334C1.61333 3.16001 1.14667 3.42668 0.786667 3.78668C0.546667 4.02668 0.346667 4.32001 0.213333 4.64001C0.0800001 4.94668 0 5.29334 0 5.66668V24.3333C0 24.6933 0.0800001 25.0533 0.213333 25.3733C0.346667 25.6933 0.546667 25.9733 0.786667 26.2267C1.14667 26.5867 1.61333 26.8533 2.13333 26.96C2.30667 26.9867 2.48 27 2.66667 27H21.3333C22.8 27 24 25.8 24 24.3333V5.66668C24 4.20001 22.8 3.00001 21.3333 3.00001ZM12 2.66668C12.5467 2.66668 13 3.12001 13 3.66668C13 4.21334 12.5467 4.66668 12 4.66668C11.4533 4.66668 11 4.21334 11 3.66668C11 3.12001 11.4533 2.66668 12 2.66668ZM21.3333 24.3333H2.66667V5.66668H21.3333V24.3333Z" fill="#8A48B8"/>
</svg>
