<svg width="24" height="24" viewBox="0 0 24 24" fill="none" xmlns="http://www.w3.org/2000/svg">
<path d="M12 10C13.6569 10 15 8.65685 15 7C15 5.34315 13.6569 4 12 4C10.3431 4 9 5.34315 9 7C9 8.65685 10.3431 10 12 10Z" fill="#E7DDEF"/>
<path d="M12 14.5C8.6625 14.5 3 16.175 3 19.5V21C3 21.5523 3.44772 22 4 22H20C20.5523 22 21 21.5523 21 21V19.5C21 16.175 15.3375 14.5 12 14.5ZM12 12C14.7625 12 17 9.7625 17 7C17 4.2375 14.7625 2 12 2C9.2375 2 7 4.2375 7 7C7 9.7625 9.2375 12 12 12ZM12 4.5C13.375 4.5 14.5 5.625 14.5 7C14.5 8.375 13.375 9.5 12 9.5C10.625 9.5 9.5 8.375 9.5 7C9.5 5.625 10.625 4.5 12 4.5Z" fill="#8647B3"/>
<path d="M6 19C6 17.67 9.66375 17 12 17C14.3362 17 18 17.67 18 19V20H6V19Z" fill="#E7DDEF"/>
</svg>
