<svg width="18" height="16" viewBox="0 0 18 16" fill="none" xmlns="http://www.w3.org/2000/svg">
<path d="M17.3915 9.67346C17.1846 9.44446 16.9407 9.2083 16.6525 8.95782C16.5416 8.85763 16.4456 8.75744 16.3495 8.66441L15.6918 7.99886L17.2954 6.45308C17.5413 6.21819 17.7299 5.93311 17.8476 5.61864C17.9652 5.30417 18.0088 4.96824 17.9753 4.63535C17.9502 4.20274 17.7976 3.78616 17.5357 3.43486C17.2738 3.08357 16.9134 2.81226 16.4973 2.65303C16.0716 2.48292 15.6031 2.44053 15.1523 2.53137C14.7071 2.63259 14.3016 2.85626 13.9846 3.17544C13.0387 4.09146 12.1075 5.00987 11.1911 5.93066L10.9546 6.16682C10.8468 6.02045 10.7282 5.88174 10.5999 5.75175L5.6189 0.949799C5.24268 0.573518 4.7747 0.295001 4.25809 0.139918C3.74148 -0.0151643 3.19287 -0.0418213 2.66282 0.0624045C1.82982 0.209365 1.08915 0.665859 0.598963 1.33441C0.108781 2.00297 -0.0920683 2.83061 0.0392962 3.64061C0.154804 4.30581 0.483095 4.9191 0.97785 5.39393L1.98292 6.36005L2.78106 7.11862C2.99291 7.39578 3.09718 7.73634 3.07555 8.08052C3.05393 8.42471 2.9078 8.75052 2.66282 9.00076C2.08639 9.53749 1.51734 10.0957 0.93351 10.6539C0.638611 10.9542 0.407823 11.3079 0.254374 11.6947C0.100925 12.0816 0.027835 12.4939 0.0392962 12.9082C0.0364293 12.9558 0.0364293 13.0036 0.0392962 13.0513C0.0392962 13.1443 0.0392975 13.3018 0.0984192 13.4592C0.240724 14.1809 0.640882 14.831 1.22871 15.2956C1.81653 15.7601 2.55449 16.0094 3.31316 15.9997C3.7434 15.9967 4.16874 15.911 4.56454 15.7476C4.96033 15.5842 5.31871 15.3464 5.6189 15.0479L8.57499 12.1854L10.5629 10.2746C10.7007 10.1393 10.8268 9.99332 10.9398 9.83806L11.1246 9.93825L12.1075 10.9401C12.7652 11.5985 13.4303 12.2569 14.0881 12.9225C14.1878 13.0189 14.2995 13.1031 14.4206 13.1729C14.7585 13.3901 15.1533 13.5093 15.5587 13.5165C15.8087 13.5164 16.0574 13.4827 16.2977 13.4163C16.6766 13.314 17.0222 13.1196 17.3016 12.8516C17.581 12.5835 17.7849 12.2507 17.894 11.8848C18.0154 11.5056 18.0328 11.1024 17.9447 10.7148C17.8566 10.3271 17.666 9.96827 17.3915 9.67346ZM3.30577 14.3609C2.94269 14.368 2.58855 14.2516 2.30498 14.0319C2.02141 13.8122 1.82638 13.5032 1.75382 13.1586C1.75382 13.0584 1.75382 12.9654 1.75382 12.9153C1.74738 12.7156 1.78194 12.5165 1.85552 12.3298C1.9291 12.1431 2.04023 11.9724 2.18246 11.8275C2.74411 11.2693 3.30577 10.7183 3.87481 10.1887C4.41599 9.65986 4.74457 8.96139 4.80147 8.21889C4.85836 7.4764 4.63984 6.73861 4.1852 6.1382C4.10634 6.04124 4.01987 5.95032 3.92655 5.86625L2.18985 4.21312C1.94159 3.97826 1.77829 3.67203 1.72426 3.34004C1.68026 2.95897 1.78689 2.5759 2.02271 2.26788C2.25854 1.95986 2.60606 1.74973 2.99538 1.67975C3.10844 1.66943 3.22226 1.66943 3.33533 1.67975C3.54435 1.67895 3.7513 1.71984 3.94329 1.79987C4.13527 1.8799 4.30818 1.99735 4.45125 2.14492L9.40269 6.91824C9.55425 7.0593 9.67541 7.22808 9.75913 7.4148C9.84286 7.60152 9.88749 7.80248 9.89044 8.00602C9.88613 8.21 9.84015 8.41115 9.75517 8.59784C9.67019 8.78454 9.54788 8.95309 9.3953 9.09379L7.4295 11.0046L4.47342 13.8671C4.33018 14.015 4.1574 14.1331 3.96556 14.2143C3.77373 14.2955 3.56685 14.3381 3.3575 14.3394L3.30577 14.3609ZM16.076 5.30805L15.9356 5.44402L14.162 7.21881L13.992 7.40488L14.2728 7.64104L13.9403 7.46213C13.8255 7.59071 13.7546 7.75055 13.7374 7.91969C13.7202 8.08883 13.7575 8.25899 13.8442 8.40678L14.162 8.22787L13.8885 8.50697C13.9268 8.57864 13.9767 8.64388 14.0363 8.70019L14.4798 9.15104L15.167 9.86669C15.3075 10.0098 15.4405 10.1315 15.5883 10.2746C15.7361 10.4177 15.9356 10.6038 16.1056 10.797C16.1879 10.886 16.2459 10.9935 16.2743 11.1098C16.3027 11.226 16.3006 11.3473 16.2682 11.4626C16.2396 11.5632 16.1854 11.6552 16.1105 11.7303C16.0356 11.8053 15.9424 11.8609 15.8396 11.8919C15.7533 11.9241 15.6606 11.9369 15.5684 11.9295C15.4763 11.9221 15.3871 11.8945 15.3075 11.849L13.3417 9.81659L12.3366 8.82185C12.2553 8.73597 12.174 8.66441 12.0927 8.58569L11.8636 8.38531C11.8125 8.33526 11.7811 8.26941 11.7749 8.19924C11.7373 8.08444 11.7326 7.96191 11.7612 7.8447C11.7898 7.72749 11.8508 7.62 11.9375 7.5337L12.4105 7.07569C13.3417 6.15251 14.2433 5.24365 15.1744 4.33478C15.2579 4.24087 15.3686 4.17353 15.4922 4.14156C15.6176 4.13058 15.7435 4.15546 15.8543 4.21312C15.9815 4.25549 16.0915 4.33582 16.1685 4.44255C16.2455 4.54928 16.2856 4.67692 16.283 4.8071C16.289 4.90023 16.2735 4.99349 16.2377 5.08012C16.2019 5.16676 16.1467 5.24461 16.076 5.30805Z" fill="#8A48B8"/>
</svg>
