<svg width="20" height="17" viewBox="0 0 20 17" fill="none" xmlns="http://www.w3.org/2000/svg">
<path d="M18.3936 10.6716C18.1865 10.4425 17.9425 10.2063 17.654 9.95573C17.5431 9.85551 17.447 9.75529 17.3508 9.66222L16.6927 8.99645L18.2974 7.45014C18.5435 7.21517 18.7322 6.93 18.8499 6.61542C18.9676 6.30084 19.0113 5.96479 18.9778 5.6318C18.9526 5.19904 18.8 4.78232 18.5379 4.4309C18.2757 4.07949 17.9152 3.80809 17.4987 3.6488C17.0728 3.47863 16.6039 3.43623 16.1528 3.5271C15.7073 3.62835 15.3016 3.8521 14.9844 4.17139C14.0378 5.08772 13.106 6.00644 12.189 6.92755L11.9523 7.16379C11.8444 7.01737 11.7257 6.87861 11.5973 6.74857L6.61296 1.94499C6.23648 1.56859 5.76818 1.28997 5.25122 1.13484C4.73426 0.979704 4.18527 0.953038 3.65487 1.0573C2.8213 1.20431 2.08012 1.66096 1.58961 2.32974C1.09909 2.99852 0.898103 3.82644 1.02956 4.63672C1.14514 5.30215 1.47366 5.91564 1.96875 6.39063L2.9745 7.35708L3.77319 8.11591C3.98518 8.39316 4.08952 8.73384 4.06788 9.07814C4.04624 9.42244 3.90002 9.74836 3.65487 9.99869C3.07804 10.5356 2.5086 11.094 1.92438 11.6524C1.62928 11.9528 1.39833 12.3066 1.24478 12.6936C1.09123 13.0805 1.01809 13.493 1.02956 13.9074C1.02669 13.9551 1.02669 14.0029 1.02956 14.0506C1.02956 14.1437 1.02956 14.3011 1.08872 14.4586C1.23112 15.1806 1.63155 15.8309 2.21978 16.2956C2.808 16.7603 3.54647 17.0097 4.30565 17C4.73618 16.997 5.16182 16.9113 5.55788 16.7478C5.95394 16.5844 6.31257 16.3465 6.61296 16.0479L9.57106 13.1844L11.5604 11.273C11.6982 11.1376 11.8244 10.9916 11.9375 10.8363L12.1224 10.9365L13.106 11.9387C13.7642 12.5973 14.4297 13.256 15.0879 13.9217C15.1877 14.0182 15.2995 14.1024 15.4207 14.1723C15.7587 14.3895 16.1539 14.5087 16.5596 14.5159C16.8097 14.5158 17.0586 14.4821 17.2991 14.4157C17.6782 14.3134 18.024 14.119 18.3036 13.8508C18.5832 13.5827 18.7873 13.2497 18.8964 12.8837C19.0179 12.5044 19.0353 12.1011 18.9472 11.7133C18.859 11.3255 18.6682 10.9665 18.3936 10.6716ZM4.29825 15.3607C3.93493 15.3677 3.58055 15.2513 3.29679 15.0315C3.01302 14.8118 2.81786 14.5027 2.74525 14.158C2.74525 14.0577 2.74525 13.9647 2.74525 13.9146C2.7388 13.7147 2.77339 13.5157 2.84702 13.3289C2.92065 13.1421 3.03185 12.9713 3.17418 12.8264C3.73621 12.268 4.29825 11.7168 4.86769 11.1871C5.40923 10.658 5.73803 9.9593 5.79497 9.21656C5.8519 8.47381 5.63324 7.73577 5.17828 7.13515C5.09937 7.03816 5.01284 6.94721 4.91945 6.86312L3.18157 5.20942C2.93315 4.97448 2.76973 4.66815 2.71567 4.33605C2.67164 3.95485 2.77834 3.57165 3.01432 3.26352C3.25031 2.95539 3.59807 2.74519 3.98765 2.6752C4.10079 2.66487 4.21469 2.66487 4.32783 2.6752C4.53699 2.67439 4.74409 2.7153 4.9362 2.79535C5.12832 2.87541 5.30135 2.99291 5.44451 3.14052L10.3993 7.91546C10.551 8.05657 10.6722 8.2254 10.756 8.41219C10.8398 8.59897 10.8845 8.79999 10.8874 9.00361C10.8831 9.20766 10.8371 9.40887 10.752 9.59563C10.667 9.78239 10.5446 9.951 10.3919 10.0918L8.42479 12.0032L5.4667 14.8667C5.32336 15.0146 5.15046 15.1328 4.9585 15.214C4.76653 15.2952 4.55951 15.3378 4.35002 15.3392L4.29825 15.3607ZM17.0772 6.30473L16.9367 6.44074L15.1619 8.21614L14.9918 8.40227L15.2728 8.63851L14.94 8.45954C14.8251 8.58816 14.7542 8.74805 14.737 8.91725C14.7198 9.08645 14.7571 9.25666 14.8439 9.4045L15.1619 9.22553L14.8882 9.50473C14.9265 9.57642 14.9764 9.64169 15.0361 9.69801L15.4798 10.149L16.1676 10.8649C16.3081 11.0081 16.4412 11.1298 16.5891 11.273C16.737 11.4161 16.9367 11.6023 17.1068 11.7956C17.1892 11.8846 17.2472 11.9921 17.2756 12.1084C17.304 12.2247 17.3019 12.346 17.2695 12.4613C17.2409 12.562 17.1867 12.6541 17.1117 12.7291C17.0368 12.8042 16.9435 12.8598 16.8406 12.8909C16.7542 12.923 16.6615 12.9358 16.5693 12.9284C16.4771 12.921 16.3878 12.8934 16.3081 12.8479L14.341 10.8148L13.3352 9.81971C13.2539 9.73381 13.1725 9.66222 13.0912 9.58347L12.8619 9.38303C12.8107 9.33296 12.7793 9.26709 12.7732 9.1969C12.7355 9.08206 12.7308 8.95948 12.7594 8.84223C12.7881 8.72499 12.8491 8.61746 12.9359 8.53112L13.4092 8.07296C14.341 7.14947 15.2432 6.2403 16.175 5.33112C16.2585 5.23718 16.3693 5.16982 16.493 5.13784C16.6184 5.12685 16.7444 5.15174 16.8554 5.20942C16.9826 5.25181 17.0927 5.33216 17.1697 5.43893C17.2468 5.5457 17.2869 5.67338 17.2843 5.80361C17.2903 5.89677 17.2748 5.99005 17.239 6.07672C17.2032 6.16339 17.1479 6.24126 17.0772 6.30473Z" fill="#1D0F33"/>
</svg>
