<svg width="40" height="40" viewBox="0 0 40 40" fill="none" xmlns="http://www.w3.org/2000/svg">
<defs>
<linearGradient id="paint0_linear" x1="28.8002" y1="29.2543" x2="13.1199" y2="23.7885" gradientUnits="userSpaceOnUse">
<stop stop-color="#C83192"/>
<stop offset="1" stop-color="#562F88"/>
</linearGradient>
<linearGradient id="paint1_linear" x1="17.7158" y1="35.434" x2="32.9162" y2="25.0386" gradientUnits="userSpaceOnUse">
<stop stop-color="#FFD95F"/>
<stop offset="0.1554" stop-color="#FDD056"/>
<stop offset="0.4209" stop-color="#F6BB3F"/>
<stop offset="0.7581" stop-color="#ED9A22"/>
<stop offset="0.8021" stop-color="#EA9523"/>
<stop offset="0.86" stop-color="#E48926"/>
<stop offset="0.9257" stop-color="#D97629"/>
<stop offset="0.9967" stop-color="#CC592C"/>
<stop offset="1" stop-color="#CB582C"/>
</linearGradient>
<linearGradient id="paint2_linear" x1="11.9172" y1="14.9249" x2="10.026" y2="14.8516" gradientUnits="userSpaceOnUse">
<stop stop-color="#C83192"/>
<stop offset="1" stop-color="#562F88"/>
</linearGradient>
<linearGradient id="paint3_linear" x1="29.9787" y1="15.0303" x2="28.0875" y2="14.9571" gradientUnits="userSpaceOnUse">
<stop stop-color="#C83192"/>
<stop offset="1" stop-color="#562F88"/>
</linearGradient>
<linearGradient id="paint4_linear" x1="21.2824" y1="11.4475" x2="19.0309" y2="11.3603" gradientUnits="userSpaceOnUse">
<stop stop-color="#C83192"/>
<stop offset="1" stop-color="#562F88"/>
</linearGradient>
<linearGradient id="paint5_linear" x1="21.6289" y1="22.6951" x2="18.3765" y2="22.6004" gradientUnits="userSpaceOnUse">
<stop stop-color="#C83192"/>
<stop offset="1" stop-color="#562F88"/>
</linearGradient>
</defs>
<rect x="0.5" y="0.5" width="39" height="39" rx="19.5" fill="white" stroke="#EEEDEF"/>
<path d="M12.0965 28H27.9035C28.5091 28 29 28.4477 29 29C29 29.5523 28.5091 30 27.9035 30H12.0965C11.4909 30 11 29.5523 11 29C11 28.4477 11.4909 28 12.0965 28Z" fill="url(#paint0_linear)"/>
<path d="M11.498 15.5388L17.0834 19.2023L19.9999 12.3076L22.9164 19.2023L28.5018 15.5388L27.5018 26.6928H26.0889H13.911H12.498L11.498 15.5388Z" fill="url(#paint1_linear)"/>
<path d="M10.9694 15.6477C11.5047 15.6477 11.9387 15.2137 11.9387 14.6783C11.9387 14.143 11.5047 13.709 10.9694 13.709C10.434 13.709 10 14.143 10 14.6783C10 15.2137 10.434 15.6477 10.9694 15.6477Z" fill="url(#paint2_linear)"/>
<path d="M29.0309 15.7532C29.5663 15.7532 30.0002 15.3192 30.0002 14.7838C30.0002 14.2485 29.5663 13.8145 29.0309 13.8145C28.4955 13.8145 28.0615 14.2485 28.0615 14.7838C28.0615 15.3192 28.4955 15.7532 29.0309 15.7532Z" fill="url(#paint3_linear)"/>
<path d="M20.154 12.308C20.7913 12.308 21.308 11.7913 21.308 11.154C21.308 10.5167 20.7913 10 20.154 10C19.5167 10 19 10.5167 19 11.154C19 11.7913 19.5167 12.308 20.154 12.308Z" fill="url(#paint4_linear)"/>
<path d="M19.9999 19.916L20.8308 21.0239L21.6659 22.1317L20.8308 23.2395L19.9999 24.3474L19.1691 23.2395L18.334 22.1317L19.1691 21.0239L19.9999 19.916Z" fill="url(#paint5_linear)"/>
</svg>
