<svg width="14" height="14" viewBox="0 0 19 18" fill="none" xmlns="http://www.w3.org/2000/svg">
<path fill-rule="evenodd" clip-rule="evenodd" d="M6.02894 12.2942C6.02894 11.1897 6.92437 10.2942 8.02894 10.2942H10.0289C11.1335 10.2942 12.0289 11.1897 12.0289 12.2942V16H15.999V8.9187C15.999 8.33553 15.7445 7.7814 15.3021 7.40144L9.01268 2L2.719 7.24236C2.26281 7.62235 1.99902 8.18537 1.99902 8.77909V16L6.02894 16V12.2942ZM7.67447 0.513663L0.685286 6.35573C0.262597 6.73629 0.0219318 7.27882 0.0235015 7.84758L0.0234375 16.0055C0.02648 17.1079 0.920703 18 2.02312 18L6.02927 18C7.13384 18 8.02894 17.1046 8.02894 16V12.2942H10.0289L10.0289 16C10.0289 17.1046 10.9244 18 12.0289 18H16.0289C17.1335 18 18.0289 17.1046 18.0289 16L18.051 8C18.051 7.44148 17.8175 6.9084 17.4069 6.52976L10.3685 0.529758C9.60937 -0.170369 8.44196 -0.177343 7.67447 0.513663Z" fill="#8A48B8"/>
</svg>
