<svg width="40" height="40" viewBox="0 0 40 40" fill="none" xmlns="http://www.w3.org/2000/svg">
<defs>
<linearGradient id="paint0_linear" x1="26.6218" y1="24.3159" x2="9.34012" y2="23.6478" gradientUnits="userSpaceOnUse">
<stop stop-color="#C83192"/>
<stop offset="1" stop-color="#562F88"/>
</linearGradient>
<linearGradient id="paint1_linear" x1="17.0448" y1="44.3974" x2="42.2446" y2="31.0031" gradientUnits="userSpaceOnUse">
<stop stop-color="#FFD95F"/>
<stop offset="0.1554" stop-color="#FDD056"/>
<stop offset="0.4209" stop-color="#F6BB3F"/>
<stop offset="0.7581" stop-color="#ED9A22"/>
<stop offset="0.8021" stop-color="#EA9523"/>
<stop offset="0.86" stop-color="#E48926"/>
<stop offset="0.9257" stop-color="#D97629"/>
<stop offset="0.9967" stop-color="#CC592C"/>
<stop offset="1" stop-color="#CB582C"/>
</linearGradient>
</defs>
<rect x="0.5" y="0.5" width="39" height="39" rx="19.5" fill="white" stroke="#EEEDEF"/>
<path fill-rule="evenodd" clip-rule="evenodd" d="M22.9492 14.7185C22.683 14.5333 22.4078 14.3631 22.1249 14.2085L22.1179 14.2156C20.8258 13.5391 19.382 13.1828 17.9111 13.1866C17.444 13.1877 16.9739 13.2252 16.5048 13.3003L12.3345 13.9699L10.5349 14.2554L9.10303 14.4574L11.3912 16.6893L11.3832 16.7005L16.1752 21.4925L17.0906 20.5771L12.9852 16.4717L16.9296 15.8384C18.0352 15.6609 19.1507 15.7803 20.171 16.1625L20.1589 16.1746C20.4702 16.2939 20.7726 16.4375 21.0628 16.6049L22.9492 14.7185ZM17.7977 21.2842L16.8823 22.1996L17.3535 22.6709L17.3534 22.671L17.7997 23.1174L18.7152 22.2019L18.2688 21.7556L18.2689 21.7554L17.7977 21.2842ZM19.4223 22.909L23.549 27.0357L24.1691 23.1096C24.3454 21.9932 24.2193 20.8675 23.8259 19.8406L23.8254 19.841C23.7061 19.5294 23.5623 19.2269 23.3948 18.9365L25.267 17.0643C25.4494 17.3336 25.6165 17.6118 25.7678 17.8974L25.7683 17.8976C26.4548 19.193 26.8184 20.643 26.8184 22.1213C26.8184 22.5885 26.7821 23.0586 26.7082 23.5279L26.0492 27.7L25.7683 29.5002L25.57 30.9326L23.2996 28.6168L23.2993 28.6169L18.5068 23.8245L19.4223 22.909ZM24.0807 16.8364L23.1845 17.7326C23.1547 17.6953 23.1235 17.6601 23.0909 17.6273L24.0151 16.772C24.0364 16.7936 24.0583 16.8151 24.0807 16.8364ZM23.1875 15.8944C23.2139 15.9225 23.2406 15.9499 23.2676 15.9763L22.4146 16.9026C22.3758 16.8642 22.3336 16.8278 22.2886 16.7933L23.1875 15.8944Z" fill="url(#paint0_linear)"/>
<path fill-rule="evenodd" clip-rule="evenodd" d="M30.9925 9.02549L30.9999 9L25.8447 10.4886L26.1123 12.9694L13.8153 25.2663L12.2214 24.811L9 28.0325L11.1563 28.8617L11.1565 28.8615L11.1562 28.8618L11.9855 31.018L15.2069 27.7966L14.7432 26.1736L27.0294 13.8874L29.5112 14.1551L30.9924 9.02558L30.9925 9.02549Z" fill="url(#paint1_linear)"/>
</svg>
