<svg width="24" height="24" viewBox="0 0 24 24" fill="none" xmlns="http://www.w3.org/2000/svg">
<path fill-rule="evenodd" clip-rule="evenodd" d="M8.95655 11.4962C10.3592 11.4962 11.4963 10.3591 11.4963 8.9564C11.4963 7.55369 10.3592 6.41657 8.95655 6.41657C7.55386 6.41657 6.41675 7.55369 6.41675 8.9564C6.41675 10.3591 7.55386 11.4962 8.95655 11.4962ZM9.93339 8.9564C9.93339 9.4959 9.49604 9.93325 8.95655 9.93325C8.41705 9.93325 7.9797 9.4959 7.9797 8.9564C7.9797 8.4169 8.41705 7.97954 8.95655 7.97954C9.49604 7.97954 9.93339 8.4169 9.93339 8.9564Z" fill="#615770"/>
<path fill-rule="evenodd" clip-rule="evenodd" d="M17.5525 15.013C17.5525 16.4157 16.4154 17.5528 15.0127 17.5528C13.61 17.5528 12.4729 16.4157 12.4729 15.013C12.4729 13.6103 13.61 12.4731 15.0127 12.4731C16.4154 12.4731 17.5525 13.6103 17.5525 15.013ZM15.0127 15.9898C15.5522 15.9898 15.9895 15.5525 15.9895 15.013C15.9895 14.4735 15.5522 14.0361 15.0127 14.0361C14.4732 14.0361 14.0359 14.4735 14.0359 15.013C14.0359 15.5525 14.4732 15.9898 15.0127 15.9898Z" fill="#615770"/>
<path d="M15.8989 9.46574C16.2804 9.08426 16.2804 8.46575 15.8989 8.08426C15.5175 7.70278 14.899 7.70278 14.5175 8.08426L8.08418 14.5176C7.7027 14.8991 7.7027 15.5176 8.08418 15.8991C8.46566 16.2806 9.08417 16.2806 9.46565 15.8991L15.8989 9.46574Z" fill="#615770"/>
<path fill-rule="evenodd" clip-rule="evenodd" d="M13.187 0.588781C12.4205 -0.19626 11.1579 -0.19626 10.3914 0.588781L8.11533 2.91972L4.85771 2.88092C3.76058 2.86785 2.86782 3.76061 2.88089 4.85776L2.91969 8.11541L0.588775 10.3915C-0.196258 11.158 -0.196258 12.4206 0.588775 13.1871L2.91969 15.4632L2.88089 18.7209C2.86782 19.818 3.76058 20.7108 4.85771 20.6977L8.11533 20.6589L10.3914 22.9898C11.1579 23.7749 12.4205 23.7749 13.187 22.9898L15.4631 20.6589L18.7207 20.6977C19.8178 20.7108 20.7106 19.818 20.6975 18.7209L20.6587 15.4632L22.9896 13.1872C23.7746 12.4206 23.7746 11.158 22.9896 10.3915L20.6587 8.11541L20.6975 4.85776C20.7106 3.76061 19.8178 2.86785 18.7207 2.88092L15.4631 2.91972L13.187 0.588781ZM9.51315 4.28465L11.7892 1.95371L14.0652 4.28465C14.4385 4.66693 14.9521 4.87966 15.4863 4.87329L18.7439 4.83449L18.7051 8.09214C18.6988 8.6264 18.9115 9.13996 19.2938 9.51325L21.6247 11.7893L19.2938 14.0654C18.9115 14.4387 18.6988 14.9522 18.7051 15.4865L18.7439 18.7441L15.4863 18.7053C14.9521 18.699 14.4385 18.9117 14.0652 19.294L11.7892 21.6249L9.51315 19.294C9.13987 18.9117 8.62632 18.699 8.09206 18.7053L4.83444 18.7441L4.87325 15.4865C4.87961 14.9522 4.66689 14.4387 4.28461 14.0654L1.95369 11.7893L4.28461 9.51325C4.66689 9.13996 4.87961 8.6264 4.87325 8.09214L4.83444 4.83449L8.09206 4.87329C8.62632 4.87966 9.13987 4.66693 9.51315 4.28465Z" fill="#615770"/>
</svg>
