<svg width="20" height="20" viewBox="0 0 20 20" fill="none" xmlns="http://www.w3.org/2000/svg">
<path fill-rule="evenodd" clip-rule="evenodd" d="M0 10C0 4.48 4.48 0 10 0C15.52 0 20 4.48 20 10C20 15.52 15.52 20 10 20C4.48 20 0 15.52 0 10ZM11.89 6.69997L9.99997 8.58997L8.10997 6.69997C7.71997 6.30997 7.08997 6.30997 6.69997 6.69997C6.30997 7.08997 6.30997 7.71997 6.69997 8.10997L8.58997 9.99997L6.69997 11.89C6.30997 12.28 6.30997 12.91 6.69997 13.3C7.08997 13.69 7.71997 13.69 8.10997 13.3L9.99997 11.41L11.89 13.3C12.28 13.69 12.91 13.69 13.3 13.3C13.69 12.91 13.69 12.28 13.3 11.89L11.41 9.99997L13.3 8.10997C13.69 7.71997 13.69 7.08997 13.3 6.69997C12.91 6.31997 12.27 6.31997 11.89 6.69997Z" fill="#E60000"/>
</svg>
