<svg width="24" height="24" viewBox="0 0 24 24" fill="none" xmlns="http://www.w3.org/2000/svg">
<path d="M2 13.3333V15H8V10H5C3.35 10 2 11.5 2 13.3333Z" fill="#E7DDEF"/>
<path fill-rule="evenodd" clip-rule="evenodd" d="M19.9999 6.28571C19.9999 5.02857 18.9713 4 17.7141 4H14.2856V6.28571H17.7141V9.31429L13.737 14.2857H9.71415V8.57143H5.14272C2.617 8.57143 0.571289 10.6171 0.571289 13.1429V16.5714H2.857C2.857 18.4686 4.38843 20 6.28557 20C8.18272 20 9.71415 18.4686 9.71415 16.5714H14.8341L19.9999 10.1143V6.28571ZM6.28557 17.7143C5.657 17.7143 5.14272 17.2 5.14272 16.5714H7.42843C7.42843 17.2 6.91415 17.7143 6.28557 17.7143ZM2.857 14.2857V13.1429C2.857 11.8857 3.88557 10.8571 5.14272 10.8571H7.42843V14.2857H2.857ZM9.71415 5.14286H3.99986V7.42857H9.71415V5.14286ZM16.9998 16.4286C16.9998 14.5314 18.5312 13 20.4283 13C22.3255 13 23.8569 14.5314 23.8569 16.4286C23.8569 18.3257 22.3255 19.8571 20.4283 19.8571C18.5312 19.8571 16.9998 18.3257 16.9998 16.4286ZM19.2855 16.4286C19.2855 17.0571 19.7998 17.5714 20.4283 17.5714C21.0569 17.5714 21.5712 17.0571 21.5712 16.4286C21.5712 15.8 21.0569 15.2857 20.4283 15.2857C19.7998 15.2857 19.2855 15.8 19.2855 16.4286Z" fill="#8A48B8"/>
</svg>
