<svg width="14" height="14" viewBox="0 0 14 14" fill="none" xmlns="http://www.w3.org/2000/svg">
<path fill-rule="evenodd" clip-rule="evenodd" d="M0.333496 6.99967C0.333496 3.31967 3.32016 0.333008 7.00016 0.333008C10.6802 0.333008 13.6668 3.31967 13.6668 6.99967C13.6668 10.6797 10.6802 13.6663 7.00016 13.6663C3.32016 13.6663 0.333496 10.6797 0.333496 6.99967ZM8.26014 4.79965L7.00014 6.05966L5.74014 4.79965C5.48014 4.53966 5.06014 4.53966 4.80014 4.79965C4.54014 5.05966 4.54014 5.47966 4.80014 5.73965L6.06014 6.99966L4.80014 8.25965C4.54014 8.51966 4.54014 8.93966 4.80014 9.19966C5.06014 9.45966 5.48014 9.45966 5.74014 9.19966L7.00014 7.93966L8.26014 9.19966C8.52014 9.45966 8.94014 9.45966 9.20014 9.19966C9.46014 8.93966 9.46014 8.51966 9.20014 8.25965L7.94014 6.99966L9.20014 5.73965C9.46014 5.47966 9.46014 5.05966 9.20014 4.79965C8.94014 4.54632 8.51348 4.54632 8.26014 4.79965Z" fill="#615770"/>
</svg>
