<svg width="24" height="24" viewBox="0 0 24 24" fill="none" xmlns="http://www.w3.org/2000/svg">
    <defs>
        <linearGradient id="paint0_linear" x1="-1.75" y1="40.5" x2="36.4047" y2="20.9094" gradientUnits="userSpaceOnUse">
            <stop stop-color="#DC7A29"/>
            <stop offset="1" stop-color="#FDE667"/>
        </linearGradient>
    </defs>

    <rect width="24" height="24" rx="4" fill="url(#paint0_linear)"/>
    <path d="M12.0002 5.33203C8.32016 5.33203 5.3335 8.3187 5.3335 11.9987C5.3335 15.6787 8.32016 18.6654 12.0002 18.6654C15.6802 18.6654 18.6668 15.6787 18.6668 11.9987C18.6668 8.3187 15.6802 5.33203 12.0002 5.33203ZM12.0002 17.332C9.06016 17.332 6.66683 14.9387 6.66683 11.9987C6.66683 9.0587 9.06016 6.66536 12.0002 6.66536C14.9402 6.66536 17.3335 9.0587 17.3335 11.9987C17.3335 14.9387 14.9402 17.332 12.0002 17.332ZM11.3335 14.6654H12.6668V15.9987H11.3335V14.6654ZM12.4068 8.02536C11.0335 7.82536 9.82016 8.67203 9.4535 9.88536C9.3335 10.272 9.62683 10.6654 10.0335 10.6654H10.1668C10.4402 10.6654 10.6602 10.472 10.7535 10.2187C10.9668 9.62536 11.6002 9.2187 12.2868 9.36537C12.9202 9.4987 13.3868 10.1187 13.3335 10.7654C13.2668 11.6587 12.2535 11.852 11.7002 12.6854C11.7002 12.692 11.6935 12.692 11.6935 12.6987C11.6868 12.712 11.6802 12.7187 11.6735 12.732C11.6135 12.832 11.5535 12.9454 11.5068 13.0654C11.5002 13.0854 11.4868 13.0987 11.4802 13.1187C11.4735 13.132 11.4735 13.1454 11.4668 13.1654C11.3868 13.392 11.3335 13.6654 11.3335 13.9987H12.6668C12.6668 13.7187 12.7402 13.4854 12.8535 13.2854C12.8668 13.2654 12.8735 13.2454 12.8868 13.2254C12.9402 13.132 13.0068 13.0454 13.0735 12.9654C13.0802 12.9587 13.0868 12.9454 13.0935 12.9387C13.1602 12.8587 13.2335 12.7854 13.3135 12.712C13.9535 12.1054 14.8202 11.612 14.6402 10.3387C14.4802 9.1787 13.5668 8.1987 12.4068 8.02536Z" fill="white"/>
</svg>
