<svg width="48" height="48" viewBox="0 0 48 48" fill="none" xmlns="http://www.w3.org/2000/svg">
    <defs>
        <linearGradient id="paint0_linear" x1="-3.5" y1="81" x2="72.8094" y2="41.8188" gradientUnits="userSpaceOnUse">
            <stop stop-color="#DC7A29"/>
            <stop offset="1" stop-color="#FDE667"/>
        </linearGradient>
    </defs>
    <rect width="48" height="48" rx="4" fill="url(#paint0_linear)"/>
<path d="M24 14C18.48 14 14 18.48 14 24C14 29.52 18.48 34 24 34C29.52 34 34 29.52 34 24C34 18.48 29.52 14 24 14ZM24 32C19.59 32 16 28.41 16 24C16 19.59 19.59 16 24 16C28.41 16 32 19.59 32 24C32 28.41 28.41 32 24 32ZM23 28H25V30H23V28ZM24.61 18.04C22.55 17.74 20.73 19.01 20.18 20.83C20 21.41 20.44 22 21.05 22H21.25C21.66 22 21.99 21.71 22.13 21.33C22.45 20.44 23.4 19.83 24.43 20.05C25.38 20.25 26.08 21.18 26 22.15C25.9 23.49 24.38 23.78 23.55 25.03C23.55 25.04 23.54 25.04 23.54 25.05C23.53 25.07 23.52 25.08 23.51 25.1C23.42 25.25 23.33 25.42 23.26 25.6C23.25 25.63 23.23 25.65 23.22 25.68C23.21 25.7 23.21 25.72 23.2 25.75C23.08 26.09 23 26.5 23 27H25C25 26.58 25.11 26.23 25.28 25.93C25.3 25.9 25.31 25.87 25.33 25.84C25.41 25.7 25.51 25.57 25.61 25.45C25.62 25.44 25.63 25.42 25.64 25.41C25.74 25.29 25.85 25.18 25.97 25.07C26.93 24.16 28.23 23.42 27.96 21.51C27.72 19.77 26.35 18.3 24.61 18.04Z" fill="white"/>
</svg>
