<svg width="18" height="18" viewBox="0 0 18 18" fill="none" xmlns="http://www.w3.org/2000/svg">
<path d="M14.4 14.4C14.756 14.4 15.104 14.5056 15.4 14.7034C15.696 14.9011 15.9267 15.1823 16.063 15.5112C16.1992 15.8401 16.2349 16.202 16.1654 16.5512C16.096 16.9003 15.9245 17.2211 15.6728 17.4728C15.4211 17.7245 15.1003 17.896 14.7512 17.9654C14.402 18.0349 14.0401 17.9992 13.7112 17.863C13.3823 17.7267 13.1011 17.496 12.9034 17.2C12.7056 16.904 12.6 16.556 12.6 16.2C12.6 15.7226 12.7896 15.2648 13.1272 14.9272C13.4648 14.5896 13.9226 14.4 14.4 14.4ZM0 0H2.943L3.789 1.8H17.1C17.3387 1.8 17.5676 1.89482 17.7364 2.0636C17.9052 2.23239 18 2.4613 18 2.7C17.9953 2.85583 17.9585 3.00902 17.892 3.15L14.67 9C14.5107 9.27602 14.2809 9.50478 14.0042 9.66291C13.7274 9.82103 13.4137 9.90285 13.095 9.9H6.39L5.58 11.367V11.475C5.58 11.5347 5.60371 11.5919 5.6459 11.6341C5.6881 11.6763 5.74533 11.7 5.805 11.7H16.2V13.5H5.4C4.92261 13.5 4.46477 13.3104 4.12721 12.9728C3.78964 12.6352 3.6 12.1774 3.6 11.7C3.59232 11.3863 3.66678 11.076 3.816 10.8L5.04 8.631L1.8 1.8H0V0ZM5.4 14.4C5.75601 14.4 6.10402 14.5056 6.40003 14.7034C6.69603 14.9011 6.92675 15.1823 7.06298 15.5112C7.19922 15.8401 7.23487 16.202 7.16541 16.5512C7.09596 16.9003 6.92453 17.2211 6.67279 17.4728C6.42106 17.7245 6.10033 17.896 5.75116 17.9654C5.402 18.0349 5.04008 17.9992 4.71117 17.863C4.38226 17.7267 4.10114 17.496 3.90335 17.2C3.70557 16.904 3.6 16.556 3.6 16.2C3.6 15.7226 3.78964 15.2648 4.12721 14.9272C4.46477 14.5896 4.92261 14.4 5.4 14.4ZM13.248 8.1L15.75 3.6H4.626L6.75 8.1H13.248Z" fill="black"/>
</svg>
