<svg width="24" height="14" viewBox="0 0 24 14" fill="none" xmlns="http://www.w3.org/2000/svg">
<path fill-rule="evenodd" clip-rule="evenodd" d="M10 0C9.44771 0 9 0.447715 9 1C9 1.55228 9.44771 2 10 2H12.3787C12.5113 2 12.6385 2.05268 12.7322 2.14645L14.5858 4H11C10.826 4 10.655 4.04542 10.5039 4.13176L7.63714 5.66028C7.25677 5.86309 6.78926 5.79934 6.47708 5.5021L5.20711 4.29289C5.01957 4.10536 4.76522 4 4.5 4H1C0.447715 4 0 4.44772 0 5C0 5.55228 0.447715 6 1 6H4C1.79086 6 0 7.79086 0 10C0 12.2091 1.79086 14 4 14C6.13339 14 7.87669 12.3298 7.99374 10.2257L9.24742 11.6585C9.43731 11.8755 9.71164 12 10 12H12.5C12.8557 12 13.1846 11.8111 13.3638 11.5039L16.5786 5.99279L17.4796 6.89379C16.5768 7.6272 16 8.74624 16 10C16 12.2091 17.7909 14 20 14C22.2091 14 24 12.2091 24 10C24 7.79086 22.2091 6 20 6C19.8139 6 19.6308 6.0127 19.4515 6.03729L17.414 3.99978L19 3.99986C19.5523 3.99989 20 3.55217 20 2.99986V2.49991C20 2.19348 19.8269 1.91335 19.5528 1.77631L19.39 1.69493C19.1413 1.57057 18.8521 1.55539 18.5917 1.65303L16.0285 2.61424L13.7071 0.292893C13.5196 0.105357 13.2652 0 13 0H10ZM4 6H4.08579L4.08671 6.00092C4.05788 6.00031 4.02898 6 4 6ZM4 12C5.10457 12 6 11.1046 6 10C6 8.89543 5.10457 8 4 8C2.89543 8 2 8.89543 2 10C2 11.1046 2.89543 12 4 12ZM20 12C21.1046 12 22 11.1046 22 10C22 8.89543 21.1046 8 20 8C18.8954 8 18 8.89543 18 10C18 11.1046 18.8954 12 20 12Z" fill="black"/>
</svg>
