<svg width="32" height="32" viewBox="0 0 32 32" fill="none" xmlns="http://www.w3.org/2000/svg">
<path fill-rule="evenodd" clip-rule="evenodd" d="M13.3333 6.66602C12.597 6.66602 12 7.26297 12 7.99935C12 8.73573 12.597 9.33268 13.3333 9.33268H16.5049C16.6817 9.33268 16.8513 9.40292 16.9763 9.52794L19.4477 11.9993H14.6667C14.4346 11.9993 14.2066 12.0599 14.0051 12.175L10.1829 14.2131C9.6757 14.4835 9.05234 14.3985 8.6361 14.0021L6.94281 12.3899C6.69276 12.1398 6.35362 11.9993 6 11.9993H1.33333C0.596954 11.9993 0 12.5963 0 13.3327C0 14.0691 0.596954 14.666 1.33333 14.666H5.33333C2.38781 14.666 0 17.0538 0 19.9993C0 22.9449 2.38781 25.3327 5.33333 25.3327C8.17785 25.3327 10.5023 23.1058 10.6583 20.3003L12.3299 22.2107C12.5831 22.5 12.9489 22.666 13.3333 22.666H16.6667C17.1409 22.666 17.5794 22.4141 17.8184 22.0045L22.1048 14.6564L23.3061 15.8577C22.1024 16.8356 21.3333 18.3277 21.3333 19.9993C21.3333 22.9449 23.7211 25.3327 26.6667 25.3327C29.6122 25.3327 32 22.9449 32 19.9993C32 17.0538 29.6122 14.666 26.6667 14.666C26.4186 14.666 26.1744 14.683 25.9353 14.7157L23.2187 11.9991L25.3333 11.9992C26.0697 11.9992 26.6667 11.4022 26.6667 10.6658V9.99923C26.6667 9.59066 26.4358 9.21714 26.0704 9.03442L25.8534 8.92592C25.5218 8.76011 25.1361 8.73987 24.7889 8.87005L21.3713 10.1517L18.2761 7.05654C18.0261 6.80649 17.687 6.66602 17.3333 6.66602H13.3333ZM5.33333 14.666H5.44772L5.44894 14.6672C5.41051 14.6664 5.37197 14.666 5.33333 14.666ZM5.33333 22.666C6.80609 22.666 8 21.4721 8 19.9993C8 18.5266 6.80609 17.3327 5.33333 17.3327C3.86057 17.3327 2.66667 18.5266 2.66667 19.9993C2.66667 21.4721 3.86057 22.666 5.33333 22.666ZM26.6667 22.666C28.1394 22.666 29.3333 21.4721 29.3333 19.9993C29.3333 18.5266 28.1394 17.3327 26.6667 17.3327C25.1939 17.3327 24 18.5266 24 19.9993C24 21.4721 25.1939 22.666 26.6667 22.666ZM11.4711 16.6944C11.3248 16.778 11.2918 16.9747 11.4027 17.1015L13.8587 19.9083C13.9093 19.9662 13.9825 19.9993 14.0594 19.9993H15.7477C15.8425 19.9993 15.9302 19.949 15.978 19.867L18.778 15.067C18.8817 14.8893 18.7535 14.666 18.5477 14.666H15.0916C15.0452 14.666 14.9996 14.6781 14.9593 14.7012L11.4711 16.6944Z" fill="#8A48B8"/>
<path fill-rule="evenodd" clip-rule="evenodd" d="M11.4708 16.6944C11.3245 16.778 11.2915 16.9747 11.4024 17.1015L13.8584 19.9083C13.909 19.9662 13.9822 19.9993 14.0591 19.9993H15.7474C15.8422 19.9993 15.9299 19.949 15.9777 19.867L18.7777 15.067C18.8814 14.8893 18.7532 14.666 18.5474 14.666H15.0913C15.0449 14.666 14.9993 14.6781 14.959 14.7012L11.4708 16.6944Z" fill="#E7DDEF"/>
</svg>
