<svg width="24" height="24" viewBox="0 0 24 24" fill="none" xmlns="http://www.w3.org/2000/svg">
<path d="M5 14V11.087V5H21V17.8696H15.8333C15 17.8696 12.5 16 12.5 16C12.5 16 11.0833 14.8477 11.5 14.5L13 13.5C12.5833 12.6522 11.5152 14.114 11 14L10.5 15H7.5L5 16V14Z" fill="#E7DDEF"/>
<path fill-rule="evenodd" clip-rule="evenodd" d="M5.00005 4H20.3C21.2351 4 22 4.765 22 5.7V17.6C22 18.535 21.2351 19.3 20.3 19.3H17V17.6H20.3V5.7H5.00005V14H3.30005V5.7C3.30005 4.765 4.06505 4 5.00005 4Z" fill="#8647B3"/>
<rect x="11" y="7" width="8" height="2" fill="#8647B3"/>
<rect x="14" y="10" width="5" height="2" fill="#8647B3"/>
<path fill-rule="evenodd" clip-rule="evenodd" d="M7.25 12C6.90482 12 6.625 12.2878 6.625 12.6429C6.625 12.9979 6.90482 13.2857 7.25 13.2857H8.73667C8.81955 13.2857 8.89904 13.3196 8.95765 13.3799L10.1161 14.5714H7.875C7.76623 14.5714 7.65935 14.6006 7.56491 14.6561L5.77321 15.6388C5.53548 15.7691 5.24329 15.7281 5.04817 15.5371L4.25444 14.7597C4.13723 14.6392 3.97826 14.5714 3.8125 14.5714H1.625C1.27982 14.5714 1 14.8592 1 15.2143C1 15.5693 1.27982 15.8571 1.625 15.8571H3.5C2.11929 15.8571 1 17.0084 1 18.4286C1 19.8487 2.11929 21 3.5 21C4.83337 21 5.92293 19.9263 5.99609 18.5737L6.77964 19.4948C6.89832 19.6343 7.06977 19.7143 7.25 19.7143H8.8125C9.03479 19.7143 9.24036 19.5928 9.35236 19.3953L11.3616 15.8525L11.9247 16.4317C11.3605 16.9032 11 17.6226 11 18.4286C11 19.8487 12.1193 21 13.5 21C14.8807 21 16 19.8487 16 18.4286C16 17.0084 14.8807 15.8571 13.5 15.8571C13.3837 15.8571 13.2693 15.8653 13.1572 15.8811L11.8837 14.5713L12.875 14.5713C13.2202 14.5714 13.5 14.2835 13.5 13.9285V13.6071C13.5 13.4101 13.3918 13.23 13.2205 13.1419L13.1188 13.0896C12.9633 13.0097 12.7825 12.9999 12.6198 13.0627L11.0178 13.6806L9.56694 12.1883C9.44973 12.0677 9.29076 12 9.125 12H7.25ZM3.5 15.8571H3.55362L3.55419 15.8577C3.53617 15.8573 3.51811 15.8571 3.5 15.8571ZM3.5 19.7143C4.19036 19.7143 4.75 19.1387 4.75 18.4286C4.75 17.7185 4.19036 17.1429 3.5 17.1429C2.80964 17.1429 2.25 17.7185 2.25 18.4286C2.25 19.1387 2.80964 19.7143 3.5 19.7143ZM13.5 19.7143C14.1904 19.7143 14.75 19.1387 14.75 18.4286C14.75 17.7185 14.1904 17.1429 13.5 17.1429C12.8096 17.1429 12.25 17.7185 12.25 18.4286C12.25 19.1387 12.8096 19.7143 13.5 19.7143Z" fill="#8647B3"/>
</svg>
