<svg width="360" height="80" viewBox="0 0 360 80" fill="none" xmlns="http://www.w3.org/2000/svg">
<path d="M6.99382e-06 -1.62134e-05L2.68888e-07 76.9242C7 77.9233 29.4579 81.3492 59.5 79.4218C114 75.9254 178 47.4533 203.5 40.9597C229 34.4661 245.5 30.9695 278.5 27.473C304.9 24.6757 343 27.4731 360 30.9695L360 1.52588e-05L6.99382e-06 -1.62134e-05Z" fill="url(#paint0_linear)"/>
<path d="M6.99382e-06 -1.62134e-05L2.68888e-07 76.9242C7 77.9233 29.4579 81.3492 59.5 79.4218C114 75.9254 178 47.4533 203.5 40.9597C229 34.4661 245.5 30.9695 278.5 27.473C304.9 24.6757 343 27.4731 360 30.9695L360 1.52588e-05L6.99382e-06 -1.62134e-05Z" fill="url(#paint1_linear)" fill-opacity="0.8"/>
<defs>
<linearGradient id="paint0_linear" x1="-5.5" y1="1.68728e-06" x2="360" y2="3.36403e-05" gradientUnits="userSpaceOnUse">
<stop stop-color="#EAA251"/>
<stop offset="1" stop-color="#F6CE5F"/>
</linearGradient>
<linearGradient id="paint1_linear" x1="180" y1="-41" x2="180" y2="105" gradientUnits="userSpaceOnUse">
<stop stop-color="white"/>
<stop offset="1" stop-color="white" stop-opacity="0"/>
</linearGradient>
</defs>
</svg>
